%FSLAX25Y25*%
%MOIN*%
G70*
G01*
G75*
G04 Layer_Color=8388736*
%ADD10C,0.00700*%
%ADD11C,0.01200*%
%ADD12C,0.01600*%
%ADD13C,0.25000*%
%ADD14C,0.04134*%
%ADD15C,0.08071*%
%ADD16R,0.04134X0.04134*%
%ADD17R,0.03150X0.03347*%
%ADD18R,0.04331X0.05906*%
%ADD19C,0.02000*%
%ADD20C,0.01200*%
%ADD21C,0.02362*%
%ADD22C,0.00787*%
%ADD23C,0.00800*%
%ADD24C,0.06500*%
%ADD25C,0.25800*%
%ADD26C,0.04934*%
%ADD27C,0.08871*%
%ADD28R,0.04934X0.04934*%
D24*
X-400078Y-28851D02*
G03*
X-399597Y-29201I478J151D01*
G01*
X-387600D02*
G03*
X-387099Y-28700I0J501D01*
G01*
D02*
G03*
X-387112Y-28584I-501J0D01*
G01*
X-387112D02*
G03*
X-387111Y-28587I2762J634D01*
G01*
X-385040Y-25201D02*
G03*
X-387112Y-28584I691J-2748D01*
G01*
X2434Y-28200D02*
G03*
X-137Y-25201I-3034J0D01*
G01*
X2403Y-28629D02*
G03*
X2434Y-28200I-3004J429D01*
G01*
X2403Y-28629D02*
G03*
X2900Y-29201I496J-71D01*
G01*
X16897D02*
G03*
X17378Y-28851I3J501D01*
G01*
D02*
G03*
X18437Y-21965I-21861J6886D01*
G01*
D02*
G03*
X15988Y-11656I-22920J0D01*
G01*
D02*
G03*
X15968Y-11620I-448J-226D01*
G01*
Y-11620D02*
G03*
X15948Y-11575I-468J-180D01*
G01*
X15348Y-8925D02*
G03*
X15948Y-11575I5655J-113D01*
G01*
X15348Y-8925D02*
G03*
X15383Y-8836I-448J225D01*
G01*
Y-8836D02*
G03*
X22902Y45500I-192572J54336D01*
G01*
D02*
G03*
X15393Y99800I-200092J0D01*
G01*
X22665Y109203D02*
G03*
X15393Y99800I1085J-8353D01*
G01*
X22665Y109203D02*
G03*
X23101Y109700I-65J497D01*
G01*
D02*
G03*
X23021Y109972I-501J0D01*
G01*
X23021D02*
G03*
X5528Y113721I-10621J-6872D01*
G01*
X5528Y113721D02*
G03*
X5470Y113678I272J-421D01*
G01*
Y113678D02*
G03*
X5473Y113680I-7755J9007D01*
G01*
X-2488Y110801D02*
G03*
X5470Y113678I204J11884D01*
G01*
X-2488Y110801D02*
G03*
X-2500Y110801I-12J-501D01*
G01*
X-380200D02*
G03*
X-380212Y110801I0J-501D01*
G01*
Y110801D02*
G03*
X-380209Y110801I-204J11884D01*
G01*
X-388170Y113678D02*
G03*
X-380212Y110801I7755J9007D01*
G01*
X-388173Y113680D02*
G03*
X-388170Y113678I7757J9005D01*
G01*
Y113678D02*
G03*
X-388228Y113721I-330J-378D01*
G01*
X-388228Y113721D02*
G03*
X-405721Y109972I-6872J-10621D01*
G01*
X-405721D02*
G03*
X-405365Y109203I421J-272D01*
G01*
X-398027Y100850D02*
G03*
X-405365Y109203I-8423J0D01*
G01*
X-398093Y99800D02*
G03*
X-398027Y100850I-8357J1050D01*
G01*
X-398093Y99800D02*
G03*
X-398092Y-8803I192583J-54300D01*
G01*
X-398092D02*
G03*
X-398100Y-8934I492J-97D01*
G01*
X-398087Y-9319D02*
G03*
X-398100Y-8934I-5656J0D01*
G01*
X-398507Y-11457D02*
G03*
X-398087Y-9319I-5237J2137D01*
G01*
X-398507Y-11457D02*
G03*
X-398688Y-11656I267J-425D01*
G01*
D02*
G03*
X-400078Y-28851I20470J-10309D01*
G01*
X-399597Y-29201D02*
X-387600D01*
X-387112Y-28584D02*
X-387111Y-28587D01*
X-385040Y-25201D02*
X-137D01*
X2900Y-29201D02*
X16897D01*
X15968Y-11620D02*
Y-11620D01*
X15948Y-11575D02*
X15948D01*
X15348Y-8925D02*
X15348D01*
X15383Y-8836D02*
Y-8836D01*
X23021Y109972D02*
X23021D01*
X5528Y113721D02*
X5528Y113721D01*
X5470Y113678D02*
X5473Y113680D01*
X-2488Y110801D02*
Y110801D01*
X-380200Y110801D02*
X-2500D01*
X-380212Y110801D02*
X-380209Y110801D01*
X-388173Y113680D02*
X-388170Y113678D01*
Y113678D02*
Y113678D01*
X-388228Y113721D02*
X-388228Y113721D01*
X-405721Y109972D02*
X-405721D01*
X-398092Y-8803D02*
X-398092D01*
D25*
X-382500Y85000D02*
D03*
Y0D02*
D03*
X0D02*
D03*
Y85000D02*
D03*
D26*
X-354272Y12717D02*
D03*
X-346398D02*
D03*
X-338524D02*
D03*
X-330650D02*
D03*
X-322776D02*
D03*
X-314902D02*
D03*
X-307028D02*
D03*
X-299154D02*
D03*
X-291280D02*
D03*
X-283406D02*
D03*
X-275532D02*
D03*
X-267657D02*
D03*
X-259783D02*
D03*
X-251909D02*
D03*
X-244035D02*
D03*
X-236161D02*
D03*
X-228287D02*
D03*
X-220413D02*
D03*
X-350335Y4843D02*
D03*
X-342461D02*
D03*
X-334587D02*
D03*
X-326713D02*
D03*
X-318839D02*
D03*
X-310965D02*
D03*
X-303091D02*
D03*
X-295217D02*
D03*
X-287343D02*
D03*
X-279469D02*
D03*
X-271594D02*
D03*
X-263720D02*
D03*
X-255846D02*
D03*
X-247972D02*
D03*
X-240098D02*
D03*
X-232224D02*
D03*
X-224350D02*
D03*
X-350335Y-5000D02*
D03*
X-342461D02*
D03*
X-334587D02*
D03*
X-326713D02*
D03*
X-318839D02*
D03*
X-310965D02*
D03*
X-303091D02*
D03*
X-295217D02*
D03*
X-287343D02*
D03*
X-279469D02*
D03*
X-271594D02*
D03*
X-263720D02*
D03*
X-255846D02*
D03*
X-247972D02*
D03*
X-240098D02*
D03*
X-232224D02*
D03*
X-224350D02*
D03*
X-354272Y-12874D02*
D03*
X-346398D02*
D03*
X-338524D02*
D03*
X-330650D02*
D03*
X-322776D02*
D03*
X-314902D02*
D03*
X-307028D02*
D03*
X-299154D02*
D03*
X-291280D02*
D03*
X-283406D02*
D03*
X-275532D02*
D03*
X-267657D02*
D03*
X-259783D02*
D03*
X-251909D02*
D03*
X-244035D02*
D03*
X-236161D02*
D03*
X-228287D02*
D03*
X-220413D02*
D03*
X-157421D02*
D03*
X-153484Y-5000D02*
D03*
Y4843D02*
D03*
X-149547Y12717D02*
D03*
X-141673D02*
D03*
X-133799D02*
D03*
X-125925D02*
D03*
X-118051D02*
D03*
X-110177D02*
D03*
X-102303D02*
D03*
X-94429D02*
D03*
X-86555D02*
D03*
X-78681D02*
D03*
X-145610Y4843D02*
D03*
X-137736D02*
D03*
X-129862D02*
D03*
X-121988D02*
D03*
X-114114D02*
D03*
X-106240D02*
D03*
X-98366D02*
D03*
X-90492D02*
D03*
X-82618D02*
D03*
X-145610Y-5000D02*
D03*
X-137736D02*
D03*
X-129862D02*
D03*
X-121988D02*
D03*
X-114114D02*
D03*
X-106240D02*
D03*
X-98366D02*
D03*
X-90492D02*
D03*
X-82618D02*
D03*
X-149547Y-12874D02*
D03*
X-141673D02*
D03*
X-133799D02*
D03*
X-125925D02*
D03*
X-118051D02*
D03*
X-110177D02*
D03*
X-102303D02*
D03*
X-94429D02*
D03*
X-86555D02*
D03*
X-78681D02*
D03*
X-62933Y12717D02*
D03*
X-55059D02*
D03*
X-47185D02*
D03*
X-39311D02*
D03*
X-31437D02*
D03*
X-66870Y4843D02*
D03*
X-58996D02*
D03*
X-51122D02*
D03*
X-43248D02*
D03*
X-35374D02*
D03*
X-27500D02*
D03*
X-62933Y-12874D02*
D03*
X-55059D02*
D03*
X-47185D02*
D03*
X-39311D02*
D03*
X-31437D02*
D03*
X-66870Y-5000D02*
D03*
X-58996D02*
D03*
X-51122D02*
D03*
X-43248D02*
D03*
X-35374D02*
D03*
X-165295Y-12874D02*
D03*
X-173169D02*
D03*
X-181043D02*
D03*
X-188917D02*
D03*
X-196791D02*
D03*
X-204665D02*
D03*
X-212539D02*
D03*
X-161358Y-5000D02*
D03*
X-169232D02*
D03*
X-177106D02*
D03*
X-184980D02*
D03*
X-192854D02*
D03*
X-200728D02*
D03*
X-208602D02*
D03*
X-216476D02*
D03*
X-161358Y4843D02*
D03*
X-169232D02*
D03*
X-177106D02*
D03*
X-184980D02*
D03*
X-192854D02*
D03*
X-200728D02*
D03*
X-208602D02*
D03*
X-216476D02*
D03*
X-157421Y12717D02*
D03*
X-165295D02*
D03*
X-173169D02*
D03*
X-181043D02*
D03*
X-188917D02*
D03*
X-196791D02*
D03*
X-204665D02*
D03*
X-212539D02*
D03*
X-354272Y97717D02*
D03*
X-346398D02*
D03*
X-338524D02*
D03*
X-330650D02*
D03*
X-322776D02*
D03*
X-314902D02*
D03*
X-307028D02*
D03*
X-299154D02*
D03*
X-291280D02*
D03*
X-283406D02*
D03*
X-275532D02*
D03*
X-267657D02*
D03*
X-259783D02*
D03*
X-251909D02*
D03*
X-244035D02*
D03*
X-236161D02*
D03*
X-228287D02*
D03*
X-220413D02*
D03*
X-350335Y89843D02*
D03*
X-342461D02*
D03*
X-334587D02*
D03*
X-326713D02*
D03*
X-318839D02*
D03*
X-310965D02*
D03*
X-303091D02*
D03*
X-295217D02*
D03*
X-287343D02*
D03*
X-279469D02*
D03*
X-271594D02*
D03*
X-263720D02*
D03*
X-255846D02*
D03*
X-247972D02*
D03*
X-240098D02*
D03*
X-232224D02*
D03*
X-224350D02*
D03*
X-350335Y80000D02*
D03*
X-342461D02*
D03*
X-334587D02*
D03*
X-326713D02*
D03*
X-318839D02*
D03*
X-310965D02*
D03*
X-303091D02*
D03*
X-295217D02*
D03*
X-287343D02*
D03*
X-279469D02*
D03*
X-271594D02*
D03*
X-263720D02*
D03*
X-255846D02*
D03*
X-247972D02*
D03*
X-240098D02*
D03*
X-232224D02*
D03*
X-224350D02*
D03*
X-354272Y72126D02*
D03*
X-346398D02*
D03*
X-338524D02*
D03*
X-330650D02*
D03*
X-322776D02*
D03*
X-314902D02*
D03*
X-307028D02*
D03*
X-299154D02*
D03*
X-291280D02*
D03*
X-283406D02*
D03*
X-275532D02*
D03*
X-267657D02*
D03*
X-259783D02*
D03*
X-251909D02*
D03*
X-244035D02*
D03*
X-236161D02*
D03*
X-228287D02*
D03*
X-220413D02*
D03*
X-157421D02*
D03*
X-153484Y80000D02*
D03*
Y89843D02*
D03*
X-149547Y97717D02*
D03*
X-141673D02*
D03*
X-133799D02*
D03*
X-125925D02*
D03*
X-118051D02*
D03*
X-110177D02*
D03*
X-102303D02*
D03*
X-94429D02*
D03*
X-86555D02*
D03*
X-78681D02*
D03*
X-145610Y89843D02*
D03*
X-137736D02*
D03*
X-129862D02*
D03*
X-121988D02*
D03*
X-114114D02*
D03*
X-106240D02*
D03*
X-98366D02*
D03*
X-90492D02*
D03*
X-82618D02*
D03*
X-145610Y80000D02*
D03*
X-137736D02*
D03*
X-129862D02*
D03*
X-121988D02*
D03*
X-114114D02*
D03*
X-106240D02*
D03*
X-98366D02*
D03*
X-90492D02*
D03*
X-82618D02*
D03*
X-149547Y72126D02*
D03*
X-141673D02*
D03*
X-133799D02*
D03*
X-125925D02*
D03*
X-118051D02*
D03*
X-110177D02*
D03*
X-102303D02*
D03*
X-94429D02*
D03*
X-86555D02*
D03*
X-78681D02*
D03*
X-62933Y97717D02*
D03*
X-55059D02*
D03*
X-47185D02*
D03*
X-39311D02*
D03*
X-31437D02*
D03*
X-66870Y89843D02*
D03*
X-58996D02*
D03*
X-51122D02*
D03*
X-43248D02*
D03*
X-35374D02*
D03*
X-27500D02*
D03*
X-62933Y72126D02*
D03*
X-55059D02*
D03*
X-47185D02*
D03*
X-39311D02*
D03*
X-31437D02*
D03*
X-66870Y80000D02*
D03*
X-58996D02*
D03*
X-51122D02*
D03*
X-43248D02*
D03*
X-35374D02*
D03*
X-165295Y72126D02*
D03*
X-173169D02*
D03*
X-181043D02*
D03*
X-188917D02*
D03*
X-196791D02*
D03*
X-204665D02*
D03*
X-212539D02*
D03*
X-161358Y80000D02*
D03*
X-169232D02*
D03*
X-177106D02*
D03*
X-184980D02*
D03*
X-192854D02*
D03*
X-200728D02*
D03*
X-208602D02*
D03*
X-216476D02*
D03*
X-161358Y89843D02*
D03*
X-169232D02*
D03*
X-177106D02*
D03*
X-184980D02*
D03*
X-192854D02*
D03*
X-200728D02*
D03*
X-208602D02*
D03*
X-216476D02*
D03*
X-157421Y97717D02*
D03*
X-165295D02*
D03*
X-173169D02*
D03*
X-181043D02*
D03*
X-188917D02*
D03*
X-196791D02*
D03*
X-204665D02*
D03*
X-212539D02*
D03*
D27*
X-361358Y-79D02*
D03*
X-73366D02*
D03*
X-361358Y84921D02*
D03*
X-73366D02*
D03*
D28*
X-27500Y-5000D02*
D03*
Y80000D02*
D03*
M02*
