M48
;Layer_Color=9474304
;FILE_FORMAT=2:5
INCH,LZ
;TYPE=PLATED
T1F00S00C0.02756
T2F00S00C0.12900
;TYPE=NON_PLATED
T3F00S00C0.09252
%
T01
X-0354272Y-0012874
X-0350335Y-0005
Y0004843
X-0342461
X-0334587
X-0326713
X-0318839
X-0310965
X-0303091
X-0295217
X-0287343
X-0279469
X-0271594
X-026372
X-0255846
X-0247972
X-0240098
X-0232224
X-022435
X-0216476
X-0208602
X-0200728
Y-0005
X-0208602
X-0216476
X-022435
X-0232224
X-0240098
X-0247972
X-0255846
X-026372
X-0271594
X-0279469
X-0287343
X-0295217
X-0303091
X-0310965
X-0318839
X-0326713
X-0334587
X-0342461
X-0346398Y-0012874
X-0338524
X-033065
X-0322776
X-0314902
X-0307028
X-0299154
X-029128
X-0283406
X-0275532
X-0267657
X-0259783
X-0251909
X-0244035
X-0236161
X-0228287
X-0220413
X-0212539
X-0204665
X-0196791
X-0188917
X-0181043
X-0173169
X-0165295
X-0157421
X-0149547
X-0141673
X-0133799
X-0125925
X-0118051
X-0110177
X-0102303
X-0094429
X-0086555
X-0078681
X-0082618Y-0005
X-0090492
X-0098366
X-010624
X-0114114
X-0121988
X-0129862
X-0137736
X-014561
X-0153484
X-0161358
X-0169232
X-0177106
X-018498
X-0192854
Y0004843
X-018498
X-0177106
X-0169232
X-0161358
X-0153484
X-014561
X-0137736
X-0129862
X-0121988
X-0114114
X-010624
X-0098366
X-0090492
X-0082618
X-006687
X-0058996
X-0051122
X-0043248
Y-0005
X-0051122
X-0058996
X-006687
X-0062933Y-0012874
X-0055059
X-0047185
X-0039311
X-0031437
X-0035374Y-0005
X-00275
Y0004843
X-0035374
X-0031437Y0012717
Y0072126
X-0035374Y008
X-00275
Y0089843
X-0035374
X-0031437Y0097717
X-0039311
X-0047185
X-0055059
X-0062933
X-006687Y0089843
X-0058996
X-0051122
X-0043248
Y008
X-0051122
X-0058996
X-006687
X-0062933Y0072126
X-0055059
X-0047185
X-0039311
X-0078681
X-0086555
X-0094429
X-0102303
X-0110177
X-0118051
X-0125925
X-0133799
X-0141673
X-0149547
X-0157421
X-0165295
X-0173169
X-0181043
X-0188917
X-018498Y008
X-0177106
X-0169232
X-0161358
X-0153484
X-014561
X-0137736
X-0129862
X-0121988
X-0114114
X-010624
X-0098366
X-0090492
X-0082618
Y0089843
X-0090492
X-0098366
X-010624
X-0114114
X-0121988
X-0129862
X-0137736
X-014561
X-0153484
X-0161358
X-0169232
X-0177106
X-018498
X-0192854
Y008
X-0188917Y0097717
X-0181043
X-0173169
X-0165295
X-0157421
X-0149547
X-0141673
X-0133799
X-0125925
X-0118051
X-0110177
X-0102303
X-0094429
X-0086555
X-0078681
Y0012717
X-0086555
X-0094429
X-0102303
X-0110177
X-0118051
X-0125925
X-0133799
X-0141673
X-0149547
X-0157421
X-0165295
X-0173169
X-0181043
X-0188917
X-0062933
X-0055059
X-0047185
X-0039311
X-0196791
X-0204665
X-0212539
X-0220413
X-0228287
X-0236161
X-0244035
X-0251909
X-0259783
X-0267657
X-0275532
X-0283406
X-029128
X-0299154
X-0307028
X-0314902
X-0322776
X-033065
X-0338524
X-0346398
Y0072126
X-0338524
X-033065
X-0322776
X-0314902
X-0307028
X-0299154
X-029128
X-0283406
X-0275532
X-0267657
X-0259783
X-0251909
X-0244035
X-0236161
X-0228287
X-0220413
X-0212539
X-0204665
X-0196791
X-0200728Y008
X-0208602
X-0216476
X-022435
X-0232224
X-0240098
X-0247972
X-0255846
X-026372
X-0271594
X-0279469
X-0287343
X-0295217
X-0303091
X-0310965
X-0318839
X-0326713
X-0334587
X-0342461
Y0089843
X-0334587
X-0326713
X-0318839
X-0310965
X-0303091
X-0295217
X-0287343
X-0279469
X-0271594
X-026372
X-0255846
X-0247972
X-0240098
X-0232224
X-022435
X-0216476
X-0208602
X-0200728
X-0196791Y0097717
X-0204665
X-0212539
X-0220413
X-0228287
X-0236161
X-0244035
X-0251909
X-0259783
X-0267657
X-0275532
X-0283406
X-029128
X-0299154
X-0307028
X-0314902
X-0322776
X-033065
X-0338524
X-0346398
X-0354272
X-0350335Y0089843
Y008
X-0354272Y0072126
Y0012717
T02
X-03825Y0
X0
Y0085
X-03825
T03
X-0361358Y-0000079
X-0073366
Y0084921
X-0361358
M30
