%FSLAX25Y25*%
%MOIN*%
G70*
G01*
G75*
G04 Layer_Color=65535*
%ADD10C,0.00700*%
%ADD11C,0.01200*%
%ADD12C,0.01600*%
%ADD13C,0.25000*%
%ADD14C,0.04134*%
%ADD15C,0.08071*%
%ADD16R,0.04134X0.04134*%
%ADD17R,0.03150X0.03347*%
%ADD18R,0.04331X0.05906*%
%ADD19C,0.02000*%
%ADD20C,0.01200*%
%ADD21C,0.02362*%
%ADD22C,0.00787*%
%ADD23C,0.00800*%
D21*
X-25524Y-19579D02*
G03*
X-25524Y-19579I-1181J0D01*
G01*
Y65421D02*
G03*
X-25524Y65421I-1181J0D01*
G01*
D22*
X-367165Y-14843D02*
X-359370D01*
X-367165D02*
Y-5079D01*
Y14685D02*
X-359370D01*
X-367165Y4921D02*
Y14685D01*
X-24902D02*
X-15787D01*
X-24902Y-14843D02*
X-15787D01*
Y14685D01*
X-367165Y70157D02*
X-359370D01*
X-367165D02*
Y79921D01*
Y99685D02*
X-359370D01*
X-367165Y89921D02*
Y99685D01*
X-24902D02*
X-15787D01*
X-24902Y70157D02*
X-15787D01*
Y99685D01*
D23*
X-364467Y-16701D02*
X-365534D01*
X-365001D01*
Y-19367D01*
X-365534Y-19900D01*
X-366067D01*
X-366600Y-19367D01*
X-361268Y-19900D02*
X-363401D01*
X-361268Y-17767D01*
Y-17234D01*
X-361802Y-16701D01*
X-362868D01*
X-363401Y-17234D01*
X-363467Y67899D02*
X-364534D01*
X-364001D01*
Y65233D01*
X-364534Y64700D01*
X-365067D01*
X-365600Y65233D01*
X-362401Y64700D02*
X-361335D01*
X-361868D01*
Y67899D01*
X-362401Y67366D01*
M02*
