%FSLAX25Y25*%
%MOIN*%
G70*
G01*
G75*
G04 Layer_Physical_Order=2*
G04 Layer_Color=16711680*
%ADD10C,0.00700*%
%ADD11C,0.01200*%
%ADD12C,0.01600*%
%ADD13C,0.25000*%
%ADD14C,0.04134*%
%ADD15C,0.08071*%
%ADD16R,0.04134X0.04134*%
%ADD17R,0.03150X0.03347*%
%ADD18R,0.04331X0.05906*%
%ADD19C,0.02000*%
%ADD20C,0.01200*%
G36*
X13000Y-20000D02*
X-395000D01*
Y107000D01*
X13000D01*
Y-20000D01*
D02*
G37*
%LPC*%
G36*
X-267657Y-9579D02*
X-268510Y-9691D01*
X-269305Y-10020D01*
X-269987Y-10544D01*
X-270511Y-11226D01*
X-270840Y-12021D01*
X-270953Y-12874D01*
X-270840Y-13727D01*
X-270511Y-14522D01*
X-269987Y-15204D01*
X-269305Y-15728D01*
X-268510Y-16057D01*
X-267657Y-16169D01*
X-266805Y-16057D01*
X-266010Y-15728D01*
X-265327Y-15204D01*
X-264804Y-14522D01*
X-264475Y-13727D01*
X-264362Y-12874D01*
X-264475Y-12021D01*
X-264804Y-11226D01*
X-265327Y-10544D01*
X-266010Y-10020D01*
X-266805Y-9691D01*
X-267657Y-9579D01*
D02*
G37*
G36*
X-259783D02*
X-260636Y-9691D01*
X-261431Y-10020D01*
X-262113Y-10544D01*
X-262637Y-11226D01*
X-262966Y-12021D01*
X-263078Y-12874D01*
X-262966Y-13727D01*
X-262637Y-14522D01*
X-262113Y-15204D01*
X-261431Y-15728D01*
X-260636Y-16057D01*
X-259783Y-16169D01*
X-258931Y-16057D01*
X-258136Y-15728D01*
X-257453Y-15204D01*
X-256930Y-14522D01*
X-256601Y-13727D01*
X-256488Y-12874D01*
X-256601Y-12021D01*
X-256930Y-11226D01*
X-257453Y-10544D01*
X-258136Y-10020D01*
X-258931Y-9691D01*
X-259783Y-9579D01*
D02*
G37*
G36*
X-275532D02*
X-276384Y-9691D01*
X-277179Y-10020D01*
X-277862Y-10544D01*
X-278385Y-11226D01*
X-278714Y-12021D01*
X-278827Y-12874D01*
X-278714Y-13727D01*
X-278385Y-14522D01*
X-277862Y-15204D01*
X-277179Y-15728D01*
X-276384Y-16057D01*
X-275532Y-16169D01*
X-274679Y-16057D01*
X-273884Y-15728D01*
X-273202Y-15204D01*
X-272678Y-14522D01*
X-272349Y-13727D01*
X-272236Y-12874D01*
X-272349Y-12021D01*
X-272678Y-11226D01*
X-273202Y-10544D01*
X-273884Y-10020D01*
X-274679Y-9691D01*
X-275532Y-9579D01*
D02*
G37*
G36*
X-354272Y75421D02*
X-355124Y75309D01*
X-355919Y74980D01*
X-356602Y74456D01*
X-357125Y73774D01*
X-357454Y72979D01*
X-357567Y72126D01*
X-357454Y71273D01*
X-357125Y70478D01*
X-356602Y69796D01*
X-355919Y69272D01*
X-355124Y68943D01*
X-354272Y68831D01*
X-353419Y68943D01*
X-352624Y69272D01*
X-351942Y69796D01*
X-351418Y70478D01*
X-351089Y71273D01*
X-350976Y72126D01*
X-351089Y72979D01*
X-351418Y73774D01*
X-351942Y74456D01*
X-352624Y74980D01*
X-353419Y75309D01*
X-354272Y75421D01*
D02*
G37*
G36*
X-27500Y93138D02*
X-28353Y93025D01*
X-29148Y92696D01*
X-29830Y92173D01*
X-30354Y91490D01*
X-30683Y90695D01*
X-30795Y89843D01*
X-30683Y88990D01*
X-30354Y88195D01*
X-29830Y87513D01*
X-29743Y87446D01*
Y83267D01*
X-30767D01*
Y76733D01*
X-29743D01*
Y40000D01*
Y7239D01*
X-29830Y7173D01*
X-30354Y6490D01*
X-30683Y5695D01*
X-30795Y4843D01*
X-30683Y3990D01*
X-30354Y3195D01*
X-29830Y2513D01*
X-29743Y2446D01*
Y-1733D01*
X-30767D01*
Y-8267D01*
X-24233D01*
Y-1733D01*
X-25257D01*
Y2446D01*
X-25170Y2513D01*
X-24646Y3195D01*
X-24317Y3990D01*
X-24205Y4843D01*
X-24317Y5695D01*
X-24646Y6490D01*
X-25170Y7173D01*
X-25257Y7239D01*
Y38165D01*
X-20531D01*
Y37127D01*
X-9469D01*
Y38420D01*
X-7814D01*
Y35914D01*
X-1084D01*
Y44220D01*
X-7814D01*
Y41580D01*
X-9469D01*
Y42873D01*
X-20531D01*
Y41835D01*
X-25257D01*
Y76733D01*
X-24233D01*
Y83267D01*
X-25257D01*
Y87446D01*
X-25170Y87513D01*
X-24646Y88195D01*
X-24317Y88990D01*
X-24205Y89843D01*
X-24317Y90695D01*
X-24646Y91490D01*
X-25170Y92173D01*
X-25852Y92696D01*
X-26647Y93025D01*
X-27500Y93138D01*
D02*
G37*
G36*
X-228287Y-9579D02*
X-229140Y-9691D01*
X-229935Y-10020D01*
X-230617Y-10544D01*
X-231141Y-11226D01*
X-231470Y-12021D01*
X-231582Y-12874D01*
X-231470Y-13727D01*
X-231141Y-14522D01*
X-230617Y-15204D01*
X-229935Y-15728D01*
X-229140Y-16057D01*
X-228287Y-16169D01*
X-227435Y-16057D01*
X-226640Y-15728D01*
X-225957Y-15204D01*
X-225434Y-14522D01*
X-225105Y-13727D01*
X-224992Y-12874D01*
X-225105Y-12021D01*
X-225434Y-11226D01*
X-225957Y-10544D01*
X-226640Y-10020D01*
X-227435Y-9691D01*
X-228287Y-9579D01*
D02*
G37*
G36*
X-220413D02*
X-221266Y-9691D01*
X-222061Y-10020D01*
X-222743Y-10544D01*
X-223267Y-11226D01*
X-223596Y-12021D01*
X-223709Y-12874D01*
X-223596Y-13727D01*
X-223267Y-14522D01*
X-222743Y-15204D01*
X-222061Y-15728D01*
X-221266Y-16057D01*
X-220413Y-16169D01*
X-219561Y-16057D01*
X-218766Y-15728D01*
X-218083Y-15204D01*
X-217560Y-14522D01*
X-217231Y-13727D01*
X-217118Y-12874D01*
X-217231Y-12021D01*
X-217560Y-11226D01*
X-218083Y-10544D01*
X-218766Y-10020D01*
X-219561Y-9691D01*
X-220413Y-9579D01*
D02*
G37*
G36*
X-236161D02*
X-237014Y-9691D01*
X-237809Y-10020D01*
X-238491Y-10544D01*
X-239015Y-11226D01*
X-239344Y-12021D01*
X-239457Y-12874D01*
X-239344Y-13727D01*
X-239015Y-14522D01*
X-238491Y-15204D01*
X-237809Y-15728D01*
X-237014Y-16057D01*
X-236161Y-16169D01*
X-235309Y-16057D01*
X-234514Y-15728D01*
X-233831Y-15204D01*
X-233308Y-14522D01*
X-232979Y-13727D01*
X-232866Y-12874D01*
X-232979Y-12021D01*
X-233308Y-11226D01*
X-233831Y-10544D01*
X-234514Y-10020D01*
X-235309Y-9691D01*
X-236161Y-9579D01*
D02*
G37*
G36*
X-251909D02*
X-252762Y-9691D01*
X-253557Y-10020D01*
X-254239Y-10544D01*
X-254763Y-11226D01*
X-255092Y-12021D01*
X-255205Y-12874D01*
X-255092Y-13727D01*
X-254763Y-14522D01*
X-254239Y-15204D01*
X-253557Y-15728D01*
X-252762Y-16057D01*
X-251909Y-16169D01*
X-251057Y-16057D01*
X-250262Y-15728D01*
X-249579Y-15204D01*
X-249056Y-14522D01*
X-248727Y-13727D01*
X-248614Y-12874D01*
X-248727Y-12021D01*
X-249056Y-11226D01*
X-249579Y-10544D01*
X-250262Y-10020D01*
X-251057Y-9691D01*
X-251909Y-9579D01*
D02*
G37*
G36*
X-244035D02*
X-244888Y-9691D01*
X-245683Y-10020D01*
X-246365Y-10544D01*
X-246889Y-11226D01*
X-247218Y-12021D01*
X-247330Y-12874D01*
X-247218Y-13727D01*
X-246889Y-14522D01*
X-246365Y-15204D01*
X-245683Y-15728D01*
X-244888Y-16057D01*
X-244035Y-16169D01*
X-243183Y-16057D01*
X-242388Y-15728D01*
X-241705Y-15204D01*
X-241182Y-14522D01*
X-240853Y-13727D01*
X-240740Y-12874D01*
X-240853Y-12021D01*
X-241182Y-11226D01*
X-241705Y-10544D01*
X-242388Y-10020D01*
X-243183Y-9691D01*
X-244035Y-9579D01*
D02*
G37*
G36*
X-330650D02*
X-331502Y-9691D01*
X-332297Y-10020D01*
X-332980Y-10544D01*
X-333503Y-11226D01*
X-333832Y-12021D01*
X-333945Y-12874D01*
X-333832Y-13727D01*
X-333503Y-14522D01*
X-332980Y-15204D01*
X-332297Y-15728D01*
X-331502Y-16057D01*
X-330650Y-16169D01*
X-329797Y-16057D01*
X-329002Y-15728D01*
X-328320Y-15204D01*
X-327796Y-14522D01*
X-327467Y-13727D01*
X-327355Y-12874D01*
X-327467Y-12021D01*
X-327796Y-11226D01*
X-328320Y-10544D01*
X-329002Y-10020D01*
X-329797Y-9691D01*
X-330650Y-9579D01*
D02*
G37*
G36*
X-322776D02*
X-323628Y-9691D01*
X-324423Y-10020D01*
X-325106Y-10544D01*
X-325629Y-11226D01*
X-325958Y-12021D01*
X-326071Y-12874D01*
X-325958Y-13727D01*
X-325629Y-14522D01*
X-325106Y-15204D01*
X-324423Y-15728D01*
X-323628Y-16057D01*
X-322776Y-16169D01*
X-321923Y-16057D01*
X-321128Y-15728D01*
X-320446Y-15204D01*
X-319922Y-14522D01*
X-319593Y-13727D01*
X-319480Y-12874D01*
X-319593Y-12021D01*
X-319922Y-11226D01*
X-320446Y-10544D01*
X-321128Y-10020D01*
X-321923Y-9691D01*
X-322776Y-9579D01*
D02*
G37*
G36*
X-338524D02*
X-339376Y-9691D01*
X-340171Y-10020D01*
X-340854Y-10544D01*
X-341377Y-11226D01*
X-341706Y-12021D01*
X-341819Y-12874D01*
X-341706Y-13727D01*
X-341377Y-14522D01*
X-340854Y-15204D01*
X-340171Y-15728D01*
X-339376Y-16057D01*
X-338524Y-16169D01*
X-337671Y-16057D01*
X-336876Y-15728D01*
X-336194Y-15204D01*
X-335670Y-14522D01*
X-335341Y-13727D01*
X-335228Y-12874D01*
X-335341Y-12021D01*
X-335670Y-11226D01*
X-336194Y-10544D01*
X-336876Y-10020D01*
X-337671Y-9691D01*
X-338524Y-9579D01*
D02*
G37*
G36*
X-354272D02*
X-355124Y-9691D01*
X-355919Y-10020D01*
X-356602Y-10544D01*
X-357125Y-11226D01*
X-357454Y-12021D01*
X-357567Y-12874D01*
X-357454Y-13727D01*
X-357125Y-14522D01*
X-356602Y-15204D01*
X-355919Y-15728D01*
X-355124Y-16057D01*
X-354272Y-16169D01*
X-353419Y-16057D01*
X-352624Y-15728D01*
X-351942Y-15204D01*
X-351418Y-14522D01*
X-351089Y-13727D01*
X-350976Y-12874D01*
X-351089Y-12021D01*
X-351418Y-11226D01*
X-351942Y-10544D01*
X-352624Y-10020D01*
X-353419Y-9691D01*
X-354272Y-9579D01*
D02*
G37*
G36*
X-346398D02*
X-347250Y-9691D01*
X-348045Y-10020D01*
X-348728Y-10544D01*
X-349251Y-11226D01*
X-349580Y-12021D01*
X-349693Y-12874D01*
X-349580Y-13727D01*
X-349251Y-14522D01*
X-348728Y-15204D01*
X-348045Y-15728D01*
X-347250Y-16057D01*
X-346398Y-16169D01*
X-345545Y-16057D01*
X-344750Y-15728D01*
X-344068Y-15204D01*
X-343544Y-14522D01*
X-343215Y-13727D01*
X-343103Y-12874D01*
X-343215Y-12021D01*
X-343544Y-11226D01*
X-344068Y-10544D01*
X-344750Y-10020D01*
X-345545Y-9691D01*
X-346398Y-9579D01*
D02*
G37*
G36*
X-291280D02*
X-292132Y-9691D01*
X-292927Y-10020D01*
X-293610Y-10544D01*
X-294133Y-11226D01*
X-294462Y-12021D01*
X-294575Y-12874D01*
X-294462Y-13727D01*
X-294133Y-14522D01*
X-293610Y-15204D01*
X-292927Y-15728D01*
X-292132Y-16057D01*
X-291280Y-16169D01*
X-290427Y-16057D01*
X-289632Y-15728D01*
X-288950Y-15204D01*
X-288426Y-14522D01*
X-288097Y-13727D01*
X-287984Y-12874D01*
X-288097Y-12021D01*
X-288426Y-11226D01*
X-288950Y-10544D01*
X-289632Y-10020D01*
X-290427Y-9691D01*
X-291280Y-9579D01*
D02*
G37*
G36*
X-283406D02*
X-284258Y-9691D01*
X-285053Y-10020D01*
X-285736Y-10544D01*
X-286259Y-11226D01*
X-286588Y-12021D01*
X-286701Y-12874D01*
X-286588Y-13727D01*
X-286259Y-14522D01*
X-285736Y-15204D01*
X-285053Y-15728D01*
X-284258Y-16057D01*
X-283406Y-16169D01*
X-282553Y-16057D01*
X-281758Y-15728D01*
X-281076Y-15204D01*
X-280552Y-14522D01*
X-280223Y-13727D01*
X-280111Y-12874D01*
X-280223Y-12021D01*
X-280552Y-11226D01*
X-281076Y-10544D01*
X-281758Y-10020D01*
X-282553Y-9691D01*
X-283406Y-9579D01*
D02*
G37*
G36*
X-299154D02*
X-300006Y-9691D01*
X-300801Y-10020D01*
X-301484Y-10544D01*
X-302007Y-11226D01*
X-302336Y-12021D01*
X-302449Y-12874D01*
X-302336Y-13727D01*
X-302007Y-14522D01*
X-301484Y-15204D01*
X-300801Y-15728D01*
X-300006Y-16057D01*
X-299154Y-16169D01*
X-298301Y-16057D01*
X-297506Y-15728D01*
X-296824Y-15204D01*
X-296300Y-14522D01*
X-295971Y-13727D01*
X-295859Y-12874D01*
X-295971Y-12021D01*
X-296300Y-11226D01*
X-296824Y-10544D01*
X-297506Y-10020D01*
X-298301Y-9691D01*
X-299154Y-9579D01*
D02*
G37*
G36*
X-314902D02*
X-315754Y-9691D01*
X-316549Y-10020D01*
X-317232Y-10544D01*
X-317755Y-11226D01*
X-318084Y-12021D01*
X-318197Y-12874D01*
X-318084Y-13727D01*
X-317755Y-14522D01*
X-317232Y-15204D01*
X-316549Y-15728D01*
X-315754Y-16057D01*
X-314902Y-16169D01*
X-314049Y-16057D01*
X-313254Y-15728D01*
X-312572Y-15204D01*
X-312048Y-14522D01*
X-311719Y-13727D01*
X-311607Y-12874D01*
X-311719Y-12021D01*
X-312048Y-11226D01*
X-312572Y-10544D01*
X-313254Y-10020D01*
X-314049Y-9691D01*
X-314902Y-9579D01*
D02*
G37*
G36*
X-307028D02*
X-307880Y-9691D01*
X-308675Y-10020D01*
X-309358Y-10544D01*
X-309881Y-11226D01*
X-310210Y-12021D01*
X-310323Y-12874D01*
X-310210Y-13727D01*
X-309881Y-14522D01*
X-309358Y-15204D01*
X-308675Y-15728D01*
X-307880Y-16057D01*
X-307028Y-16169D01*
X-306175Y-16057D01*
X-305380Y-15728D01*
X-304698Y-15204D01*
X-304174Y-14522D01*
X-303845Y-13727D01*
X-303732Y-12874D01*
X-303845Y-12021D01*
X-304174Y-11226D01*
X-304698Y-10544D01*
X-305380Y-10020D01*
X-306175Y-9691D01*
X-307028Y-9579D01*
D02*
G37*
G36*
X-212539D02*
X-213392Y-9691D01*
X-214187Y-10020D01*
X-214869Y-10544D01*
X-215393Y-11226D01*
X-215722Y-12021D01*
X-215834Y-12874D01*
X-215722Y-13727D01*
X-215393Y-14522D01*
X-214869Y-15204D01*
X-214187Y-15728D01*
X-213392Y-16057D01*
X-212539Y-16169D01*
X-211687Y-16057D01*
X-210892Y-15728D01*
X-210209Y-15204D01*
X-209686Y-14522D01*
X-209357Y-13727D01*
X-209244Y-12874D01*
X-209357Y-12021D01*
X-209686Y-11226D01*
X-210209Y-10544D01*
X-210892Y-10020D01*
X-211687Y-9691D01*
X-212539Y-9579D01*
D02*
G37*
G36*
X-78681D02*
X-79534Y-9691D01*
X-80329Y-10020D01*
X-81011Y-10544D01*
X-81535Y-11226D01*
X-81864Y-12021D01*
X-81976Y-12874D01*
X-81864Y-13727D01*
X-81535Y-14522D01*
X-81011Y-15204D01*
X-80329Y-15728D01*
X-79534Y-16057D01*
X-78681Y-16169D01*
X-77828Y-16057D01*
X-77034Y-15728D01*
X-76351Y-15204D01*
X-75827Y-14522D01*
X-75498Y-13727D01*
X-75386Y-12874D01*
X-75498Y-12021D01*
X-75827Y-11226D01*
X-76351Y-10544D01*
X-77034Y-10020D01*
X-77828Y-9691D01*
X-78681Y-9579D01*
D02*
G37*
G36*
X-86555D02*
X-87408Y-9691D01*
X-88203Y-10020D01*
X-88885Y-10544D01*
X-89409Y-11226D01*
X-89738Y-12021D01*
X-89850Y-12874D01*
X-89738Y-13727D01*
X-89409Y-14522D01*
X-88885Y-15204D01*
X-88203Y-15728D01*
X-87408Y-16057D01*
X-86555Y-16169D01*
X-85702Y-16057D01*
X-84908Y-15728D01*
X-84225Y-15204D01*
X-83701Y-14522D01*
X-83372Y-13727D01*
X-83260Y-12874D01*
X-83372Y-12021D01*
X-83701Y-11226D01*
X-84225Y-10544D01*
X-84908Y-10020D01*
X-85702Y-9691D01*
X-86555Y-9579D01*
D02*
G37*
G36*
X-62933D02*
X-63786Y-9691D01*
X-64581Y-10020D01*
X-65263Y-10544D01*
X-65787Y-11226D01*
X-66116Y-12021D01*
X-66228Y-12874D01*
X-66116Y-13727D01*
X-65787Y-14522D01*
X-65263Y-15204D01*
X-64581Y-15728D01*
X-63786Y-16057D01*
X-62933Y-16169D01*
X-62080Y-16057D01*
X-61285Y-15728D01*
X-60603Y-15204D01*
X-60079Y-14522D01*
X-59750Y-13727D01*
X-59638Y-12874D01*
X-59750Y-12021D01*
X-60079Y-11226D01*
X-60603Y-10544D01*
X-61285Y-10020D01*
X-62080Y-9691D01*
X-62933Y-9579D01*
D02*
G37*
G36*
X-39311D02*
X-40164Y-9691D01*
X-40959Y-10020D01*
X-41641Y-10544D01*
X-42165Y-11226D01*
X-42494Y-12021D01*
X-42606Y-12874D01*
X-42494Y-13727D01*
X-42165Y-14522D01*
X-41641Y-15204D01*
X-40959Y-15728D01*
X-40164Y-16057D01*
X-39311Y-16169D01*
X-38458Y-16057D01*
X-37663Y-15728D01*
X-36981Y-15204D01*
X-36457Y-14522D01*
X-36128Y-13727D01*
X-36016Y-12874D01*
X-36128Y-12021D01*
X-36457Y-11226D01*
X-36981Y-10544D01*
X-37663Y-10020D01*
X-38458Y-9691D01*
X-39311Y-9579D01*
D02*
G37*
G36*
X-55059D02*
X-55912Y-9691D01*
X-56707Y-10020D01*
X-57389Y-10544D01*
X-57913Y-11226D01*
X-58242Y-12021D01*
X-58354Y-12874D01*
X-58242Y-13727D01*
X-57913Y-14522D01*
X-57389Y-15204D01*
X-56707Y-15728D01*
X-55912Y-16057D01*
X-55059Y-16169D01*
X-54206Y-16057D01*
X-53411Y-15728D01*
X-52729Y-15204D01*
X-52205Y-14522D01*
X-51876Y-13727D01*
X-51764Y-12874D01*
X-51876Y-12021D01*
X-52205Y-11226D01*
X-52729Y-10544D01*
X-53411Y-10020D01*
X-54206Y-9691D01*
X-55059Y-9579D01*
D02*
G37*
G36*
X-118051D02*
X-118904Y-9691D01*
X-119699Y-10020D01*
X-120381Y-10544D01*
X-120905Y-11226D01*
X-121234Y-12021D01*
X-121346Y-12874D01*
X-121234Y-13727D01*
X-120905Y-14522D01*
X-120381Y-15204D01*
X-119699Y-15728D01*
X-118904Y-16057D01*
X-118051Y-16169D01*
X-117198Y-16057D01*
X-116404Y-15728D01*
X-115721Y-15204D01*
X-115198Y-14522D01*
X-114868Y-13727D01*
X-114756Y-12874D01*
X-114868Y-12021D01*
X-115198Y-11226D01*
X-115721Y-10544D01*
X-116404Y-10020D01*
X-117198Y-9691D01*
X-118051Y-9579D01*
D02*
G37*
G36*
X-125925D02*
X-126778Y-9691D01*
X-127573Y-10020D01*
X-128255Y-10544D01*
X-128779Y-11226D01*
X-129108Y-12021D01*
X-129220Y-12874D01*
X-129108Y-13727D01*
X-128779Y-14522D01*
X-128255Y-15204D01*
X-127573Y-15728D01*
X-126778Y-16057D01*
X-125925Y-16169D01*
X-125072Y-16057D01*
X-124278Y-15728D01*
X-123595Y-15204D01*
X-123072Y-14522D01*
X-122742Y-13727D01*
X-122630Y-12874D01*
X-122742Y-12021D01*
X-123072Y-11226D01*
X-123595Y-10544D01*
X-124278Y-10020D01*
X-125072Y-9691D01*
X-125925Y-9579D01*
D02*
G37*
G36*
X-110177D02*
X-111030Y-9691D01*
X-111825Y-10020D01*
X-112507Y-10544D01*
X-113031Y-11226D01*
X-113360Y-12021D01*
X-113472Y-12874D01*
X-113360Y-13727D01*
X-113031Y-14522D01*
X-112507Y-15204D01*
X-111825Y-15728D01*
X-111030Y-16057D01*
X-110177Y-16169D01*
X-109324Y-16057D01*
X-108530Y-15728D01*
X-107847Y-15204D01*
X-107324Y-14522D01*
X-106994Y-13727D01*
X-106882Y-12874D01*
X-106994Y-12021D01*
X-107324Y-11226D01*
X-107847Y-10544D01*
X-108530Y-10020D01*
X-109324Y-9691D01*
X-110177Y-9579D01*
D02*
G37*
G36*
X-94429D02*
X-95282Y-9691D01*
X-96077Y-10020D01*
X-96759Y-10544D01*
X-97283Y-11226D01*
X-97612Y-12021D01*
X-97724Y-12874D01*
X-97612Y-13727D01*
X-97283Y-14522D01*
X-96759Y-15204D01*
X-96077Y-15728D01*
X-95282Y-16057D01*
X-94429Y-16169D01*
X-93576Y-16057D01*
X-92782Y-15728D01*
X-92099Y-15204D01*
X-91575Y-14522D01*
X-91246Y-13727D01*
X-91134Y-12874D01*
X-91246Y-12021D01*
X-91575Y-11226D01*
X-92099Y-10544D01*
X-92782Y-10020D01*
X-93576Y-9691D01*
X-94429Y-9579D01*
D02*
G37*
G36*
X-102303D02*
X-103156Y-9691D01*
X-103951Y-10020D01*
X-104633Y-10544D01*
X-105157Y-11226D01*
X-105486Y-12021D01*
X-105598Y-12874D01*
X-105486Y-13727D01*
X-105157Y-14522D01*
X-104633Y-15204D01*
X-103951Y-15728D01*
X-103156Y-16057D01*
X-102303Y-16169D01*
X-101450Y-16057D01*
X-100656Y-15728D01*
X-99973Y-15204D01*
X-99449Y-14522D01*
X-99120Y-13727D01*
X-99008Y-12874D01*
X-99120Y-12021D01*
X-99449Y-11226D01*
X-99973Y-10544D01*
X-100656Y-10020D01*
X-101450Y-9691D01*
X-102303Y-9579D01*
D02*
G37*
G36*
X-361358Y5775D02*
X-362500Y5663D01*
X-363598Y5330D01*
X-364611Y4789D01*
X-365498Y4061D01*
X-366226Y3174D01*
X-366767Y2162D01*
X-367100Y1063D01*
X-367212Y-79D01*
X-367100Y-1221D01*
X-366767Y-2319D01*
X-366226Y-3331D01*
X-365498Y-4218D01*
X-364611Y-4946D01*
X-363598Y-5487D01*
X-362500Y-5821D01*
X-361358Y-5933D01*
X-360216Y-5821D01*
X-359118Y-5487D01*
X-358106Y-4946D01*
X-357219Y-4218D01*
X-356491Y-3331D01*
X-355950Y-2319D01*
X-355616Y-1221D01*
X-355504Y-79D01*
X-355616Y1063D01*
X-355950Y2162D01*
X-356491Y3174D01*
X-357219Y4061D01*
X-358106Y4789D01*
X-359118Y5330D01*
X-360216Y5663D01*
X-361358Y5775D01*
D02*
G37*
G36*
X-181043Y-9579D02*
X-181896Y-9691D01*
X-182691Y-10020D01*
X-183373Y-10544D01*
X-183897Y-11226D01*
X-184226Y-12021D01*
X-184338Y-12874D01*
X-184226Y-13727D01*
X-183897Y-14522D01*
X-183373Y-15204D01*
X-182691Y-15728D01*
X-181896Y-16057D01*
X-181043Y-16169D01*
X-180191Y-16057D01*
X-179396Y-15728D01*
X-178713Y-15204D01*
X-178190Y-14522D01*
X-177861Y-13727D01*
X-177748Y-12874D01*
X-177861Y-12021D01*
X-178190Y-11226D01*
X-178713Y-10544D01*
X-179396Y-10020D01*
X-180191Y-9691D01*
X-181043Y-9579D01*
D02*
G37*
G36*
X-173169D02*
X-174022Y-9691D01*
X-174817Y-10020D01*
X-175499Y-10544D01*
X-176023Y-11226D01*
X-176352Y-12021D01*
X-176464Y-12874D01*
X-176352Y-13727D01*
X-176023Y-14522D01*
X-175499Y-15204D01*
X-174817Y-15728D01*
X-174022Y-16057D01*
X-173169Y-16169D01*
X-172317Y-16057D01*
X-171522Y-15728D01*
X-170839Y-15204D01*
X-170316Y-14522D01*
X-169987Y-13727D01*
X-169874Y-12874D01*
X-169987Y-12021D01*
X-170316Y-11226D01*
X-170839Y-10544D01*
X-171522Y-10020D01*
X-172317Y-9691D01*
X-173169Y-9579D01*
D02*
G37*
G36*
X-188917D02*
X-189770Y-9691D01*
X-190565Y-10020D01*
X-191247Y-10544D01*
X-191771Y-11226D01*
X-192100Y-12021D01*
X-192212Y-12874D01*
X-192100Y-13727D01*
X-191771Y-14522D01*
X-191247Y-15204D01*
X-190565Y-15728D01*
X-189770Y-16057D01*
X-188917Y-16169D01*
X-188065Y-16057D01*
X-187270Y-15728D01*
X-186587Y-15204D01*
X-186064Y-14522D01*
X-185735Y-13727D01*
X-185622Y-12874D01*
X-185735Y-12021D01*
X-186064Y-11226D01*
X-186587Y-10544D01*
X-187270Y-10020D01*
X-188065Y-9691D01*
X-188917Y-9579D01*
D02*
G37*
G36*
X-204665D02*
X-205518Y-9691D01*
X-206313Y-10020D01*
X-206995Y-10544D01*
X-207519Y-11226D01*
X-207848Y-12021D01*
X-207961Y-12874D01*
X-207848Y-13727D01*
X-207519Y-14522D01*
X-206995Y-15204D01*
X-206313Y-15728D01*
X-205518Y-16057D01*
X-204665Y-16169D01*
X-203813Y-16057D01*
X-203018Y-15728D01*
X-202335Y-15204D01*
X-201812Y-14522D01*
X-201483Y-13727D01*
X-201370Y-12874D01*
X-201483Y-12021D01*
X-201812Y-11226D01*
X-202335Y-10544D01*
X-203018Y-10020D01*
X-203813Y-9691D01*
X-204665Y-9579D01*
D02*
G37*
G36*
X-196791D02*
X-197644Y-9691D01*
X-198439Y-10020D01*
X-199121Y-10544D01*
X-199645Y-11226D01*
X-199974Y-12021D01*
X-200086Y-12874D01*
X-199974Y-13727D01*
X-199645Y-14522D01*
X-199121Y-15204D01*
X-198439Y-15728D01*
X-197644Y-16057D01*
X-196791Y-16169D01*
X-195939Y-16057D01*
X-195144Y-15728D01*
X-194461Y-15204D01*
X-193938Y-14522D01*
X-193609Y-13727D01*
X-193496Y-12874D01*
X-193609Y-12021D01*
X-193938Y-11226D01*
X-194461Y-10544D01*
X-195144Y-10020D01*
X-195939Y-9691D01*
X-196791Y-9579D01*
D02*
G37*
G36*
X-141673D02*
X-142526Y-9691D01*
X-143321Y-10020D01*
X-144003Y-10544D01*
X-144527Y-11226D01*
X-144856Y-12021D01*
X-144968Y-12874D01*
X-144856Y-13727D01*
X-144527Y-14522D01*
X-144003Y-15204D01*
X-143321Y-15728D01*
X-142526Y-16057D01*
X-141673Y-16169D01*
X-140820Y-16057D01*
X-140026Y-15728D01*
X-139343Y-15204D01*
X-138820Y-14522D01*
X-138490Y-13727D01*
X-138378Y-12874D01*
X-138490Y-12021D01*
X-138820Y-11226D01*
X-139343Y-10544D01*
X-140026Y-10020D01*
X-140820Y-9691D01*
X-141673Y-9579D01*
D02*
G37*
G36*
X-377186Y44086D02*
X-383916D01*
Y35780D01*
X-377186D01*
Y38353D01*
X-375531D01*
Y37127D01*
X-364469D01*
Y37721D01*
X-364007Y37912D01*
X-356107Y30011D01*
Y15426D01*
X-356602Y15047D01*
X-357125Y14364D01*
X-357454Y13569D01*
X-357567Y12717D01*
X-357454Y11864D01*
X-357125Y11069D01*
X-356602Y10387D01*
X-355919Y9863D01*
X-355124Y9534D01*
X-354272Y9421D01*
X-353419Y9534D01*
X-352624Y9863D01*
X-351942Y10387D01*
X-351418Y11069D01*
X-351089Y11864D01*
X-350976Y12717D01*
X-351089Y13569D01*
X-351418Y14364D01*
X-351942Y15047D01*
X-352436Y15426D01*
Y30772D01*
X-352553Y31357D01*
X-352576Y31474D01*
X-352974Y32069D01*
X-362202Y41298D01*
X-362798Y41696D01*
X-362914Y41719D01*
X-363500Y41835D01*
X-364469D01*
Y42873D01*
X-375531D01*
Y41513D01*
X-377186D01*
Y44086D01*
D02*
G37*
G36*
X-149547Y-9579D02*
X-150400Y-9691D01*
X-151195Y-10020D01*
X-151877Y-10544D01*
X-152401Y-11226D01*
X-152730Y-12021D01*
X-152842Y-12874D01*
X-152730Y-13727D01*
X-152401Y-14522D01*
X-151877Y-15204D01*
X-151195Y-15728D01*
X-150400Y-16057D01*
X-149547Y-16169D01*
X-148694Y-16057D01*
X-147900Y-15728D01*
X-147217Y-15204D01*
X-146694Y-14522D01*
X-146364Y-13727D01*
X-146252Y-12874D01*
X-146364Y-12021D01*
X-146694Y-11226D01*
X-147217Y-10544D01*
X-147900Y-10020D01*
X-148694Y-9691D01*
X-149547Y-9579D01*
D02*
G37*
G36*
X-165295D02*
X-166148Y-9691D01*
X-166943Y-10020D01*
X-167625Y-10544D01*
X-168149Y-11226D01*
X-168478Y-12021D01*
X-168590Y-12874D01*
X-168478Y-13727D01*
X-168149Y-14522D01*
X-167625Y-15204D01*
X-166943Y-15728D01*
X-166148Y-16057D01*
X-165295Y-16169D01*
X-164442Y-16057D01*
X-163648Y-15728D01*
X-162965Y-15204D01*
X-162442Y-14522D01*
X-162112Y-13727D01*
X-162000Y-12874D01*
X-162112Y-12021D01*
X-162442Y-11226D01*
X-162965Y-10544D01*
X-163648Y-10020D01*
X-164442Y-9691D01*
X-165295Y-9579D01*
D02*
G37*
G36*
X-157421D02*
X-158274Y-9691D01*
X-159069Y-10020D01*
X-159751Y-10544D01*
X-160275Y-11226D01*
X-160604Y-12021D01*
X-160716Y-12874D01*
X-160604Y-13727D01*
X-160275Y-14522D01*
X-159751Y-15204D01*
X-159069Y-15728D01*
X-158274Y-16057D01*
X-157421Y-16169D01*
X-156568Y-16057D01*
X-155774Y-15728D01*
X-155091Y-15204D01*
X-154568Y-14522D01*
X-154238Y-13727D01*
X-154126Y-12874D01*
X-154238Y-12021D01*
X-154568Y-11226D01*
X-155091Y-10544D01*
X-155774Y-10020D01*
X-156568Y-9691D01*
X-157421Y-9579D01*
D02*
G37*
G36*
X-35374Y93138D02*
X-36227Y93025D01*
X-37022Y92696D01*
X-37704Y92173D01*
X-38228Y91490D01*
X-38557Y90695D01*
X-38669Y89843D01*
X-38557Y88990D01*
X-38228Y88195D01*
X-37704Y87513D01*
X-37209Y87133D01*
Y82710D01*
X-37704Y82330D01*
X-38228Y81648D01*
X-38557Y80853D01*
X-38669Y80000D01*
X-38557Y79147D01*
X-38228Y78352D01*
X-37704Y77670D01*
X-37413Y77447D01*
Y75326D01*
X-37829Y75048D01*
X-38458Y75309D01*
X-39311Y75421D01*
X-40164Y75309D01*
X-40959Y74980D01*
X-41641Y74456D01*
X-42165Y73774D01*
X-42494Y72979D01*
X-42606Y72126D01*
X-42494Y71273D01*
X-42165Y70478D01*
X-41641Y69796D01*
X-40959Y69272D01*
X-40164Y68943D01*
X-39311Y68831D01*
X-38458Y68943D01*
X-37829Y69204D01*
X-37413Y68926D01*
Y15917D01*
X-37829Y15639D01*
X-38458Y15899D01*
X-39311Y16012D01*
X-40164Y15899D01*
X-40959Y15570D01*
X-41641Y15047D01*
X-42165Y14364D01*
X-42494Y13569D01*
X-42606Y12717D01*
X-42494Y11864D01*
X-42165Y11069D01*
X-41641Y10387D01*
X-40959Y9863D01*
X-40164Y9534D01*
X-39311Y9421D01*
X-38458Y9534D01*
X-37829Y9794D01*
X-37413Y9517D01*
Y7396D01*
X-37704Y7173D01*
X-38228Y6490D01*
X-38557Y5695D01*
X-38669Y4843D01*
X-38557Y3990D01*
X-38228Y3195D01*
X-37704Y2513D01*
X-37413Y2289D01*
Y-2447D01*
X-37704Y-2670D01*
X-38228Y-3352D01*
X-38557Y-4147D01*
X-38669Y-5000D01*
X-38557Y-5853D01*
X-38228Y-6648D01*
X-37704Y-7330D01*
X-37022Y-7854D01*
X-36227Y-8183D01*
X-35374Y-8295D01*
X-34521Y-8183D01*
X-33726Y-7854D01*
X-33044Y-7330D01*
X-32520Y-6648D01*
X-32191Y-5853D01*
X-32079Y-5000D01*
X-32191Y-4147D01*
X-32520Y-3352D01*
X-33044Y-2670D01*
X-33335Y-2447D01*
Y2289D01*
X-33044Y2513D01*
X-32520Y3195D01*
X-32191Y3990D01*
X-32079Y4843D01*
X-32191Y5695D01*
X-32520Y6490D01*
X-33044Y7173D01*
X-33335Y7396D01*
Y77447D01*
X-33044Y77670D01*
X-32520Y78352D01*
X-32191Y79147D01*
X-32079Y80000D01*
X-32191Y80853D01*
X-32520Y81648D01*
X-33044Y82330D01*
X-33539Y82710D01*
Y87133D01*
X-33044Y87513D01*
X-32520Y88195D01*
X-32191Y88990D01*
X-32079Y89843D01*
X-32191Y90695D01*
X-32520Y91490D01*
X-33044Y92173D01*
X-33726Y92696D01*
X-34521Y93025D01*
X-35374Y93138D01*
D02*
G37*
G36*
X-173169Y101012D02*
X-174022Y100899D01*
X-174817Y100570D01*
X-175499Y100047D01*
X-176023Y99364D01*
X-176352Y98569D01*
X-176464Y97717D01*
X-176352Y96864D01*
X-176023Y96069D01*
X-175499Y95387D01*
X-174817Y94863D01*
X-174022Y94534D01*
X-173169Y94421D01*
X-172317Y94534D01*
X-171522Y94863D01*
X-170839Y95387D01*
X-170316Y96069D01*
X-169987Y96864D01*
X-169874Y97717D01*
X-169987Y98569D01*
X-170316Y99364D01*
X-170839Y100047D01*
X-171522Y100570D01*
X-172317Y100899D01*
X-173169Y101012D01*
D02*
G37*
G36*
X-181043D02*
X-181896Y100899D01*
X-182691Y100570D01*
X-183373Y100047D01*
X-183897Y99364D01*
X-184226Y98569D01*
X-184338Y97717D01*
X-184226Y96864D01*
X-183897Y96069D01*
X-183373Y95387D01*
X-182691Y94863D01*
X-181896Y94534D01*
X-181043Y94421D01*
X-180191Y94534D01*
X-179396Y94863D01*
X-178713Y95387D01*
X-178190Y96069D01*
X-177861Y96864D01*
X-177748Y97717D01*
X-177861Y98569D01*
X-178190Y99364D01*
X-178713Y100047D01*
X-179396Y100570D01*
X-180191Y100899D01*
X-181043Y101012D01*
D02*
G37*
G36*
X-165295D02*
X-166148Y100899D01*
X-166943Y100570D01*
X-167625Y100047D01*
X-168149Y99364D01*
X-168478Y98569D01*
X-168590Y97717D01*
X-168478Y96864D01*
X-168149Y96069D01*
X-167625Y95387D01*
X-166943Y94863D01*
X-166148Y94534D01*
X-165295Y94421D01*
X-164442Y94534D01*
X-163648Y94863D01*
X-162965Y95387D01*
X-162442Y96069D01*
X-162112Y96864D01*
X-162000Y97717D01*
X-162112Y98569D01*
X-162442Y99364D01*
X-162965Y100047D01*
X-163648Y100570D01*
X-164442Y100899D01*
X-165295Y101012D01*
D02*
G37*
G36*
X-149547D02*
X-150400Y100899D01*
X-151195Y100570D01*
X-151877Y100047D01*
X-152401Y99364D01*
X-152730Y98569D01*
X-152842Y97717D01*
X-152730Y96864D01*
X-152401Y96069D01*
X-151877Y95387D01*
X-151195Y94863D01*
X-150400Y94534D01*
X-149547Y94421D01*
X-148694Y94534D01*
X-147900Y94863D01*
X-147217Y95387D01*
X-146694Y96069D01*
X-146364Y96864D01*
X-146252Y97717D01*
X-146364Y98569D01*
X-146694Y99364D01*
X-147217Y100047D01*
X-147900Y100570D01*
X-148694Y100899D01*
X-149547Y101012D01*
D02*
G37*
G36*
X-157421D02*
X-158274Y100899D01*
X-159069Y100570D01*
X-159751Y100047D01*
X-160275Y99364D01*
X-160604Y98569D01*
X-160716Y97717D01*
X-160604Y96864D01*
X-160275Y96069D01*
X-159751Y95387D01*
X-159069Y94863D01*
X-158274Y94534D01*
X-157421Y94421D01*
X-156568Y94534D01*
X-155774Y94863D01*
X-155091Y95387D01*
X-154568Y96069D01*
X-154238Y96864D01*
X-154126Y97717D01*
X-154238Y98569D01*
X-154568Y99364D01*
X-155091Y100047D01*
X-155774Y100570D01*
X-156568Y100899D01*
X-157421Y101012D01*
D02*
G37*
G36*
X-212539D02*
X-213392Y100899D01*
X-214187Y100570D01*
X-214869Y100047D01*
X-215393Y99364D01*
X-215722Y98569D01*
X-215834Y97717D01*
X-215722Y96864D01*
X-215393Y96069D01*
X-214869Y95387D01*
X-214187Y94863D01*
X-213392Y94534D01*
X-212539Y94421D01*
X-211687Y94534D01*
X-210892Y94863D01*
X-210209Y95387D01*
X-209686Y96069D01*
X-209357Y96864D01*
X-209244Y97717D01*
X-209357Y98569D01*
X-209686Y99364D01*
X-210209Y100047D01*
X-210892Y100570D01*
X-211687Y100899D01*
X-212539Y101012D01*
D02*
G37*
G36*
X-220413D02*
X-221266Y100899D01*
X-222061Y100570D01*
X-222743Y100047D01*
X-223267Y99364D01*
X-223596Y98569D01*
X-223709Y97717D01*
X-223596Y96864D01*
X-223267Y96069D01*
X-222743Y95387D01*
X-222061Y94863D01*
X-221266Y94534D01*
X-220413Y94421D01*
X-219561Y94534D01*
X-218766Y94863D01*
X-218083Y95387D01*
X-217560Y96069D01*
X-217231Y96864D01*
X-217118Y97717D01*
X-217231Y98569D01*
X-217560Y99364D01*
X-218083Y100047D01*
X-218766Y100570D01*
X-219561Y100899D01*
X-220413Y101012D01*
D02*
G37*
G36*
X-204665D02*
X-205518Y100899D01*
X-206313Y100570D01*
X-206995Y100047D01*
X-207519Y99364D01*
X-207848Y98569D01*
X-207961Y97717D01*
X-207848Y96864D01*
X-207519Y96069D01*
X-206995Y95387D01*
X-206313Y94863D01*
X-205518Y94534D01*
X-204665Y94421D01*
X-203813Y94534D01*
X-203018Y94863D01*
X-202335Y95387D01*
X-201812Y96069D01*
X-201483Y96864D01*
X-201370Y97717D01*
X-201483Y98569D01*
X-201812Y99364D01*
X-202335Y100047D01*
X-203018Y100570D01*
X-203813Y100899D01*
X-204665Y101012D01*
D02*
G37*
G36*
X-188917D02*
X-189770Y100899D01*
X-190565Y100570D01*
X-191247Y100047D01*
X-191771Y99364D01*
X-192100Y98569D01*
X-192212Y97717D01*
X-192100Y96864D01*
X-191771Y96069D01*
X-191247Y95387D01*
X-190565Y94863D01*
X-189770Y94534D01*
X-188917Y94421D01*
X-188065Y94534D01*
X-187270Y94863D01*
X-186587Y95387D01*
X-186064Y96069D01*
X-185735Y96864D01*
X-185622Y97717D01*
X-185735Y98569D01*
X-186064Y99364D01*
X-186587Y100047D01*
X-187270Y100570D01*
X-188065Y100899D01*
X-188917Y101012D01*
D02*
G37*
G36*
X-196791D02*
X-197644Y100899D01*
X-198439Y100570D01*
X-199121Y100047D01*
X-199645Y99364D01*
X-199974Y98569D01*
X-200086Y97717D01*
X-199974Y96864D01*
X-199645Y96069D01*
X-199121Y95387D01*
X-198439Y94863D01*
X-197644Y94534D01*
X-196791Y94421D01*
X-195939Y94534D01*
X-195144Y94863D01*
X-194461Y95387D01*
X-193938Y96069D01*
X-193609Y96864D01*
X-193496Y97717D01*
X-193609Y98569D01*
X-193938Y99364D01*
X-194461Y100047D01*
X-195144Y100570D01*
X-195939Y100899D01*
X-196791Y101012D01*
D02*
G37*
G36*
X-141673D02*
X-142526Y100899D01*
X-143321Y100570D01*
X-144003Y100047D01*
X-144527Y99364D01*
X-144856Y98569D01*
X-144968Y97717D01*
X-144856Y96864D01*
X-144527Y96069D01*
X-144003Y95387D01*
X-143321Y94863D01*
X-142526Y94534D01*
X-141673Y94421D01*
X-140820Y94534D01*
X-140026Y94863D01*
X-139343Y95387D01*
X-138820Y96069D01*
X-138490Y96864D01*
X-138378Y97717D01*
X-138490Y98569D01*
X-138820Y99364D01*
X-139343Y100047D01*
X-140026Y100570D01*
X-140820Y100899D01*
X-141673Y101012D01*
D02*
G37*
G36*
X-78681D02*
X-79534Y100899D01*
X-80329Y100570D01*
X-81011Y100047D01*
X-81535Y99364D01*
X-81864Y98569D01*
X-81976Y97717D01*
X-81864Y96864D01*
X-81535Y96069D01*
X-81011Y95387D01*
X-80329Y94863D01*
X-79534Y94534D01*
X-78681Y94421D01*
X-77828Y94534D01*
X-77034Y94863D01*
X-76351Y95387D01*
X-75827Y96069D01*
X-75498Y96864D01*
X-75386Y97717D01*
X-75498Y98569D01*
X-75827Y99364D01*
X-76351Y100047D01*
X-77034Y100570D01*
X-77828Y100899D01*
X-78681Y101012D01*
D02*
G37*
G36*
X-86555D02*
X-87408Y100899D01*
X-88203Y100570D01*
X-88885Y100047D01*
X-89409Y99364D01*
X-89738Y98569D01*
X-89850Y97717D01*
X-89738Y96864D01*
X-89409Y96069D01*
X-88885Y95387D01*
X-88203Y94863D01*
X-87408Y94534D01*
X-86555Y94421D01*
X-85702Y94534D01*
X-84908Y94863D01*
X-84225Y95387D01*
X-83701Y96069D01*
X-83372Y96864D01*
X-83260Y97717D01*
X-83372Y98569D01*
X-83701Y99364D01*
X-84225Y100047D01*
X-84908Y100570D01*
X-85702Y100899D01*
X-86555Y101012D01*
D02*
G37*
G36*
X-62933D02*
X-63786Y100899D01*
X-64581Y100570D01*
X-65263Y100047D01*
X-65787Y99364D01*
X-66116Y98569D01*
X-66228Y97717D01*
X-66116Y96864D01*
X-65787Y96069D01*
X-65263Y95387D01*
X-64581Y94863D01*
X-63786Y94534D01*
X-62933Y94421D01*
X-62080Y94534D01*
X-61285Y94863D01*
X-60603Y95387D01*
X-60079Y96069D01*
X-59750Y96864D01*
X-59638Y97717D01*
X-59750Y98569D01*
X-60079Y99364D01*
X-60603Y100047D01*
X-61285Y100570D01*
X-62080Y100899D01*
X-62933Y101012D01*
D02*
G37*
G36*
X-39311D02*
X-40164Y100899D01*
X-40959Y100570D01*
X-41641Y100047D01*
X-42165Y99364D01*
X-42494Y98569D01*
X-42606Y97717D01*
X-42494Y96864D01*
X-42165Y96069D01*
X-41641Y95387D01*
X-40959Y94863D01*
X-40164Y94534D01*
X-39311Y94421D01*
X-38458Y94534D01*
X-37663Y94863D01*
X-36981Y95387D01*
X-36457Y96069D01*
X-36128Y96864D01*
X-36016Y97717D01*
X-36128Y98569D01*
X-36457Y99364D01*
X-36981Y100047D01*
X-37663Y100570D01*
X-38458Y100899D01*
X-39311Y101012D01*
D02*
G37*
G36*
X-55059D02*
X-55912Y100899D01*
X-56707Y100570D01*
X-57389Y100047D01*
X-57913Y99364D01*
X-58242Y98569D01*
X-58354Y97717D01*
X-58242Y96864D01*
X-57913Y96069D01*
X-57389Y95387D01*
X-56707Y94863D01*
X-55912Y94534D01*
X-55059Y94421D01*
X-54206Y94534D01*
X-53411Y94863D01*
X-52729Y95387D01*
X-52205Y96069D01*
X-51876Y96864D01*
X-51764Y97717D01*
X-51876Y98569D01*
X-52205Y99364D01*
X-52729Y100047D01*
X-53411Y100570D01*
X-54206Y100899D01*
X-55059Y101012D01*
D02*
G37*
G36*
X-118051D02*
X-118904Y100899D01*
X-119699Y100570D01*
X-120381Y100047D01*
X-120905Y99364D01*
X-121234Y98569D01*
X-121346Y97717D01*
X-121234Y96864D01*
X-120905Y96069D01*
X-120381Y95387D01*
X-119699Y94863D01*
X-118904Y94534D01*
X-118051Y94421D01*
X-117198Y94534D01*
X-116404Y94863D01*
X-115721Y95387D01*
X-115198Y96069D01*
X-114868Y96864D01*
X-114756Y97717D01*
X-114868Y98569D01*
X-115198Y99364D01*
X-115721Y100047D01*
X-116404Y100570D01*
X-117198Y100899D01*
X-118051Y101012D01*
D02*
G37*
G36*
X-125925D02*
X-126778Y100899D01*
X-127573Y100570D01*
X-128255Y100047D01*
X-128779Y99364D01*
X-129108Y98569D01*
X-129220Y97717D01*
X-129108Y96864D01*
X-128779Y96069D01*
X-128255Y95387D01*
X-127573Y94863D01*
X-126778Y94534D01*
X-125925Y94421D01*
X-125072Y94534D01*
X-124278Y94863D01*
X-123595Y95387D01*
X-123072Y96069D01*
X-122742Y96864D01*
X-122630Y97717D01*
X-122742Y98569D01*
X-123072Y99364D01*
X-123595Y100047D01*
X-124278Y100570D01*
X-125072Y100899D01*
X-125925Y101012D01*
D02*
G37*
G36*
X-110177D02*
X-111030Y100899D01*
X-111825Y100570D01*
X-112507Y100047D01*
X-113031Y99364D01*
X-113360Y98569D01*
X-113472Y97717D01*
X-113360Y96864D01*
X-113031Y96069D01*
X-112507Y95387D01*
X-111825Y94863D01*
X-111030Y94534D01*
X-110177Y94421D01*
X-109324Y94534D01*
X-108530Y94863D01*
X-107847Y95387D01*
X-107324Y96069D01*
X-106994Y96864D01*
X-106882Y97717D01*
X-106994Y98569D01*
X-107324Y99364D01*
X-107847Y100047D01*
X-108530Y100570D01*
X-109324Y100899D01*
X-110177Y101012D01*
D02*
G37*
G36*
X-94429D02*
X-95282Y100899D01*
X-96077Y100570D01*
X-96759Y100047D01*
X-97283Y99364D01*
X-97612Y98569D01*
X-97724Y97717D01*
X-97612Y96864D01*
X-97283Y96069D01*
X-96759Y95387D01*
X-96077Y94863D01*
X-95282Y94534D01*
X-94429Y94421D01*
X-93576Y94534D01*
X-92782Y94863D01*
X-92099Y95387D01*
X-91575Y96069D01*
X-91246Y96864D01*
X-91134Y97717D01*
X-91246Y98569D01*
X-91575Y99364D01*
X-92099Y100047D01*
X-92782Y100570D01*
X-93576Y100899D01*
X-94429Y101012D01*
D02*
G37*
G36*
X-102303D02*
X-103156Y100899D01*
X-103951Y100570D01*
X-104633Y100047D01*
X-105157Y99364D01*
X-105486Y98569D01*
X-105598Y97717D01*
X-105486Y96864D01*
X-105157Y96069D01*
X-104633Y95387D01*
X-103951Y94863D01*
X-103156Y94534D01*
X-102303Y94421D01*
X-101450Y94534D01*
X-100656Y94863D01*
X-99973Y95387D01*
X-99449Y96069D01*
X-99120Y96864D01*
X-99008Y97717D01*
X-99120Y98569D01*
X-99449Y99364D01*
X-99973Y100047D01*
X-100656Y100570D01*
X-101450Y100899D01*
X-102303Y101012D01*
D02*
G37*
G36*
X-228287D02*
X-229140Y100899D01*
X-229935Y100570D01*
X-230617Y100047D01*
X-231141Y99364D01*
X-231470Y98569D01*
X-231582Y97717D01*
X-231470Y96864D01*
X-231141Y96069D01*
X-230617Y95387D01*
X-229935Y94863D01*
X-229140Y94534D01*
X-228287Y94421D01*
X-227435Y94534D01*
X-226640Y94863D01*
X-225957Y95387D01*
X-225434Y96069D01*
X-225105Y96864D01*
X-224992Y97717D01*
X-225105Y98569D01*
X-225434Y99364D01*
X-225957Y100047D01*
X-226640Y100570D01*
X-227435Y100899D01*
X-228287Y101012D01*
D02*
G37*
G36*
X-346398D02*
X-347250Y100899D01*
X-348045Y100570D01*
X-348728Y100047D01*
X-349251Y99364D01*
X-349580Y98569D01*
X-349693Y97717D01*
X-349580Y96864D01*
X-349251Y96069D01*
X-348728Y95387D01*
X-348045Y94863D01*
X-347250Y94534D01*
X-346398Y94421D01*
X-345545Y94534D01*
X-344750Y94863D01*
X-344068Y95387D01*
X-343544Y96069D01*
X-343215Y96864D01*
X-343103Y97717D01*
X-343215Y98569D01*
X-343544Y99364D01*
X-344068Y100047D01*
X-344750Y100570D01*
X-345545Y100899D01*
X-346398Y101012D01*
D02*
G37*
G36*
X-354272D02*
X-355124Y100899D01*
X-355919Y100570D01*
X-356602Y100047D01*
X-357125Y99364D01*
X-357454Y98569D01*
X-357567Y97717D01*
X-357454Y96864D01*
X-357125Y96069D01*
X-356602Y95387D01*
X-355919Y94863D01*
X-355124Y94534D01*
X-354272Y94421D01*
X-353419Y94534D01*
X-352624Y94863D01*
X-351942Y95387D01*
X-351418Y96069D01*
X-351089Y96864D01*
X-350976Y97717D01*
X-351089Y98569D01*
X-351418Y99364D01*
X-351942Y100047D01*
X-352624Y100570D01*
X-353419Y100899D01*
X-354272Y101012D01*
D02*
G37*
G36*
X-338524D02*
X-339376Y100899D01*
X-340171Y100570D01*
X-340854Y100047D01*
X-341377Y99364D01*
X-341706Y98569D01*
X-341819Y97717D01*
X-341706Y96864D01*
X-341377Y96069D01*
X-340854Y95387D01*
X-340171Y94863D01*
X-339376Y94534D01*
X-338524Y94421D01*
X-337671Y94534D01*
X-336876Y94863D01*
X-336194Y95387D01*
X-335670Y96069D01*
X-335341Y96864D01*
X-335228Y97717D01*
X-335341Y98569D01*
X-335670Y99364D01*
X-336194Y100047D01*
X-336876Y100570D01*
X-337671Y100899D01*
X-338524Y101012D01*
D02*
G37*
G36*
X-322776D02*
X-323628Y100899D01*
X-324423Y100570D01*
X-325106Y100047D01*
X-325629Y99364D01*
X-325958Y98569D01*
X-326071Y97717D01*
X-325958Y96864D01*
X-325629Y96069D01*
X-325106Y95387D01*
X-324423Y94863D01*
X-323628Y94534D01*
X-322776Y94421D01*
X-321923Y94534D01*
X-321128Y94863D01*
X-320446Y95387D01*
X-319922Y96069D01*
X-319593Y96864D01*
X-319480Y97717D01*
X-319593Y98569D01*
X-319922Y99364D01*
X-320446Y100047D01*
X-321128Y100570D01*
X-321923Y100899D01*
X-322776Y101012D01*
D02*
G37*
G36*
X-330650D02*
X-331502Y100899D01*
X-332297Y100570D01*
X-332980Y100047D01*
X-333503Y99364D01*
X-333832Y98569D01*
X-333945Y97717D01*
X-333832Y96864D01*
X-333503Y96069D01*
X-332980Y95387D01*
X-332297Y94863D01*
X-331502Y94534D01*
X-330650Y94421D01*
X-329797Y94534D01*
X-329002Y94863D01*
X-328320Y95387D01*
X-327796Y96069D01*
X-327467Y96864D01*
X-327355Y97717D01*
X-327467Y98569D01*
X-327796Y99364D01*
X-328320Y100047D01*
X-329002Y100570D01*
X-329797Y100899D01*
X-330650Y101012D01*
D02*
G37*
G36*
X-232224Y93138D02*
X-233077Y93025D01*
X-233872Y92696D01*
X-234554Y92173D01*
X-235078Y91490D01*
X-235407Y90695D01*
X-235520Y89843D01*
X-235407Y88990D01*
X-235078Y88195D01*
X-234554Y87513D01*
X-233872Y86989D01*
X-233805Y86961D01*
Y86500D01*
X-233805Y86500D01*
X-233805D01*
X-233684Y85895D01*
X-233342Y85382D01*
X-231657Y83698D01*
X-231878Y83250D01*
X-232224Y83295D01*
X-233077Y83183D01*
X-233872Y82854D01*
X-233971Y82778D01*
X-234420Y82999D01*
Y83000D01*
X-234540Y83605D01*
X-234882Y84118D01*
X-237800Y87035D01*
X-237768Y87513D01*
X-237245Y88195D01*
X-236916Y88990D01*
X-236803Y89843D01*
X-236916Y90695D01*
X-237245Y91490D01*
X-237768Y92173D01*
X-238451Y92696D01*
X-239246Y93025D01*
X-240098Y93138D01*
X-240951Y93025D01*
X-241746Y92696D01*
X-242428Y92173D01*
X-242952Y91490D01*
X-243281Y90695D01*
X-243393Y89843D01*
X-243281Y88990D01*
X-242952Y88195D01*
X-242428Y87513D01*
X-241746Y86989D01*
X-241649Y86949D01*
X-241559Y86494D01*
X-241216Y85981D01*
X-238739Y83504D01*
X-239016Y83088D01*
X-239246Y83183D01*
X-240098Y83295D01*
X-240951Y83183D01*
X-241746Y82854D01*
X-242174Y82525D01*
X-242324Y82495D01*
X-242726Y82561D01*
X-242983Y82945D01*
X-246392Y86355D01*
Y86961D01*
X-246325Y86989D01*
X-245642Y87513D01*
X-245119Y88195D01*
X-244790Y88990D01*
X-244677Y89843D01*
X-244790Y90695D01*
X-245119Y91490D01*
X-245642Y92173D01*
X-246325Y92696D01*
X-247120Y93025D01*
X-247972Y93138D01*
X-248825Y93025D01*
X-249620Y92696D01*
X-250302Y92173D01*
X-250826Y91490D01*
X-251155Y90695D01*
X-251268Y89843D01*
X-251155Y88990D01*
X-250826Y88195D01*
X-250302Y87513D01*
X-249620Y86989D01*
X-249553Y86961D01*
Y85700D01*
X-249553Y85700D01*
X-249553D01*
X-249432Y85095D01*
X-249090Y84583D01*
X-248222Y83715D01*
X-248383Y83241D01*
X-248825Y83183D01*
X-249620Y82854D01*
X-250302Y82330D01*
X-250826Y81648D01*
X-251155Y80853D01*
X-251268Y80000D01*
X-251155Y79147D01*
X-250826Y78352D01*
X-250302Y77670D01*
X-250133Y77540D01*
Y75376D01*
X-250548Y75098D01*
X-251057Y75309D01*
X-251909Y75421D01*
X-252762Y75309D01*
X-253270Y75098D01*
X-253686Y75376D01*
Y77540D01*
X-253516Y77670D01*
X-252993Y78352D01*
X-252664Y79147D01*
X-252551Y80000D01*
X-252664Y80853D01*
X-252993Y81648D01*
X-253516Y82330D01*
X-254199Y82854D01*
X-254994Y83183D01*
X-255846Y83295D01*
X-256699Y83183D01*
X-256967Y83072D01*
X-257383Y83350D01*
Y86309D01*
X-256934Y86757D01*
X-256699Y86660D01*
X-255846Y86547D01*
X-254994Y86660D01*
X-254199Y86989D01*
X-253516Y87513D01*
X-252993Y88195D01*
X-252664Y88990D01*
X-252551Y89843D01*
X-252664Y90695D01*
X-252993Y91490D01*
X-253516Y92173D01*
X-254199Y92696D01*
X-254994Y93025D01*
X-255846Y93138D01*
X-256699Y93025D01*
X-257494Y92696D01*
X-258176Y92173D01*
X-258700Y91490D01*
X-259029Y90695D01*
X-259141Y89843D01*
X-259046Y89116D01*
X-260081Y88081D01*
X-260423Y87568D01*
X-260454Y87413D01*
X-260933Y87268D01*
X-261298Y87633D01*
X-260867Y88195D01*
X-260538Y88990D01*
X-260425Y89843D01*
X-260538Y90695D01*
X-260867Y91490D01*
X-261390Y92173D01*
X-262073Y92696D01*
X-262868Y93025D01*
X-263720Y93138D01*
X-264573Y93025D01*
X-265368Y92696D01*
X-266050Y92173D01*
X-266574Y91490D01*
X-266903Y90695D01*
X-267016Y89843D01*
X-266903Y88990D01*
X-266574Y88195D01*
X-266050Y87513D01*
X-265368Y86989D01*
X-264760Y86737D01*
X-264534Y86399D01*
X-262184Y84049D01*
Y83350D01*
X-262600Y83072D01*
X-262868Y83183D01*
X-263720Y83295D01*
X-264573Y83183D01*
X-265368Y82854D01*
X-265705Y82595D01*
X-266174Y82771D01*
X-266240Y83105D01*
X-266582Y83618D01*
X-269683Y86718D01*
X-269650Y87217D01*
X-269264Y87513D01*
X-268741Y88195D01*
X-268412Y88990D01*
X-268299Y89843D01*
X-268412Y90695D01*
X-268741Y91490D01*
X-269264Y92173D01*
X-269947Y92696D01*
X-270742Y93025D01*
X-271594Y93138D01*
X-272447Y93025D01*
X-273242Y92696D01*
X-273924Y92173D01*
X-274448Y91490D01*
X-274777Y90695D01*
X-274889Y89843D01*
X-274777Y88990D01*
X-274448Y88195D01*
X-273924Y87513D01*
X-273242Y86989D01*
X-273175Y86961D01*
Y86394D01*
X-273055Y85790D01*
X-272712Y85277D01*
X-271149Y83714D01*
X-271370Y83266D01*
X-271594Y83295D01*
X-272447Y83183D01*
X-273242Y82854D01*
X-273571Y82601D01*
X-274020Y82822D01*
Y85974D01*
X-274140Y86579D01*
X-274482Y87091D01*
X-276314Y88923D01*
X-276286Y88990D01*
X-276173Y89843D01*
X-276286Y90695D01*
X-276615Y91490D01*
X-277139Y92173D01*
X-277821Y92696D01*
X-278616Y93025D01*
X-279469Y93138D01*
X-280321Y93025D01*
X-281116Y92696D01*
X-281799Y92173D01*
X-282322Y91490D01*
X-282651Y90695D01*
X-282764Y89843D01*
X-282651Y88990D01*
X-282322Y88195D01*
X-281799Y87513D01*
X-281116Y86989D01*
X-280321Y86660D01*
X-279469Y86547D01*
X-278616Y86660D01*
X-278549Y86688D01*
X-277180Y85319D01*
Y82927D01*
X-277629Y82706D01*
X-277821Y82854D01*
X-278616Y83183D01*
X-279469Y83295D01*
X-280321Y83183D01*
X-281116Y82854D01*
X-281799Y82330D01*
X-282322Y81648D01*
X-282651Y80853D01*
X-282764Y80000D01*
X-282651Y79147D01*
X-282322Y78352D01*
X-281799Y77670D01*
X-281629Y77540D01*
Y75376D01*
X-282045Y75098D01*
X-282553Y75309D01*
X-283406Y75421D01*
X-284258Y75309D01*
X-285053Y74980D01*
X-285736Y74456D01*
X-286259Y73774D01*
X-286588Y72979D01*
X-286701Y72126D01*
X-286588Y71273D01*
X-286259Y70478D01*
X-285736Y69796D01*
X-285053Y69272D01*
X-284258Y68943D01*
X-283406Y68831D01*
X-282553Y68943D01*
X-282045Y69154D01*
X-281629Y68876D01*
Y15967D01*
X-282045Y15689D01*
X-282553Y15899D01*
X-283406Y16012D01*
X-284258Y15899D01*
X-285053Y15570D01*
X-285736Y15047D01*
X-286259Y14364D01*
X-286588Y13569D01*
X-286701Y12717D01*
X-286588Y11864D01*
X-286259Y11069D01*
X-285736Y10387D01*
X-285053Y9863D01*
X-284258Y9534D01*
X-283924Y9490D01*
X-283764Y9016D01*
X-284518Y8263D01*
X-284860Y7750D01*
X-284980Y7145D01*
Y1800D01*
X-284860Y1195D01*
X-284518Y683D01*
X-281708Y-2127D01*
X-281741Y-2626D01*
X-281799Y-2670D01*
X-282322Y-3352D01*
X-282651Y-4147D01*
X-282764Y-5000D01*
X-282651Y-5853D01*
X-282322Y-6648D01*
X-281799Y-7330D01*
X-281116Y-7854D01*
X-280321Y-8183D01*
X-279469Y-8295D01*
X-278616Y-8183D01*
X-277821Y-7854D01*
X-277139Y-7330D01*
X-276615Y-6648D01*
X-276286Y-5853D01*
X-276173Y-5000D01*
X-276286Y-4147D01*
X-276615Y-3352D01*
X-277139Y-2670D01*
X-277821Y-2146D01*
X-277891Y-2117D01*
X-278009Y-1527D01*
X-278351Y-1014D01*
X-280616Y1251D01*
X-280338Y1667D01*
X-280321Y1660D01*
X-279469Y1548D01*
X-278616Y1660D01*
X-277821Y1989D01*
X-277629Y2136D01*
X-277180Y1915D01*
Y300D01*
X-277060Y-305D01*
X-276717Y-817D01*
X-274333Y-3202D01*
X-274448Y-3352D01*
X-274777Y-4147D01*
X-274889Y-5000D01*
X-274777Y-5853D01*
X-274448Y-6648D01*
X-273924Y-7330D01*
X-273242Y-7854D01*
X-272447Y-8183D01*
X-271594Y-8295D01*
X-270742Y-8183D01*
X-269947Y-7854D01*
X-269264Y-7330D01*
X-268741Y-6648D01*
X-268412Y-5853D01*
X-268299Y-5000D01*
X-268412Y-4147D01*
X-268741Y-3352D01*
X-269264Y-2670D01*
X-269947Y-2146D01*
X-270742Y-1817D01*
X-271325Y-1740D01*
X-274020Y955D01*
Y2020D01*
X-273571Y2242D01*
X-273242Y1989D01*
X-272447Y1660D01*
X-271594Y1548D01*
X-270742Y1660D01*
X-269947Y1989D01*
X-269714Y2168D01*
X-269220Y2086D01*
X-269018Y1782D01*
X-265565Y-1670D01*
X-265485Y-1864D01*
X-265511Y-2256D01*
X-266050Y-2670D01*
X-266574Y-3352D01*
X-266903Y-4147D01*
X-267016Y-5000D01*
X-266903Y-5853D01*
X-266574Y-6648D01*
X-266050Y-7330D01*
X-265368Y-7854D01*
X-264573Y-8183D01*
X-263720Y-8295D01*
X-262868Y-8183D01*
X-262073Y-7854D01*
X-261390Y-7330D01*
X-260867Y-6648D01*
X-260538Y-5853D01*
X-260425Y-5000D01*
X-260538Y-4147D01*
X-260867Y-3352D01*
X-261390Y-2670D01*
X-262073Y-2146D01*
X-262140Y-2118D01*
Y-1280D01*
X-262260Y-675D01*
X-262603Y-162D01*
X-263844Y1079D01*
X-263683Y1552D01*
X-262868Y1660D01*
X-262073Y1989D01*
X-261390Y2513D01*
X-260867Y3195D01*
X-260538Y3990D01*
X-260425Y4843D01*
X-260538Y5695D01*
X-260867Y6490D01*
X-261367Y7142D01*
X-261320Y7380D01*
Y9367D01*
X-260904Y9645D01*
X-260636Y9534D01*
X-259783Y9421D01*
X-258931Y9534D01*
X-258663Y9645D01*
X-258247Y9367D01*
Y7380D01*
X-258200Y7142D01*
X-258700Y6490D01*
X-259029Y5695D01*
X-259141Y4843D01*
X-259029Y3990D01*
X-258700Y3195D01*
X-258176Y2513D01*
X-257494Y1989D01*
X-256699Y1660D01*
X-255846Y1548D01*
X-254994Y1660D01*
X-254951Y1677D01*
X-254673Y1262D01*
X-256964Y-1029D01*
X-257307Y-1542D01*
X-257421Y-2116D01*
X-257494Y-2146D01*
X-258176Y-2670D01*
X-258700Y-3352D01*
X-259029Y-4147D01*
X-259141Y-5000D01*
X-259029Y-5853D01*
X-258700Y-6648D01*
X-258176Y-7330D01*
X-257494Y-7854D01*
X-256699Y-8183D01*
X-255846Y-8295D01*
X-254994Y-8183D01*
X-254199Y-7854D01*
X-253516Y-7330D01*
X-252993Y-6648D01*
X-252664Y-5853D01*
X-252551Y-5000D01*
X-252664Y-4147D01*
X-252993Y-3352D01*
X-253516Y-2670D01*
X-253566Y-2632D01*
X-253598Y-2133D01*
X-252100Y-635D01*
X-250288Y-2447D01*
X-250302Y-2670D01*
X-250826Y-3352D01*
X-251155Y-4147D01*
X-251268Y-5000D01*
X-251155Y-5853D01*
X-250826Y-6648D01*
X-250302Y-7330D01*
X-249620Y-7854D01*
X-248825Y-8183D01*
X-247972Y-8295D01*
X-247120Y-8183D01*
X-246325Y-7854D01*
X-245642Y-7330D01*
X-245119Y-6648D01*
X-244790Y-5853D01*
X-244677Y-5000D01*
X-244790Y-4147D01*
X-245119Y-3352D01*
X-245642Y-2670D01*
X-246325Y-2146D01*
X-246481Y-2082D01*
X-246512Y-1923D01*
X-246855Y-1410D01*
X-249380Y1115D01*
X-249331Y1612D01*
X-249093Y1771D01*
X-248825Y1660D01*
X-247972Y1548D01*
X-247120Y1660D01*
X-246387Y1963D01*
X-246248Y1889D01*
X-245884Y1414D01*
X-245860Y1295D01*
X-245517Y783D01*
X-242406Y-2329D01*
X-242428Y-2670D01*
X-242952Y-3352D01*
X-243281Y-4147D01*
X-243393Y-5000D01*
X-243281Y-5853D01*
X-242952Y-6648D01*
X-242428Y-7330D01*
X-241746Y-7854D01*
X-240951Y-8183D01*
X-240098Y-8295D01*
X-239246Y-8183D01*
X-238451Y-7854D01*
X-237768Y-7330D01*
X-237245Y-6648D01*
X-236916Y-5853D01*
X-236803Y-5000D01*
X-236916Y-4147D01*
X-237245Y-3352D01*
X-237768Y-2670D01*
X-238451Y-2146D01*
X-238579Y-2093D01*
X-238638Y-1797D01*
X-238981Y-1284D01*
X-241707Y1442D01*
X-241429Y1858D01*
X-240951Y1660D01*
X-240098Y1548D01*
X-239246Y1660D01*
X-238451Y1989D01*
X-238295Y2108D01*
X-237827Y1932D01*
X-237760Y1595D01*
X-237418Y1082D01*
X-234319Y-2016D01*
X-234352Y-2515D01*
X-234554Y-2670D01*
X-235078Y-3352D01*
X-235407Y-4147D01*
X-235520Y-5000D01*
X-235407Y-5853D01*
X-235078Y-6648D01*
X-234554Y-7330D01*
X-233872Y-7854D01*
X-233077Y-8183D01*
X-232224Y-8295D01*
X-231372Y-8183D01*
X-230577Y-7854D01*
X-229894Y-7330D01*
X-229371Y-6648D01*
X-229042Y-5853D01*
X-228929Y-5000D01*
X-229042Y-4147D01*
X-229371Y-3352D01*
X-229894Y-2670D01*
X-230577Y-2146D01*
X-230644Y-2118D01*
Y-1876D01*
X-230764Y-1271D01*
X-231107Y-758D01*
X-233043Y1178D01*
X-232821Y1626D01*
X-232224Y1548D01*
X-231372Y1660D01*
X-230577Y1989D01*
X-229894Y2513D01*
X-229371Y3195D01*
X-229042Y3990D01*
X-228929Y4843D01*
X-229042Y5695D01*
X-229371Y6490D01*
X-229871Y7142D01*
X-229824Y7380D01*
Y9367D01*
X-229408Y9645D01*
X-229140Y9534D01*
X-228287Y9421D01*
X-227435Y9534D01*
X-226640Y9863D01*
X-225957Y10387D01*
X-225434Y11069D01*
X-225105Y11864D01*
X-224992Y12717D01*
X-225105Y13569D01*
X-225434Y14364D01*
X-225957Y15047D01*
X-226640Y15570D01*
X-227435Y15899D01*
X-228287Y16012D01*
X-229140Y15899D01*
X-229408Y15788D01*
X-229824Y16066D01*
Y68776D01*
X-229408Y69054D01*
X-229140Y68943D01*
X-228287Y68831D01*
X-227435Y68943D01*
X-226640Y69272D01*
X-225957Y69796D01*
X-225434Y70478D01*
X-225105Y71273D01*
X-224992Y72126D01*
X-225105Y72979D01*
X-225434Y73774D01*
X-225957Y74456D01*
X-226640Y74980D01*
X-227435Y75309D01*
X-228287Y75421D01*
X-228503Y75393D01*
X-228724Y75841D01*
X-227283Y77283D01*
X-226940Y77795D01*
X-226820Y78400D01*
Y82676D01*
X-226940Y83280D01*
X-227283Y83793D01*
X-230253Y86764D01*
X-230220Y87262D01*
X-229894Y87513D01*
X-229371Y88195D01*
X-229042Y88990D01*
X-228929Y89843D01*
X-229042Y90695D01*
X-229371Y91490D01*
X-229894Y92173D01*
X-230577Y92696D01*
X-231372Y93025D01*
X-232224Y93138D01*
D02*
G37*
G36*
X-361358Y90775D02*
X-362500Y90663D01*
X-363598Y90330D01*
X-364611Y89789D01*
X-365498Y89061D01*
X-366226Y88174D01*
X-366767Y87161D01*
X-367100Y86063D01*
X-367212Y84921D01*
X-367100Y83779D01*
X-366767Y82681D01*
X-366226Y81669D01*
X-365498Y80782D01*
X-364611Y80054D01*
X-363598Y79513D01*
X-362500Y79180D01*
X-361358Y79067D01*
X-360216Y79180D01*
X-359118Y79513D01*
X-358106Y80054D01*
X-357219Y80782D01*
X-356491Y81669D01*
X-355950Y82681D01*
X-355616Y83779D01*
X-355504Y84921D01*
X-355616Y86063D01*
X-355950Y87161D01*
X-356491Y88174D01*
X-357219Y89061D01*
X-358106Y89789D01*
X-359118Y90330D01*
X-360216Y90663D01*
X-361358Y90775D01*
D02*
G37*
G36*
X-295217Y93138D02*
X-296069Y93025D01*
X-296864Y92696D01*
X-297547Y92173D01*
X-298070Y91490D01*
X-298399Y90695D01*
X-298512Y89843D01*
X-298399Y88990D01*
X-298070Y88195D01*
X-297547Y87513D01*
X-296889Y87008D01*
Y86509D01*
X-296889Y86509D01*
X-296889D01*
X-296769Y85904D01*
X-296426Y85391D01*
X-294746Y83711D01*
X-294967Y83262D01*
X-295217Y83295D01*
X-296069Y83183D01*
X-296864Y82854D01*
X-297239Y82566D01*
X-297708Y82742D01*
X-297740Y82905D01*
X-298082Y83417D01*
X-301294Y86629D01*
X-301294Y86630D01*
X-301262Y87128D01*
X-300761Y87513D01*
X-300237Y88195D01*
X-299908Y88990D01*
X-299796Y89843D01*
X-299908Y90695D01*
X-300237Y91490D01*
X-300761Y92173D01*
X-301443Y92696D01*
X-302238Y93025D01*
X-303091Y93138D01*
X-303943Y93025D01*
X-304738Y92696D01*
X-305421Y92173D01*
X-305944Y91490D01*
X-306273Y90695D01*
X-306386Y89843D01*
X-306273Y88990D01*
X-305944Y88195D01*
X-305421Y87513D01*
X-304738Y86989D01*
X-304671Y86961D01*
Y86191D01*
X-304671Y86191D01*
X-304671D01*
X-304551Y85586D01*
X-304208Y85073D01*
X-302872Y83737D01*
X-303091Y83295D01*
X-303943Y83183D01*
X-304738Y82854D01*
X-304895Y82733D01*
X-305389Y82635D01*
X-305581Y82667D01*
X-305605Y82703D01*
X-305605Y82703D01*
X-305883Y83118D01*
Y83118D01*
X-305883Y83118D01*
X-309296Y86531D01*
X-309263Y87030D01*
X-308635Y87513D01*
X-308111Y88195D01*
X-307782Y88990D01*
X-307669Y89843D01*
X-307782Y90695D01*
X-308111Y91490D01*
X-308635Y92173D01*
X-309317Y92696D01*
X-310112Y93025D01*
X-310965Y93138D01*
X-311817Y93025D01*
X-312612Y92696D01*
X-313295Y92173D01*
X-313818Y91490D01*
X-314147Y90695D01*
X-314260Y89843D01*
X-314147Y88990D01*
X-313818Y88195D01*
X-313295Y87513D01*
X-312612Y86989D01*
X-312545Y86961D01*
Y85965D01*
X-312545Y85965D01*
X-312545D01*
X-312425Y85360D01*
X-312082Y84847D01*
X-310980Y83745D01*
X-311141Y83272D01*
X-311817Y83183D01*
X-312612Y82854D01*
X-312759Y82741D01*
X-313252Y82823D01*
X-313582Y83318D01*
X-316958Y86694D01*
X-316926Y87192D01*
X-316509Y87513D01*
X-315985Y88195D01*
X-315656Y88990D01*
X-315544Y89843D01*
X-315656Y90695D01*
X-315985Y91490D01*
X-316509Y92173D01*
X-317191Y92696D01*
X-317986Y93025D01*
X-318839Y93138D01*
X-319691Y93025D01*
X-320486Y92696D01*
X-321169Y92173D01*
X-321692Y91490D01*
X-322021Y90695D01*
X-322134Y89843D01*
X-322021Y88990D01*
X-321692Y88195D01*
X-321169Y87513D01*
X-320486Y86989D01*
X-320419Y86961D01*
Y86339D01*
X-320419Y86339D01*
X-320419D01*
X-320299Y85734D01*
X-319956Y85221D01*
X-318458Y83723D01*
X-318679Y83274D01*
X-318839Y83295D01*
X-319691Y83183D01*
X-320486Y82854D01*
X-320959Y82491D01*
X-321452Y82573D01*
X-321683Y82917D01*
X-325132Y86367D01*
Y86961D01*
X-325065Y86989D01*
X-324383Y87513D01*
X-323859Y88195D01*
X-323530Y88990D01*
X-323417Y89843D01*
X-323530Y90695D01*
X-323859Y91490D01*
X-324383Y92173D01*
X-325065Y92696D01*
X-325860Y93025D01*
X-326713Y93138D01*
X-327565Y93025D01*
X-328360Y92696D01*
X-329043Y92173D01*
X-329566Y91490D01*
X-329895Y90695D01*
X-330008Y89843D01*
X-329895Y88990D01*
X-329566Y88195D01*
X-329043Y87513D01*
X-328360Y86989D01*
X-328293Y86961D01*
Y85713D01*
X-328293Y85713D01*
X-328293D01*
X-328173Y85108D01*
X-327830Y84595D01*
X-326951Y83716D01*
X-327112Y83243D01*
X-327565Y83183D01*
X-328360Y82854D01*
X-328808Y82510D01*
X-329276Y82686D01*
X-329340Y83005D01*
X-329682Y83517D01*
X-332787Y86622D01*
X-332792Y86634D01*
X-332760Y87126D01*
X-332257Y87513D01*
X-331733Y88195D01*
X-331404Y88990D01*
X-331292Y89843D01*
X-331404Y90695D01*
X-331733Y91490D01*
X-332257Y92173D01*
X-332939Y92696D01*
X-333734Y93025D01*
X-334587Y93138D01*
X-335439Y93025D01*
X-336234Y92696D01*
X-336917Y92173D01*
X-337440Y91490D01*
X-337769Y90695D01*
X-337882Y89843D01*
X-337769Y88990D01*
X-337440Y88195D01*
X-336917Y87513D01*
X-336234Y86989D01*
X-336167Y86961D01*
Y86187D01*
X-336167Y86187D01*
X-336167D01*
X-336047Y85582D01*
X-335704Y85069D01*
X-334370Y83735D01*
X-334587Y83295D01*
X-335439Y83183D01*
X-336234Y82854D01*
X-336917Y82330D01*
X-337440Y81648D01*
X-337769Y80853D01*
X-337882Y80000D01*
X-337769Y79147D01*
X-337440Y78352D01*
X-336917Y77670D01*
X-336747Y77540D01*
Y75376D01*
X-337163Y75098D01*
X-337671Y75309D01*
X-338524Y75421D01*
X-339376Y75309D01*
X-339885Y75098D01*
X-340300Y75376D01*
Y77540D01*
X-340131Y77670D01*
X-339607Y78352D01*
X-339278Y79147D01*
X-339165Y80000D01*
X-339278Y80853D01*
X-339607Y81648D01*
X-340131Y82330D01*
X-340813Y82854D01*
X-341608Y83183D01*
X-342461Y83295D01*
X-343313Y83183D01*
X-344108Y82854D01*
X-344371Y82652D01*
X-344820Y82873D01*
Y85249D01*
X-343381Y86688D01*
X-343313Y86660D01*
X-342461Y86547D01*
X-341608Y86660D01*
X-340813Y86989D01*
X-340131Y87513D01*
X-339607Y88195D01*
X-339278Y88990D01*
X-339165Y89843D01*
X-339278Y90695D01*
X-339607Y91490D01*
X-340131Y92173D01*
X-340813Y92696D01*
X-341608Y93025D01*
X-342461Y93138D01*
X-343313Y93025D01*
X-344108Y92696D01*
X-344791Y92173D01*
X-345314Y91490D01*
X-345643Y90695D01*
X-345756Y89843D01*
X-345643Y88990D01*
X-345616Y88923D01*
X-347517Y87021D01*
X-347860Y86508D01*
X-347980Y85903D01*
Y76536D01*
X-347860Y75932D01*
X-347621Y75574D01*
X-347766Y75095D01*
X-348045Y74980D01*
X-348728Y74456D01*
X-349251Y73774D01*
X-349580Y72979D01*
X-349693Y72126D01*
X-349580Y71273D01*
X-349251Y70478D01*
X-348728Y69796D01*
X-348045Y69272D01*
X-347250Y68943D01*
X-346398Y68831D01*
X-345545Y68943D01*
X-345277Y69054D01*
X-344861Y68776D01*
Y16066D01*
X-345277Y15788D01*
X-345545Y15899D01*
X-346398Y16012D01*
X-347250Y15899D01*
X-348045Y15570D01*
X-348728Y15047D01*
X-349251Y14364D01*
X-349580Y13569D01*
X-349693Y12717D01*
X-349580Y11864D01*
X-349251Y11069D01*
X-348728Y10387D01*
X-348045Y9863D01*
X-347250Y9534D01*
X-346398Y9421D01*
X-345545Y9534D01*
X-345277Y9645D01*
X-344861Y9367D01*
Y7380D01*
X-344814Y7142D01*
X-345314Y6490D01*
X-345643Y5695D01*
X-345756Y4843D01*
X-345643Y3990D01*
X-345314Y3195D01*
X-344791Y2513D01*
X-344108Y1989D01*
X-343313Y1660D01*
X-342461Y1548D01*
X-341608Y1660D01*
X-341340Y1771D01*
X-341202Y1679D01*
X-341154Y1182D01*
X-343578Y-1243D01*
X-343921Y-1756D01*
X-343988Y-2097D01*
X-344108Y-2146D01*
X-344791Y-2670D01*
X-345314Y-3352D01*
X-345643Y-4147D01*
X-345756Y-5000D01*
X-345643Y-5853D01*
X-345314Y-6648D01*
X-344791Y-7330D01*
X-344108Y-7854D01*
X-343313Y-8183D01*
X-342461Y-8295D01*
X-341608Y-8183D01*
X-340813Y-7854D01*
X-340131Y-7330D01*
X-339607Y-6648D01*
X-339278Y-5853D01*
X-339165Y-5000D01*
X-339278Y-4147D01*
X-339607Y-3352D01*
X-340131Y-2670D01*
X-340156Y-2290D01*
X-338550Y-685D01*
X-336895Y-2340D01*
X-336917Y-2670D01*
X-337440Y-3352D01*
X-337769Y-4147D01*
X-337882Y-5000D01*
X-337769Y-5853D01*
X-337440Y-6648D01*
X-336917Y-7330D01*
X-336234Y-7854D01*
X-335439Y-8183D01*
X-334587Y-8295D01*
X-333734Y-8183D01*
X-332939Y-7854D01*
X-332257Y-7330D01*
X-331733Y-6648D01*
X-331404Y-5853D01*
X-331292Y-5000D01*
X-331404Y-4147D01*
X-331733Y-3352D01*
X-332257Y-2670D01*
X-332939Y-2146D01*
X-333070Y-2092D01*
X-333126Y-1809D01*
X-333469Y-1296D01*
X-335925Y1160D01*
X-335876Y1658D01*
X-335707Y1771D01*
X-335439Y1660D01*
X-334587Y1548D01*
X-333734Y1660D01*
X-332939Y1989D01*
X-332529Y2304D01*
X-332080Y2083D01*
Y900D01*
X-331960Y295D01*
X-331617Y-218D01*
X-329096Y-2739D01*
X-329566Y-3352D01*
X-329895Y-4147D01*
X-330008Y-5000D01*
X-329895Y-5853D01*
X-329566Y-6648D01*
X-329043Y-7330D01*
X-328360Y-7854D01*
X-327565Y-8183D01*
X-326713Y-8295D01*
X-325860Y-8183D01*
X-325065Y-7854D01*
X-324383Y-7330D01*
X-323859Y-6648D01*
X-323530Y-5853D01*
X-323417Y-5000D01*
X-323530Y-4147D01*
X-323859Y-3352D01*
X-324383Y-2670D01*
X-325065Y-2146D01*
X-325450Y-1987D01*
X-325595Y-1770D01*
X-328816Y1451D01*
X-328734Y1944D01*
X-328471Y2074D01*
X-328360Y1989D01*
X-327565Y1660D01*
X-326713Y1548D01*
X-325860Y1660D01*
X-325065Y1989D01*
X-324880Y2131D01*
X-324412Y1955D01*
X-324360Y1695D01*
X-324018Y1182D01*
X-320869Y-1966D01*
X-320901Y-2465D01*
X-321169Y-2670D01*
X-321692Y-3352D01*
X-322021Y-4147D01*
X-322134Y-5000D01*
X-322021Y-5853D01*
X-321692Y-6648D01*
X-321169Y-7330D01*
X-320486Y-7854D01*
X-319691Y-8183D01*
X-318839Y-8295D01*
X-317986Y-8183D01*
X-317191Y-7854D01*
X-316509Y-7330D01*
X-315985Y-6648D01*
X-315656Y-5853D01*
X-315544Y-5000D01*
X-315656Y-4147D01*
X-315985Y-3352D01*
X-316509Y-2670D01*
X-317191Y-2146D01*
X-317258Y-2118D01*
Y-1761D01*
X-317378Y-1157D01*
X-317721Y-644D01*
X-319525Y1160D01*
X-319304Y1609D01*
X-318839Y1548D01*
X-317986Y1660D01*
X-317191Y1989D01*
X-317023Y2118D01*
X-316580Y1900D01*
X-316460Y1295D01*
X-316118Y783D01*
X-313207Y-2128D01*
X-313239Y-2627D01*
X-313295Y-2670D01*
X-313818Y-3352D01*
X-314147Y-4147D01*
X-314260Y-5000D01*
X-314147Y-5853D01*
X-313818Y-6648D01*
X-313295Y-7330D01*
X-312612Y-7854D01*
X-311817Y-8183D01*
X-310965Y-8295D01*
X-310112Y-8183D01*
X-309317Y-7854D01*
X-308635Y-7330D01*
X-308111Y-6648D01*
X-307782Y-5853D01*
X-307669Y-5000D01*
X-307782Y-4147D01*
X-308111Y-3352D01*
X-308635Y-2670D01*
X-309317Y-2146D01*
X-309388Y-2117D01*
X-309505Y-1531D01*
X-309847Y-1018D01*
X-312119Y1254D01*
X-311841Y1670D01*
X-311817Y1660D01*
X-310965Y1548D01*
X-310112Y1660D01*
X-309317Y1989D01*
X-308635Y2513D01*
X-308261Y2999D01*
X-307788Y2838D01*
Y-593D01*
X-307668Y-1197D01*
X-307325Y-1710D01*
X-305831Y-3204D01*
X-305944Y-3352D01*
X-306273Y-4147D01*
X-306386Y-5000D01*
X-306273Y-5853D01*
X-305944Y-6648D01*
X-305421Y-7330D01*
X-304738Y-7854D01*
X-303943Y-8183D01*
X-303091Y-8295D01*
X-302238Y-8183D01*
X-301443Y-7854D01*
X-300761Y-7330D01*
X-300237Y-6648D01*
X-299908Y-5853D01*
X-299796Y-5000D01*
X-299908Y-4147D01*
X-300237Y-3352D01*
X-300761Y-2670D01*
X-301443Y-2146D01*
X-302238Y-1817D01*
X-302825Y-1740D01*
X-304627Y62D01*
Y1493D01*
X-304211Y1771D01*
X-303943Y1660D01*
X-303091Y1548D01*
X-302238Y1660D01*
X-301443Y1989D01*
X-301129Y2230D01*
X-300680Y2009D01*
Y2000D01*
X-300560Y1395D01*
X-300218Y883D01*
X-297316Y-2019D01*
X-297349Y-2518D01*
X-297547Y-2670D01*
X-298070Y-3352D01*
X-298399Y-4147D01*
X-298512Y-5000D01*
X-298399Y-5853D01*
X-298070Y-6648D01*
X-297547Y-7330D01*
X-296864Y-7854D01*
X-296069Y-8183D01*
X-295217Y-8295D01*
X-294364Y-8183D01*
X-293569Y-7854D01*
X-292887Y-7330D01*
X-292363Y-6648D01*
X-292034Y-5853D01*
X-291921Y-5000D01*
X-292034Y-4147D01*
X-292363Y-3352D01*
X-292887Y-2670D01*
X-293569Y-2146D01*
X-293636Y-2118D01*
Y-1883D01*
X-293757Y-1279D01*
X-294099Y-766D01*
X-296044Y1179D01*
X-295823Y1627D01*
X-295217Y1548D01*
X-294364Y1660D01*
X-293569Y1989D01*
X-292887Y2513D01*
X-292363Y3195D01*
X-292034Y3990D01*
X-291921Y4843D01*
X-292034Y5695D01*
X-292363Y6490D01*
X-292863Y7142D01*
X-292816Y7380D01*
Y9367D01*
X-292400Y9645D01*
X-292132Y9534D01*
X-291280Y9421D01*
X-290427Y9534D01*
X-289632Y9863D01*
X-288950Y10387D01*
X-288426Y11069D01*
X-288097Y11864D01*
X-287984Y12717D01*
X-288097Y13569D01*
X-288426Y14364D01*
X-288950Y15047D01*
X-289632Y15570D01*
X-290427Y15899D01*
X-291280Y16012D01*
X-292132Y15899D01*
X-292400Y15788D01*
X-292816Y16066D01*
Y68776D01*
X-292400Y69054D01*
X-292132Y68943D01*
X-291280Y68831D01*
X-290427Y68943D01*
X-289632Y69272D01*
X-288950Y69796D01*
X-288426Y70478D01*
X-288097Y71273D01*
X-287984Y72126D01*
X-288097Y72979D01*
X-288426Y73774D01*
X-288950Y74456D01*
X-289632Y74980D01*
X-290427Y75309D01*
X-291280Y75421D01*
X-291499Y75866D01*
X-290182Y77183D01*
X-289840Y77695D01*
X-289720Y78300D01*
Y82500D01*
X-289840Y83105D01*
X-290182Y83618D01*
X-293292Y86727D01*
X-293260Y87226D01*
X-292887Y87513D01*
X-292363Y88195D01*
X-292034Y88990D01*
X-291921Y89843D01*
X-292034Y90695D01*
X-292363Y91490D01*
X-292887Y92173D01*
X-293569Y92696D01*
X-294364Y93025D01*
X-295217Y93138D01*
D02*
G37*
G36*
X-51122D02*
X-51975Y93025D01*
X-52770Y92696D01*
X-53452Y92173D01*
X-53976Y91490D01*
X-54305Y90695D01*
X-54417Y89843D01*
X-54305Y88990D01*
X-53976Y88195D01*
X-53452Y87513D01*
X-52770Y86989D01*
X-52484Y86871D01*
X-52240Y86505D01*
X-48809Y83074D01*
X-48890Y82580D01*
X-49029Y82512D01*
X-49474Y82854D01*
X-50269Y83183D01*
X-51122Y83295D01*
X-51975Y83183D01*
X-52770Y82854D01*
X-53452Y82330D01*
X-53976Y81648D01*
X-54305Y80853D01*
X-54417Y80000D01*
X-54305Y79147D01*
X-53976Y78352D01*
X-53452Y77670D01*
X-53282Y77540D01*
Y75376D01*
X-53698Y75098D01*
X-54206Y75309D01*
X-55059Y75421D01*
X-55912Y75309D01*
X-56420Y75098D01*
X-56836Y75376D01*
Y77540D01*
X-56666Y77670D01*
X-56142Y78352D01*
X-55813Y79147D01*
X-55701Y80000D01*
X-55813Y80853D01*
X-56142Y81648D01*
X-56666Y82330D01*
X-57348Y82854D01*
X-58143Y83183D01*
X-58996Y83295D01*
X-59849Y83183D01*
X-60644Y82854D01*
X-61326Y82330D01*
X-61446Y82173D01*
X-61920Y82334D01*
Y84684D01*
X-59916Y86688D01*
X-59849Y86660D01*
X-58996Y86547D01*
X-58143Y86660D01*
X-57348Y86989D01*
X-56666Y87513D01*
X-56142Y88195D01*
X-55813Y88990D01*
X-55701Y89843D01*
X-55813Y90695D01*
X-56142Y91490D01*
X-56666Y92173D01*
X-57348Y92696D01*
X-58143Y93025D01*
X-58996Y93138D01*
X-59849Y93025D01*
X-60644Y92696D01*
X-61326Y92173D01*
X-61850Y91490D01*
X-62179Y90695D01*
X-62291Y89843D01*
X-62179Y88990D01*
X-62151Y88923D01*
X-64618Y86456D01*
X-64960Y85943D01*
X-65080Y85339D01*
Y83245D01*
X-65496Y82967D01*
X-66017Y83183D01*
X-66870Y83295D01*
X-67351Y83232D01*
X-67675Y83613D01*
X-67624Y83779D01*
X-67512Y84921D01*
X-67624Y86063D01*
X-67675Y86230D01*
X-67352Y86611D01*
X-66870Y86547D01*
X-66017Y86660D01*
X-65222Y86989D01*
X-64540Y87513D01*
X-64016Y88195D01*
X-63687Y88990D01*
X-63575Y89843D01*
X-63687Y90695D01*
X-64016Y91490D01*
X-64540Y92173D01*
X-65222Y92696D01*
X-66017Y93025D01*
X-66870Y93138D01*
X-67723Y93025D01*
X-68518Y92696D01*
X-69194Y92178D01*
X-77403D01*
X-78008Y92057D01*
X-78520Y91715D01*
X-79148Y91087D01*
X-79638Y91185D01*
X-79764Y91490D01*
X-80288Y92173D01*
X-80971Y92696D01*
X-81765Y93025D01*
X-82618Y93138D01*
X-83471Y93025D01*
X-84266Y92696D01*
X-84948Y92173D01*
X-85472Y91490D01*
X-85801Y90695D01*
X-85913Y89843D01*
X-85801Y88990D01*
X-85472Y88195D01*
X-84948Y87513D01*
X-84472Y87147D01*
X-84439Y86648D01*
X-87673Y83414D01*
X-88015Y82902D01*
X-88041Y82772D01*
X-88509Y82596D01*
X-88845Y82854D01*
X-89639Y83183D01*
X-90492Y83295D01*
X-90532Y83290D01*
X-90753Y83738D01*
X-89375Y85116D01*
X-89032Y85629D01*
X-88912Y86234D01*
X-88912Y86234D01*
X-88912Y86234D01*
Y86234D01*
Y86961D01*
X-88845Y86989D01*
X-88162Y87513D01*
X-87638Y88195D01*
X-87309Y88990D01*
X-87197Y89843D01*
X-87309Y90695D01*
X-87638Y91490D01*
X-88162Y92173D01*
X-88845Y92696D01*
X-89639Y93025D01*
X-90492Y93138D01*
X-91345Y93025D01*
X-92140Y92696D01*
X-92822Y92173D01*
X-93346Y91490D01*
X-93675Y90695D01*
X-93787Y89843D01*
X-93675Y88990D01*
X-93346Y88195D01*
X-92822Y87513D01*
X-92346Y87147D01*
X-92313Y86648D01*
X-95547Y83414D01*
X-95889Y82902D01*
X-95915Y82772D01*
X-96383Y82596D01*
X-96719Y82854D01*
X-97513Y83183D01*
X-98366Y83295D01*
X-99219Y83183D01*
X-100014Y82854D01*
X-100274Y82654D01*
X-100723Y82875D01*
Y85251D01*
X-99286Y86688D01*
X-99219Y86660D01*
X-98366Y86547D01*
X-97513Y86660D01*
X-96719Y86989D01*
X-96036Y87513D01*
X-95512Y88195D01*
X-95183Y88990D01*
X-95071Y89843D01*
X-95183Y90695D01*
X-95512Y91490D01*
X-96036Y92173D01*
X-96719Y92696D01*
X-97513Y93025D01*
X-98366Y93138D01*
X-99219Y93025D01*
X-100014Y92696D01*
X-100696Y92173D01*
X-101220Y91490D01*
X-101549Y90695D01*
X-101661Y89843D01*
X-101549Y88990D01*
X-101521Y88923D01*
X-103421Y87023D01*
X-103763Y86510D01*
X-103884Y85906D01*
Y82875D01*
X-104332Y82654D01*
X-104593Y82854D01*
X-105387Y83183D01*
X-106240Y83295D01*
X-107093Y83183D01*
X-107888Y82854D01*
X-108148Y82654D01*
X-108597Y82875D01*
Y85251D01*
X-107160Y86688D01*
X-107093Y86660D01*
X-106240Y86547D01*
X-105387Y86660D01*
X-104593Y86989D01*
X-103910Y87513D01*
X-103386Y88195D01*
X-103057Y88990D01*
X-102945Y89843D01*
X-103057Y90695D01*
X-103386Y91490D01*
X-103910Y92173D01*
X-104593Y92696D01*
X-105387Y93025D01*
X-106240Y93138D01*
X-107093Y93025D01*
X-107888Y92696D01*
X-108570Y92173D01*
X-109094Y91490D01*
X-109423Y90695D01*
X-109535Y89843D01*
X-109423Y88990D01*
X-109395Y88923D01*
X-111295Y87023D01*
X-111637Y86510D01*
X-111758Y85906D01*
Y82875D01*
X-112206Y82654D01*
X-112467Y82854D01*
X-113261Y83183D01*
X-114114Y83295D01*
X-114967Y83183D01*
X-115235Y83072D01*
X-115651Y83350D01*
Y86071D01*
X-115034Y86688D01*
X-114967Y86660D01*
X-114114Y86547D01*
X-113261Y86660D01*
X-112467Y86989D01*
X-111784Y87513D01*
X-111260Y88195D01*
X-110931Y88990D01*
X-110819Y89843D01*
X-110931Y90695D01*
X-111260Y91490D01*
X-111784Y92173D01*
X-112467Y92696D01*
X-113261Y93025D01*
X-114114Y93138D01*
X-114967Y93025D01*
X-115762Y92696D01*
X-116444Y92173D01*
X-116968Y91490D01*
X-117297Y90695D01*
X-117409Y89843D01*
X-117297Y88990D01*
X-117269Y88923D01*
X-118349Y87843D01*
X-118691Y87330D01*
X-118812Y86726D01*
Y82004D01*
X-119285Y81844D01*
X-119658Y82330D01*
X-120341Y82854D01*
X-121135Y83183D01*
X-121988Y83295D01*
X-122028Y83290D01*
X-122249Y83738D01*
X-121882Y84105D01*
X-121540Y84617D01*
X-121420Y85222D01*
X-121420Y85222D01*
X-121420Y85222D01*
Y85222D01*
Y86622D01*
X-121135Y86660D01*
X-120341Y86989D01*
X-119658Y87513D01*
X-119134Y88195D01*
X-118805Y88990D01*
X-118693Y89843D01*
X-118805Y90695D01*
X-119134Y91490D01*
X-119658Y92173D01*
X-120341Y92696D01*
X-121135Y93025D01*
X-121988Y93138D01*
X-122841Y93025D01*
X-123636Y92696D01*
X-124318Y92173D01*
X-124842Y91490D01*
X-125171Y90695D01*
X-125283Y89843D01*
X-125171Y88990D01*
X-124842Y88195D01*
X-124580Y87854D01*
Y85877D01*
X-127118Y83340D01*
X-127460Y82827D01*
X-127463Y82812D01*
X-127931Y82636D01*
X-128215Y82854D01*
X-129009Y83183D01*
X-129862Y83295D01*
X-130715Y83183D01*
X-130983Y83072D01*
X-131399Y83350D01*
Y86071D01*
X-130782Y86688D01*
X-130715Y86660D01*
X-129862Y86547D01*
X-129009Y86660D01*
X-128215Y86989D01*
X-127532Y87513D01*
X-127008Y88195D01*
X-126679Y88990D01*
X-126567Y89843D01*
X-126679Y90695D01*
X-127008Y91490D01*
X-127532Y92173D01*
X-128215Y92696D01*
X-129009Y93025D01*
X-129862Y93138D01*
X-130715Y93025D01*
X-131510Y92696D01*
X-132192Y92173D01*
X-132716Y91490D01*
X-133045Y90695D01*
X-133157Y89843D01*
X-133045Y88990D01*
X-133017Y88923D01*
X-134097Y87843D01*
X-134439Y87330D01*
X-134528Y86886D01*
X-135006Y86741D01*
X-135429Y87164D01*
X-135406Y87513D01*
X-134882Y88195D01*
X-134553Y88990D01*
X-134441Y89843D01*
X-134553Y90695D01*
X-134882Y91490D01*
X-135406Y92173D01*
X-136089Y92696D01*
X-136883Y93025D01*
X-137736Y93138D01*
X-138589Y93025D01*
X-139384Y92696D01*
X-140066Y92173D01*
X-140590Y91490D01*
X-140919Y90695D01*
X-141031Y89843D01*
X-140919Y88990D01*
X-140590Y88195D01*
X-140066Y87513D01*
X-139384Y86989D01*
X-139257Y86936D01*
X-139252Y86912D01*
X-139196Y86631D01*
X-138854Y86119D01*
X-136332Y83597D01*
X-136381Y83099D01*
X-136377Y83102D01*
X-136496Y83022D01*
X-136883Y83183D01*
X-137736Y83295D01*
X-138589Y83183D01*
X-139384Y82854D01*
X-140066Y82330D01*
X-140590Y81648D01*
X-140919Y80853D01*
X-141031Y80000D01*
X-140919Y79147D01*
X-140590Y78352D01*
X-140066Y77670D01*
X-139897Y77540D01*
Y75376D01*
X-140312Y75098D01*
X-140820Y75309D01*
X-141673Y75421D01*
X-142526Y75309D01*
X-143034Y75098D01*
X-143450Y75376D01*
Y77540D01*
X-143280Y77670D01*
X-142756Y78352D01*
X-142427Y79147D01*
X-142315Y80000D01*
X-142427Y80853D01*
X-142756Y81648D01*
X-143280Y82330D01*
X-143963Y82854D01*
X-144757Y83183D01*
X-145610Y83295D01*
X-145650Y83290D01*
X-145871Y83738D01*
X-144493Y85116D01*
X-144150Y85629D01*
X-144030Y86234D01*
X-144030Y86234D01*
X-144030Y86234D01*
Y86234D01*
Y86961D01*
X-143963Y86989D01*
X-143280Y87513D01*
X-142756Y88195D01*
X-142427Y88990D01*
X-142315Y89843D01*
X-142427Y90695D01*
X-142756Y91490D01*
X-143280Y92173D01*
X-143963Y92696D01*
X-144757Y93025D01*
X-145610Y93138D01*
X-146463Y93025D01*
X-147258Y92696D01*
X-147940Y92173D01*
X-148464Y91490D01*
X-148793Y90695D01*
X-148905Y89843D01*
X-148793Y88990D01*
X-148464Y88195D01*
X-147940Y87513D01*
X-147464Y87147D01*
X-147431Y86648D01*
X-150665Y83414D01*
X-151007Y82902D01*
X-151128Y82297D01*
Y78647D01*
X-151007Y78042D01*
X-150665Y77530D01*
X-148956Y75821D01*
X-149177Y75372D01*
X-149547Y75421D01*
X-150400Y75309D01*
X-151195Y74980D01*
X-151877Y74456D01*
X-152401Y73774D01*
X-152730Y72979D01*
X-152842Y72126D01*
X-152730Y71273D01*
X-152401Y70478D01*
X-151877Y69796D01*
X-151195Y69272D01*
X-150400Y68943D01*
X-149547Y68831D01*
X-148694Y68943D01*
X-148426Y69054D01*
X-148011Y68776D01*
Y16066D01*
X-148426Y15788D01*
X-148694Y15899D01*
X-149547Y16012D01*
X-150400Y15899D01*
X-151195Y15570D01*
X-151877Y15047D01*
X-152401Y14364D01*
X-152730Y13569D01*
X-152842Y12717D01*
X-152730Y11864D01*
X-152401Y11069D01*
X-151877Y10387D01*
X-151195Y9863D01*
X-150400Y9534D01*
X-149547Y9421D01*
X-148694Y9534D01*
X-148426Y9645D01*
X-148011Y9367D01*
Y7380D01*
X-147963Y7142D01*
X-148464Y6490D01*
X-148793Y5695D01*
X-148905Y4843D01*
X-148793Y3990D01*
X-148464Y3195D01*
X-147940Y2513D01*
X-147258Y1989D01*
X-146463Y1660D01*
X-145610Y1548D01*
X-144973Y1631D01*
X-144752Y1183D01*
X-146728Y-793D01*
X-147070Y-1305D01*
X-147191Y-1910D01*
Y-2118D01*
X-147258Y-2146D01*
X-147940Y-2670D01*
X-148464Y-3352D01*
X-148793Y-4147D01*
X-148905Y-5000D01*
X-148793Y-5853D01*
X-148464Y-6648D01*
X-147940Y-7330D01*
X-147258Y-7854D01*
X-146463Y-8183D01*
X-145610Y-8295D01*
X-144757Y-8183D01*
X-143963Y-7854D01*
X-143280Y-7330D01*
X-142756Y-6648D01*
X-142427Y-5853D01*
X-142315Y-5000D01*
X-142427Y-4147D01*
X-142756Y-3352D01*
X-143280Y-2670D01*
X-143463Y-2530D01*
X-143496Y-2031D01*
X-141900Y-435D01*
X-140041Y-2293D01*
X-140066Y-2670D01*
X-140590Y-3352D01*
X-140919Y-4147D01*
X-141031Y-5000D01*
X-140919Y-5853D01*
X-140590Y-6648D01*
X-140066Y-7330D01*
X-139384Y-7854D01*
X-138589Y-8183D01*
X-137736Y-8295D01*
X-136883Y-8183D01*
X-136089Y-7854D01*
X-135406Y-7330D01*
X-134882Y-6648D01*
X-134553Y-5853D01*
X-134441Y-5000D01*
X-134553Y-4147D01*
X-134882Y-3352D01*
X-135406Y-2670D01*
X-136089Y-2146D01*
X-136209Y-2097D01*
X-136276Y-1759D01*
X-136619Y-1246D01*
X-139045Y1180D01*
X-138996Y1678D01*
X-138857Y1771D01*
X-138589Y1660D01*
X-137736Y1548D01*
X-136883Y1660D01*
X-136089Y1989D01*
X-135406Y2513D01*
X-134882Y3195D01*
X-134553Y3990D01*
X-134441Y4843D01*
X-134553Y5695D01*
X-134882Y6490D01*
X-135383Y7142D01*
X-135336Y7380D01*
Y74429D01*
X-133750Y76015D01*
X-132263Y74528D01*
Y7380D01*
X-132215Y7142D01*
X-132716Y6490D01*
X-133045Y5695D01*
X-133157Y4843D01*
X-133045Y3990D01*
X-132716Y3195D01*
X-132192Y2513D01*
X-131510Y1989D01*
X-130715Y1660D01*
X-129862Y1548D01*
X-129626Y1579D01*
X-129405Y1130D01*
X-130980Y-445D01*
X-131322Y-957D01*
X-131443Y-1562D01*
Y-2118D01*
X-131510Y-2146D01*
X-132192Y-2670D01*
X-132716Y-3352D01*
X-133045Y-4147D01*
X-133157Y-5000D01*
X-133045Y-5853D01*
X-132716Y-6648D01*
X-132192Y-7330D01*
X-131510Y-7854D01*
X-130715Y-8183D01*
X-129862Y-8295D01*
X-129009Y-8183D01*
X-128215Y-7854D01*
X-127532Y-7330D01*
X-127008Y-6648D01*
X-126679Y-5853D01*
X-126567Y-5000D01*
X-126679Y-4147D01*
X-127008Y-3352D01*
X-127532Y-2670D01*
X-127912Y-2379D01*
X-127945Y-1880D01*
X-125628Y437D01*
X-125285Y950D01*
X-125165Y1555D01*
Y2838D01*
X-124691Y2999D01*
X-124318Y2513D01*
X-123636Y1989D01*
X-122841Y1660D01*
X-121988Y1548D01*
X-121377Y1628D01*
X-121155Y1180D01*
X-123106Y-771D01*
X-123448Y-1283D01*
X-123569Y-1888D01*
Y-2118D01*
X-123636Y-2146D01*
X-124318Y-2670D01*
X-124842Y-3352D01*
X-125171Y-4147D01*
X-125283Y-5000D01*
X-125171Y-5853D01*
X-124842Y-6648D01*
X-124318Y-7330D01*
X-123636Y-7854D01*
X-122841Y-8183D01*
X-121988Y-8295D01*
X-121135Y-8183D01*
X-120341Y-7854D01*
X-119658Y-7330D01*
X-119134Y-6648D01*
X-118805Y-5853D01*
X-118693Y-5000D01*
X-118805Y-4147D01*
X-119134Y-3352D01*
X-119658Y-2670D01*
X-119853Y-2520D01*
X-119886Y-2021D01*
X-117754Y111D01*
X-117411Y624D01*
X-117291Y1229D01*
Y2838D01*
X-116817Y2999D01*
X-116444Y2513D01*
X-115762Y1989D01*
X-114967Y1660D01*
X-114114Y1548D01*
X-113588Y1617D01*
X-113367Y1168D01*
X-115232Y-697D01*
X-115574Y-1209D01*
X-115695Y-1814D01*
Y-2118D01*
X-115762Y-2146D01*
X-116444Y-2670D01*
X-116968Y-3352D01*
X-117297Y-4147D01*
X-117409Y-5000D01*
X-117297Y-5853D01*
X-116968Y-6648D01*
X-116444Y-7330D01*
X-115762Y-7854D01*
X-114967Y-8183D01*
X-114114Y-8295D01*
X-113261Y-8183D01*
X-112467Y-7854D01*
X-111784Y-7330D01*
X-111260Y-6648D01*
X-110931Y-5853D01*
X-110819Y-5000D01*
X-110931Y-4147D01*
X-111260Y-3352D01*
X-111784Y-2670D01*
X-112021Y-2488D01*
X-112054Y-1989D01*
X-109880Y185D01*
X-109537Y698D01*
X-109417Y1303D01*
Y2838D01*
X-108943Y2999D01*
X-108570Y2513D01*
X-107888Y1989D01*
X-107093Y1660D01*
X-106240Y1548D01*
X-106025Y1110D01*
X-107358Y-223D01*
X-107700Y-735D01*
X-107821Y-1340D01*
Y-2118D01*
X-107888Y-2146D01*
X-108570Y-2670D01*
X-109094Y-3352D01*
X-109423Y-4147D01*
X-109535Y-5000D01*
X-109423Y-5853D01*
X-109094Y-6648D01*
X-108570Y-7330D01*
X-107888Y-7854D01*
X-107093Y-8183D01*
X-106240Y-8295D01*
X-105387Y-8183D01*
X-104593Y-7854D01*
X-103910Y-7330D01*
X-103386Y-6648D01*
X-103057Y-5853D01*
X-102945Y-5000D01*
X-103057Y-4147D01*
X-103386Y-3352D01*
X-103910Y-2670D01*
X-104416Y-2282D01*
X-104447Y-1796D01*
X-104438Y-1773D01*
X-102006Y659D01*
X-101663Y1172D01*
X-101543Y1777D01*
Y2838D01*
X-101069Y2999D01*
X-100696Y2513D01*
X-100014Y1989D01*
X-99219Y1660D01*
X-98366Y1548D01*
X-97895Y1609D01*
X-97674Y1161D01*
X-99484Y-649D01*
X-99826Y-1161D01*
X-99947Y-1766D01*
Y-2118D01*
X-100014Y-2146D01*
X-100696Y-2670D01*
X-101220Y-3352D01*
X-101549Y-4147D01*
X-101661Y-5000D01*
X-101549Y-5853D01*
X-101220Y-6648D01*
X-100696Y-7330D01*
X-100014Y-7854D01*
X-99219Y-8183D01*
X-98366Y-8295D01*
X-97513Y-8183D01*
X-96719Y-7854D01*
X-96036Y-7330D01*
X-95512Y-6648D01*
X-95183Y-5853D01*
X-95071Y-5000D01*
X-95183Y-4147D01*
X-95512Y-3352D01*
X-96036Y-2670D01*
X-96301Y-2467D01*
X-96333Y-1968D01*
X-94132Y233D01*
X-93789Y746D01*
X-93669Y1351D01*
Y2838D01*
X-93195Y2999D01*
X-92822Y2513D01*
X-92140Y1989D01*
X-91345Y1660D01*
X-90492Y1548D01*
X-90106Y1598D01*
X-89885Y1150D01*
X-91610Y-575D01*
X-91952Y-1087D01*
X-92073Y-1692D01*
Y-2118D01*
X-92140Y-2146D01*
X-92822Y-2670D01*
X-93346Y-3352D01*
X-93675Y-4147D01*
X-93787Y-5000D01*
X-93675Y-5853D01*
X-93346Y-6648D01*
X-92822Y-7330D01*
X-92140Y-7854D01*
X-91345Y-8183D01*
X-90492Y-8295D01*
X-89639Y-8183D01*
X-88845Y-7854D01*
X-88162Y-7330D01*
X-87638Y-6648D01*
X-87309Y-5853D01*
X-87197Y-5000D01*
X-87309Y-4147D01*
X-87638Y-3352D01*
X-88162Y-2670D01*
X-88468Y-2435D01*
X-88501Y-1936D01*
X-86258Y307D01*
X-85915Y820D01*
X-85795Y1425D01*
Y2838D01*
X-85321Y2999D01*
X-84948Y2513D01*
X-84266Y1989D01*
X-83471Y1660D01*
X-82618Y1548D01*
X-81765Y1660D01*
X-81497Y1771D01*
X-81386Y1696D01*
X-81336Y1198D01*
X-83736Y-1201D01*
X-84078Y-1713D01*
X-84155Y-2101D01*
X-84266Y-2146D01*
X-84948Y-2670D01*
X-85472Y-3352D01*
X-85801Y-4147D01*
X-85913Y-5000D01*
X-85801Y-5853D01*
X-85472Y-6648D01*
X-84948Y-7330D01*
X-84266Y-7854D01*
X-83471Y-8183D01*
X-82618Y-8295D01*
X-81765Y-8183D01*
X-80971Y-7854D01*
X-80288Y-7330D01*
X-79764Y-6648D01*
X-79435Y-5853D01*
X-79323Y-5000D01*
X-79435Y-4147D01*
X-79764Y-3352D01*
X-80288Y-2670D01*
X-80316Y-2251D01*
X-79493Y-1428D01*
X-79008Y-1550D01*
X-78775Y-2319D01*
X-78234Y-3331D01*
X-77506Y-4218D01*
X-76619Y-4946D01*
X-75607Y-5487D01*
X-74508Y-5821D01*
X-73366Y-5933D01*
X-72224Y-5821D01*
X-71126Y-5487D01*
X-70556Y-5183D01*
X-70111Y-5411D01*
X-70053Y-5853D01*
X-69724Y-6648D01*
X-69200Y-7330D01*
X-68518Y-7854D01*
X-67723Y-8183D01*
X-66870Y-8295D01*
X-66017Y-8183D01*
X-65222Y-7854D01*
X-64540Y-7330D01*
X-64016Y-6648D01*
X-63687Y-5853D01*
X-63575Y-5000D01*
X-63687Y-4147D01*
X-64016Y-3352D01*
X-64540Y-2670D01*
X-64689Y-2556D01*
X-64722Y-2057D01*
X-62636Y29D01*
X-62293Y542D01*
X-62173Y1147D01*
Y2838D01*
X-61699Y2999D01*
X-61326Y2513D01*
X-60644Y1989D01*
X-59849Y1660D01*
X-58996Y1548D01*
X-58260Y1644D01*
X-58039Y1196D01*
X-60114Y-879D01*
X-60456Y-1391D01*
X-60576Y-1996D01*
Y-2118D01*
X-60644Y-2146D01*
X-61326Y-2670D01*
X-61850Y-3352D01*
X-62179Y-4147D01*
X-62291Y-5000D01*
X-62179Y-5853D01*
X-61850Y-6648D01*
X-61326Y-7330D01*
X-60644Y-7854D01*
X-59849Y-8183D01*
X-58996Y-8295D01*
X-58143Y-8183D01*
X-57348Y-7854D01*
X-56666Y-7330D01*
X-56142Y-6648D01*
X-55813Y-5853D01*
X-55701Y-5000D01*
X-55813Y-4147D01*
X-56142Y-3352D01*
X-56666Y-2670D01*
X-56800Y-2567D01*
X-56833Y-2068D01*
X-55150Y-385D01*
X-53388Y-2147D01*
X-53421Y-2646D01*
X-53452Y-2670D01*
X-53976Y-3352D01*
X-54305Y-4147D01*
X-54417Y-5000D01*
X-54305Y-5853D01*
X-53976Y-6648D01*
X-53452Y-7330D01*
X-52770Y-7854D01*
X-51975Y-8183D01*
X-51122Y-8295D01*
X-50269Y-8183D01*
X-49474Y-7854D01*
X-48792Y-7330D01*
X-48268Y-6648D01*
X-47939Y-5853D01*
X-47827Y-5000D01*
X-47939Y-4147D01*
X-48268Y-3352D01*
X-48792Y-2670D01*
X-49474Y-2146D01*
X-49554Y-2113D01*
X-49662Y-1573D01*
X-50005Y-1060D01*
X-52349Y1284D01*
X-52071Y1700D01*
X-51975Y1660D01*
X-51122Y1548D01*
X-50269Y1660D01*
X-49474Y1989D01*
X-48792Y2513D01*
X-48268Y3195D01*
X-47939Y3990D01*
X-47827Y4843D01*
X-47939Y5695D01*
X-48268Y6490D01*
X-48769Y7142D01*
X-48722Y7380D01*
Y74044D01*
X-45882Y76882D01*
X-45540Y77395D01*
X-45420Y78000D01*
Y83500D01*
X-45540Y84105D01*
X-45882Y84618D01*
X-48786Y87521D01*
X-48268Y88195D01*
X-47939Y88990D01*
X-47827Y89843D01*
X-47939Y90695D01*
X-48268Y91490D01*
X-48792Y92173D01*
X-49474Y92696D01*
X-50269Y93025D01*
X-51122Y93138D01*
D02*
G37*
G36*
X-161358D02*
X-162211Y93025D01*
X-163006Y92696D01*
X-163688Y92173D01*
X-164212Y91490D01*
X-164541Y90695D01*
X-164653Y89843D01*
X-164541Y88990D01*
X-164212Y88195D01*
X-163688Y87513D01*
X-163006Y86989D01*
X-162211Y86660D01*
X-161358Y86547D01*
X-160505Y86660D01*
X-160438Y86688D01*
X-159002Y85251D01*
Y82875D01*
X-159450Y82654D01*
X-159711Y82854D01*
X-160505Y83183D01*
X-161358Y83295D01*
X-162211Y83183D01*
X-163006Y82854D01*
X-163688Y82330D01*
X-164212Y81648D01*
X-164541Y80853D01*
X-164653Y80000D01*
X-164541Y79147D01*
X-164212Y78352D01*
X-163688Y77670D01*
X-163519Y77540D01*
Y75376D01*
X-163934Y75098D01*
X-164442Y75309D01*
X-165295Y75421D01*
X-166148Y75309D01*
X-166656Y75098D01*
X-167072Y75376D01*
Y77540D01*
X-166902Y77670D01*
X-166378Y78352D01*
X-166049Y79147D01*
X-165937Y80000D01*
X-166049Y80853D01*
X-166378Y81648D01*
X-166902Y82330D01*
X-167585Y82854D01*
X-168379Y83183D01*
X-169232Y83295D01*
X-170085Y83183D01*
X-170880Y82854D01*
X-171141Y82653D01*
X-171589Y82875D01*
Y85251D01*
X-170152Y86688D01*
X-170085Y86660D01*
X-169232Y86547D01*
X-168379Y86660D01*
X-167585Y86989D01*
X-166902Y87513D01*
X-166378Y88195D01*
X-166049Y88990D01*
X-165937Y89843D01*
X-166049Y90695D01*
X-166378Y91490D01*
X-166902Y92173D01*
X-167585Y92696D01*
X-168379Y93025D01*
X-169232Y93138D01*
X-170085Y93025D01*
X-170880Y92696D01*
X-171562Y92173D01*
X-172086Y91490D01*
X-172415Y90695D01*
X-172527Y89843D01*
X-172415Y88990D01*
X-172387Y88923D01*
X-174287Y87023D01*
X-174629Y86510D01*
X-174750Y85905D01*
Y82875D01*
X-175198Y82654D01*
X-175459Y82854D01*
X-176254Y83183D01*
X-177106Y83295D01*
X-177146Y83290D01*
X-177367Y83738D01*
X-175989Y85116D01*
X-175646Y85629D01*
X-175526Y86234D01*
Y86961D01*
X-175459Y86989D01*
X-174776Y87513D01*
X-174253Y88195D01*
X-173924Y88990D01*
X-173811Y89843D01*
X-173924Y90695D01*
X-174253Y91490D01*
X-174776Y92173D01*
X-175459Y92696D01*
X-176254Y93025D01*
X-177106Y93138D01*
X-177959Y93025D01*
X-178754Y92696D01*
X-179436Y92173D01*
X-179960Y91490D01*
X-180289Y90695D01*
X-180402Y89843D01*
X-180289Y88990D01*
X-179960Y88195D01*
X-179436Y87513D01*
X-178960Y87147D01*
X-178927Y86648D01*
X-181170Y84405D01*
X-183303Y86538D01*
X-183270Y87037D01*
X-182650Y87513D01*
X-182127Y88195D01*
X-181798Y88990D01*
X-181685Y89843D01*
X-181798Y90695D01*
X-182127Y91490D01*
X-182650Y92173D01*
X-183333Y92696D01*
X-184128Y93025D01*
X-184980Y93138D01*
X-185833Y93025D01*
X-186628Y92696D01*
X-187310Y92173D01*
X-187834Y91490D01*
X-188163Y90695D01*
X-188276Y89843D01*
X-188163Y88990D01*
X-187834Y88195D01*
X-187310Y87513D01*
X-186628Y86989D01*
X-186561Y86961D01*
Y85980D01*
X-186441Y85376D01*
X-186098Y84863D01*
X-184982Y83747D01*
X-185143Y83274D01*
X-185833Y83183D01*
X-186628Y82854D01*
X-187310Y82330D01*
X-187834Y81648D01*
X-188163Y80853D01*
X-188276Y80000D01*
X-188163Y79147D01*
X-187834Y78352D01*
X-187310Y77670D01*
X-187141Y77540D01*
Y75376D01*
X-187556Y75098D01*
X-188065Y75309D01*
X-188917Y75421D01*
X-189770Y75309D01*
X-190278Y75098D01*
X-190694Y75376D01*
Y77540D01*
X-190524Y77670D01*
X-190001Y78352D01*
X-189672Y79147D01*
X-189559Y80000D01*
X-189672Y80853D01*
X-190001Y81648D01*
X-190524Y82330D01*
X-191207Y82854D01*
X-192002Y83183D01*
X-192854Y83295D01*
X-193707Y83183D01*
X-194502Y82854D01*
X-194763Y82654D01*
X-195211Y82875D01*
Y85251D01*
X-193774Y86688D01*
X-193707Y86660D01*
X-192854Y86547D01*
X-192002Y86660D01*
X-191207Y86989D01*
X-190524Y87513D01*
X-190001Y88195D01*
X-189672Y88990D01*
X-189559Y89843D01*
X-189672Y90695D01*
X-190001Y91490D01*
X-190524Y92173D01*
X-191207Y92696D01*
X-192002Y93025D01*
X-192854Y93138D01*
X-193707Y93025D01*
X-194502Y92696D01*
X-195184Y92173D01*
X-195708Y91490D01*
X-196037Y90695D01*
X-196150Y89843D01*
X-196037Y88990D01*
X-196009Y88923D01*
X-197909Y87023D01*
X-198251Y86510D01*
X-198372Y85906D01*
Y82875D01*
X-198820Y82654D01*
X-199081Y82854D01*
X-199876Y83183D01*
X-200728Y83295D01*
X-201581Y83183D01*
X-201849Y83072D01*
X-202265Y83350D01*
Y86071D01*
X-201648Y86688D01*
X-201581Y86660D01*
X-200728Y86547D01*
X-199876Y86660D01*
X-199081Y86989D01*
X-198398Y87513D01*
X-197875Y88195D01*
X-197546Y88990D01*
X-197433Y89843D01*
X-197546Y90695D01*
X-197875Y91490D01*
X-198398Y92173D01*
X-199081Y92696D01*
X-199876Y93025D01*
X-200728Y93138D01*
X-201581Y93025D01*
X-202376Y92696D01*
X-203058Y92173D01*
X-203582Y91490D01*
X-203911Y90695D01*
X-204024Y89843D01*
X-203911Y88990D01*
X-203883Y88923D01*
X-204665Y88141D01*
X-205447Y88923D01*
X-205420Y88990D01*
X-205307Y89843D01*
X-205420Y90695D01*
X-205749Y91490D01*
X-206272Y92173D01*
X-206955Y92696D01*
X-207750Y93025D01*
X-208602Y93138D01*
X-209455Y93025D01*
X-210250Y92696D01*
X-210932Y92173D01*
X-211456Y91490D01*
X-211785Y90695D01*
X-211897Y89843D01*
X-211785Y88990D01*
X-211456Y88195D01*
X-210932Y87513D01*
X-210250Y86989D01*
X-209455Y86660D01*
X-208602Y86547D01*
X-207750Y86660D01*
X-207682Y86688D01*
X-207066Y86071D01*
Y83350D01*
X-207482Y83072D01*
X-207750Y83183D01*
X-208602Y83295D01*
X-209455Y83183D01*
X-210250Y82854D01*
X-210551Y82623D01*
X-211019Y82799D01*
X-211040Y82905D01*
X-211383Y83417D01*
X-214632Y86667D01*
X-214599Y87165D01*
X-214146Y87513D01*
X-213623Y88195D01*
X-213294Y88990D01*
X-213181Y89843D01*
X-213294Y90695D01*
X-213623Y91490D01*
X-214146Y92173D01*
X-214829Y92696D01*
X-215624Y93025D01*
X-216476Y93138D01*
X-217329Y93025D01*
X-218124Y92696D01*
X-218806Y92173D01*
X-219330Y91490D01*
X-219659Y90695D01*
X-219772Y89843D01*
X-219659Y88990D01*
X-219330Y88195D01*
X-218806Y87513D01*
X-218124Y86989D01*
X-218057Y86961D01*
Y86276D01*
X-218057Y86276D01*
X-218057D01*
X-217936Y85672D01*
X-217594Y85159D01*
X-216167Y83732D01*
X-216388Y83284D01*
X-216476Y83295D01*
X-217329Y83183D01*
X-218124Y82854D01*
X-218806Y82330D01*
X-219330Y81648D01*
X-219659Y80853D01*
X-219772Y80000D01*
X-219659Y79147D01*
X-219330Y78352D01*
X-218806Y77670D01*
X-218637Y77540D01*
Y75376D01*
X-219052Y75098D01*
X-219561Y75309D01*
X-220413Y75421D01*
X-221266Y75309D01*
X-222061Y74980D01*
X-222743Y74456D01*
X-223267Y73774D01*
X-223596Y72979D01*
X-223709Y72126D01*
X-223596Y71273D01*
X-223267Y70478D01*
X-222743Y69796D01*
X-222061Y69272D01*
X-221266Y68943D01*
X-220413Y68831D01*
X-219561Y68943D01*
X-219052Y69154D01*
X-218637Y68876D01*
Y15967D01*
X-219052Y15689D01*
X-219561Y15899D01*
X-220413Y16012D01*
X-221266Y15899D01*
X-222061Y15570D01*
X-222743Y15047D01*
X-223267Y14364D01*
X-223596Y13569D01*
X-223709Y12717D01*
X-223596Y11864D01*
X-223267Y11069D01*
X-222743Y10387D01*
X-222061Y9863D01*
X-221266Y9534D01*
X-220932Y9490D01*
X-220772Y9016D01*
X-221517Y8270D01*
X-221860Y7758D01*
X-221980Y7153D01*
Y500D01*
X-221860Y-105D01*
X-221517Y-618D01*
X-219092Y-3043D01*
X-219330Y-3352D01*
X-219659Y-4147D01*
X-219772Y-5000D01*
X-219659Y-5853D01*
X-219330Y-6648D01*
X-218806Y-7330D01*
X-218124Y-7854D01*
X-217329Y-8183D01*
X-216476Y-8295D01*
X-215624Y-8183D01*
X-214829Y-7854D01*
X-214146Y-7330D01*
X-213623Y-6648D01*
X-213294Y-5853D01*
X-213181Y-5000D01*
X-213294Y-4147D01*
X-213623Y-3352D01*
X-214146Y-2670D01*
X-214829Y-2146D01*
X-215624Y-1817D01*
X-215882Y-1783D01*
X-218820Y1155D01*
Y1957D01*
X-218371Y2179D01*
X-218124Y1989D01*
X-217329Y1660D01*
X-216476Y1548D01*
X-215624Y1660D01*
X-214829Y1989D01*
X-214146Y2513D01*
X-213773Y2999D01*
X-213300Y2838D01*
Y519D01*
X-213179Y-85D01*
X-212837Y-598D01*
X-210922Y-2513D01*
X-210932Y-2670D01*
X-211456Y-3352D01*
X-211785Y-4147D01*
X-211897Y-5000D01*
X-211785Y-5853D01*
X-211456Y-6648D01*
X-210932Y-7330D01*
X-210250Y-7854D01*
X-209455Y-8183D01*
X-208602Y-8295D01*
X-207750Y-8183D01*
X-206955Y-7854D01*
X-206272Y-7330D01*
X-205749Y-6648D01*
X-205420Y-5853D01*
X-205307Y-5000D01*
X-205420Y-4147D01*
X-205749Y-3352D01*
X-206272Y-2670D01*
X-206955Y-2146D01*
X-207126Y-2076D01*
X-207142Y-1993D01*
X-207485Y-1480D01*
X-210051Y1087D01*
X-210002Y1584D01*
X-209723Y1771D01*
X-209455Y1660D01*
X-208602Y1548D01*
X-207750Y1660D01*
X-206955Y1989D01*
X-206272Y2513D01*
X-205749Y3195D01*
X-205420Y3990D01*
X-205307Y4843D01*
X-205420Y5695D01*
X-205749Y6490D01*
X-206249Y7142D01*
X-206202Y7380D01*
Y9367D01*
X-205786Y9645D01*
X-205518Y9534D01*
X-204665Y9421D01*
X-203813Y9534D01*
X-203545Y9645D01*
X-203129Y9367D01*
Y7380D01*
X-203082Y7142D01*
X-203582Y6490D01*
X-203911Y5695D01*
X-204024Y4843D01*
X-203911Y3990D01*
X-203582Y3195D01*
X-203058Y2513D01*
X-202376Y1989D01*
X-201581Y1660D01*
X-200728Y1548D01*
X-199876Y1660D01*
X-199864Y1665D01*
X-199586Y1249D01*
X-201846Y-1011D01*
X-202188Y-1524D01*
X-202307Y-2118D01*
X-202376Y-2146D01*
X-203058Y-2670D01*
X-203582Y-3352D01*
X-203911Y-4147D01*
X-204024Y-5000D01*
X-203911Y-5853D01*
X-203582Y-6648D01*
X-203058Y-7330D01*
X-202376Y-7854D01*
X-201581Y-8183D01*
X-200728Y-8295D01*
X-199876Y-8183D01*
X-199081Y-7854D01*
X-198398Y-7330D01*
X-197875Y-6648D01*
X-197546Y-5853D01*
X-197433Y-5000D01*
X-197546Y-4147D01*
X-197875Y-3352D01*
X-198398Y-2670D01*
X-198458Y-2624D01*
X-198491Y-2125D01*
X-195582Y783D01*
X-195240Y1295D01*
X-195120Y1900D01*
X-194673Y2120D01*
X-194502Y1989D01*
X-193707Y1660D01*
X-192854Y1548D01*
X-192002Y1660D01*
X-191946Y1683D01*
X-191668Y1267D01*
X-193972Y-1037D01*
X-194315Y-1550D01*
X-194427Y-2115D01*
X-194502Y-2146D01*
X-195184Y-2670D01*
X-195708Y-3352D01*
X-196037Y-4147D01*
X-196150Y-5000D01*
X-196037Y-5853D01*
X-195708Y-6648D01*
X-195184Y-7330D01*
X-194502Y-7854D01*
X-193707Y-8183D01*
X-192854Y-8295D01*
X-192002Y-8183D01*
X-191207Y-7854D01*
X-190524Y-7330D01*
X-190001Y-6648D01*
X-189672Y-5853D01*
X-189559Y-5000D01*
X-189672Y-4147D01*
X-190001Y-3352D01*
X-190524Y-2670D01*
X-190569Y-2636D01*
X-190601Y-2147D01*
X-189215Y-1220D01*
X-187508Y-2927D01*
X-187834Y-3352D01*
X-188163Y-4147D01*
X-188276Y-5000D01*
X-188163Y-5853D01*
X-187834Y-6648D01*
X-187310Y-7330D01*
X-186628Y-7854D01*
X-185833Y-8183D01*
X-184980Y-8295D01*
X-184128Y-8183D01*
X-183333Y-7854D01*
X-182650Y-7330D01*
X-182127Y-6648D01*
X-181798Y-5853D01*
X-181685Y-5000D01*
X-181798Y-4147D01*
X-182127Y-3352D01*
X-182650Y-2670D01*
X-183333Y-2146D01*
X-184128Y-1817D01*
X-184151Y-1814D01*
X-186517Y552D01*
Y1493D01*
X-186101Y1771D01*
X-185833Y1660D01*
X-184980Y1548D01*
X-184128Y1660D01*
X-183333Y1989D01*
X-182650Y2513D01*
X-182127Y3195D01*
X-181798Y3990D01*
X-181685Y4843D01*
X-181798Y5695D01*
X-182127Y6490D01*
X-182627Y7142D01*
X-182580Y7380D01*
Y9367D01*
X-182164Y9645D01*
X-181896Y9534D01*
X-181043Y9421D01*
X-180191Y9534D01*
X-179923Y9645D01*
X-179507Y9367D01*
Y7380D01*
X-179460Y7142D01*
X-179960Y6490D01*
X-180289Y5695D01*
X-180402Y4843D01*
X-180289Y3990D01*
X-179960Y3195D01*
X-179436Y2513D01*
X-178754Y1989D01*
X-177959Y1660D01*
X-177106Y1548D01*
X-176589Y1616D01*
X-176368Y1167D01*
X-178224Y-689D01*
X-178567Y-1202D01*
X-178687Y-1806D01*
Y-2118D01*
X-178754Y-2146D01*
X-179436Y-2670D01*
X-179960Y-3352D01*
X-180289Y-4147D01*
X-180402Y-5000D01*
X-180289Y-5853D01*
X-179960Y-6648D01*
X-179436Y-7330D01*
X-178754Y-7854D01*
X-177959Y-8183D01*
X-177106Y-8295D01*
X-176254Y-8183D01*
X-175459Y-7854D01*
X-174776Y-7330D01*
X-174253Y-6648D01*
X-173924Y-5853D01*
X-173811Y-5000D01*
X-173924Y-4147D01*
X-174253Y-3352D01*
X-174776Y-2670D01*
X-175018Y-2485D01*
X-175051Y-1986D01*
X-172082Y982D01*
X-171740Y1495D01*
X-171633Y2032D01*
X-171452Y2100D01*
X-171025Y2100D01*
X-170880Y1989D01*
X-170085Y1660D01*
X-169232Y1548D01*
X-168379Y1660D01*
X-168111Y1771D01*
X-167871Y1610D01*
X-167822Y1113D01*
X-170350Y-1415D01*
X-170692Y-1927D01*
X-170723Y-2081D01*
X-170880Y-2146D01*
X-171562Y-2670D01*
X-172086Y-3352D01*
X-172415Y-4147D01*
X-172527Y-5000D01*
X-172415Y-5853D01*
X-172086Y-6648D01*
X-171562Y-7330D01*
X-170880Y-7854D01*
X-170085Y-8183D01*
X-169232Y-8295D01*
X-168379Y-8183D01*
X-167585Y-7854D01*
X-166902Y-7330D01*
X-166378Y-6648D01*
X-166049Y-5853D01*
X-165937Y-5000D01*
X-166049Y-4147D01*
X-166378Y-3352D01*
X-166902Y-2670D01*
X-166917Y-2451D01*
X-165300Y-835D01*
X-163674Y-2461D01*
X-163688Y-2670D01*
X-164212Y-3352D01*
X-164541Y-4147D01*
X-164653Y-5000D01*
X-164541Y-5853D01*
X-164212Y-6648D01*
X-163688Y-7330D01*
X-163006Y-7854D01*
X-162211Y-8183D01*
X-161358Y-8295D01*
X-160505Y-8183D01*
X-159711Y-7854D01*
X-159028Y-7330D01*
X-158504Y-6648D01*
X-158175Y-5853D01*
X-158063Y-5000D01*
X-158175Y-4147D01*
X-158504Y-3352D01*
X-159028Y-2670D01*
X-159711Y-2146D01*
X-159870Y-2080D01*
X-159898Y-1937D01*
X-160241Y-1424D01*
X-162774Y1109D01*
X-162725Y1606D01*
X-162479Y1771D01*
X-162211Y1660D01*
X-161358Y1548D01*
X-160505Y1660D01*
X-159711Y1989D01*
X-159028Y2513D01*
X-158504Y3195D01*
X-158175Y3990D01*
X-158063Y4843D01*
X-158175Y5695D01*
X-158504Y6490D01*
X-159005Y7142D01*
X-158958Y7380D01*
Y9367D01*
X-158542Y9645D01*
X-158274Y9534D01*
X-157421Y9421D01*
X-156568Y9534D01*
X-155774Y9863D01*
X-155091Y10387D01*
X-154568Y11069D01*
X-154238Y11864D01*
X-154126Y12717D01*
X-154238Y13569D01*
X-154568Y14364D01*
X-155091Y15047D01*
X-155774Y15570D01*
X-156568Y15899D01*
X-157421Y16012D01*
X-158274Y15899D01*
X-158542Y15788D01*
X-158958Y16066D01*
Y68776D01*
X-158542Y69054D01*
X-158274Y68943D01*
X-157421Y68831D01*
X-156568Y68943D01*
X-155774Y69272D01*
X-155091Y69796D01*
X-154568Y70478D01*
X-154238Y71273D01*
X-154126Y72126D01*
X-154238Y72979D01*
X-154568Y73774D01*
X-155091Y74456D01*
X-155774Y74980D01*
X-156568Y75309D01*
X-157411Y75420D01*
X-157572Y75893D01*
X-156304Y77161D01*
X-155961Y77674D01*
X-155841Y78279D01*
Y85906D01*
X-155961Y86510D01*
X-156304Y87023D01*
X-158203Y88923D01*
X-158175Y88990D01*
X-158063Y89843D01*
X-158175Y90695D01*
X-158504Y91490D01*
X-159028Y92173D01*
X-159711Y92696D01*
X-160505Y93025D01*
X-161358Y93138D01*
D02*
G37*
G36*
X-314902Y101012D02*
X-315754Y100899D01*
X-316549Y100570D01*
X-317232Y100047D01*
X-317755Y99364D01*
X-318084Y98569D01*
X-318197Y97717D01*
X-318084Y96864D01*
X-317755Y96069D01*
X-317232Y95387D01*
X-316549Y94863D01*
X-315754Y94534D01*
X-314902Y94421D01*
X-314049Y94534D01*
X-313254Y94863D01*
X-312572Y95387D01*
X-312048Y96069D01*
X-311719Y96864D01*
X-311607Y97717D01*
X-311719Y98569D01*
X-312048Y99364D01*
X-312572Y100047D01*
X-313254Y100570D01*
X-314049Y100899D01*
X-314902Y101012D01*
D02*
G37*
G36*
X-259783D02*
X-260636Y100899D01*
X-261431Y100570D01*
X-262113Y100047D01*
X-262637Y99364D01*
X-262966Y98569D01*
X-263078Y97717D01*
X-262966Y96864D01*
X-262637Y96069D01*
X-262113Y95387D01*
X-261431Y94863D01*
X-260636Y94534D01*
X-259783Y94421D01*
X-258931Y94534D01*
X-258136Y94863D01*
X-257453Y95387D01*
X-256930Y96069D01*
X-256601Y96864D01*
X-256488Y97717D01*
X-256601Y98569D01*
X-256930Y99364D01*
X-257453Y100047D01*
X-258136Y100570D01*
X-258931Y100899D01*
X-259783Y101012D01*
D02*
G37*
G36*
X-267657D02*
X-268510Y100899D01*
X-269305Y100570D01*
X-269987Y100047D01*
X-270511Y99364D01*
X-270840Y98569D01*
X-270953Y97717D01*
X-270840Y96864D01*
X-270511Y96069D01*
X-269987Y95387D01*
X-269305Y94863D01*
X-268510Y94534D01*
X-267657Y94421D01*
X-266805Y94534D01*
X-266010Y94863D01*
X-265327Y95387D01*
X-264804Y96069D01*
X-264475Y96864D01*
X-264362Y97717D01*
X-264475Y98569D01*
X-264804Y99364D01*
X-265327Y100047D01*
X-266010Y100570D01*
X-266805Y100899D01*
X-267657Y101012D01*
D02*
G37*
G36*
X-251909D02*
X-252762Y100899D01*
X-253557Y100570D01*
X-254239Y100047D01*
X-254763Y99364D01*
X-255092Y98569D01*
X-255205Y97717D01*
X-255092Y96864D01*
X-254763Y96069D01*
X-254239Y95387D01*
X-253557Y94863D01*
X-252762Y94534D01*
X-251909Y94421D01*
X-251057Y94534D01*
X-250262Y94863D01*
X-249579Y95387D01*
X-249056Y96069D01*
X-248727Y96864D01*
X-248614Y97717D01*
X-248727Y98569D01*
X-249056Y99364D01*
X-249579Y100047D01*
X-250262Y100570D01*
X-251057Y100899D01*
X-251909Y101012D01*
D02*
G37*
G36*
X-236161D02*
X-237014Y100899D01*
X-237809Y100570D01*
X-238491Y100047D01*
X-239015Y99364D01*
X-239344Y98569D01*
X-239457Y97717D01*
X-239344Y96864D01*
X-239015Y96069D01*
X-238491Y95387D01*
X-237809Y94863D01*
X-237014Y94534D01*
X-236161Y94421D01*
X-235309Y94534D01*
X-234514Y94863D01*
X-233831Y95387D01*
X-233308Y96069D01*
X-232979Y96864D01*
X-232866Y97717D01*
X-232979Y98569D01*
X-233308Y99364D01*
X-233831Y100047D01*
X-234514Y100570D01*
X-235309Y100899D01*
X-236161Y101012D01*
D02*
G37*
G36*
X-244035D02*
X-244888Y100899D01*
X-245683Y100570D01*
X-246365Y100047D01*
X-246889Y99364D01*
X-247218Y98569D01*
X-247330Y97717D01*
X-247218Y96864D01*
X-246889Y96069D01*
X-246365Y95387D01*
X-245683Y94863D01*
X-244888Y94534D01*
X-244035Y94421D01*
X-243183Y94534D01*
X-242388Y94863D01*
X-241705Y95387D01*
X-241182Y96069D01*
X-240853Y96864D01*
X-240740Y97717D01*
X-240853Y98569D01*
X-241182Y99364D01*
X-241705Y100047D01*
X-242388Y100570D01*
X-243183Y100899D01*
X-244035Y101012D01*
D02*
G37*
G36*
X-299154D02*
X-300006Y100899D01*
X-300801Y100570D01*
X-301484Y100047D01*
X-302007Y99364D01*
X-302336Y98569D01*
X-302449Y97717D01*
X-302336Y96864D01*
X-302007Y96069D01*
X-301484Y95387D01*
X-300801Y94863D01*
X-300006Y94534D01*
X-299154Y94421D01*
X-298301Y94534D01*
X-297506Y94863D01*
X-296824Y95387D01*
X-296300Y96069D01*
X-295971Y96864D01*
X-295859Y97717D01*
X-295971Y98569D01*
X-296300Y99364D01*
X-296824Y100047D01*
X-297506Y100570D01*
X-298301Y100899D01*
X-299154Y101012D01*
D02*
G37*
G36*
X-307028D02*
X-307880Y100899D01*
X-308675Y100570D01*
X-309358Y100047D01*
X-309881Y99364D01*
X-310210Y98569D01*
X-310323Y97717D01*
X-310210Y96864D01*
X-309881Y96069D01*
X-309358Y95387D01*
X-308675Y94863D01*
X-307880Y94534D01*
X-307028Y94421D01*
X-306175Y94534D01*
X-305380Y94863D01*
X-304698Y95387D01*
X-304174Y96069D01*
X-303845Y96864D01*
X-303732Y97717D01*
X-303845Y98569D01*
X-304174Y99364D01*
X-304698Y100047D01*
X-305380Y100570D01*
X-306175Y100899D01*
X-307028Y101012D01*
D02*
G37*
G36*
X-291280D02*
X-292132Y100899D01*
X-292927Y100570D01*
X-293610Y100047D01*
X-294133Y99364D01*
X-294462Y98569D01*
X-294575Y97717D01*
X-294462Y96864D01*
X-294133Y96069D01*
X-293610Y95387D01*
X-292927Y94863D01*
X-292132Y94534D01*
X-291280Y94421D01*
X-290427Y94534D01*
X-289632Y94863D01*
X-288950Y95387D01*
X-288426Y96069D01*
X-288097Y96864D01*
X-287984Y97717D01*
X-288097Y98569D01*
X-288426Y99364D01*
X-288950Y100047D01*
X-289632Y100570D01*
X-290427Y100899D01*
X-291280Y101012D01*
D02*
G37*
G36*
X-275532D02*
X-276384Y100899D01*
X-277179Y100570D01*
X-277862Y100047D01*
X-278385Y99364D01*
X-278714Y98569D01*
X-278827Y97717D01*
X-278714Y96864D01*
X-278385Y96069D01*
X-277862Y95387D01*
X-277179Y94863D01*
X-276384Y94534D01*
X-275532Y94421D01*
X-274679Y94534D01*
X-273884Y94863D01*
X-273202Y95387D01*
X-272678Y96069D01*
X-272349Y96864D01*
X-272236Y97717D01*
X-272349Y98569D01*
X-272678Y99364D01*
X-273202Y100047D01*
X-273884Y100570D01*
X-274679Y100899D01*
X-275532Y101012D01*
D02*
G37*
G36*
X-283406D02*
X-284258Y100899D01*
X-285053Y100570D01*
X-285736Y100047D01*
X-286259Y99364D01*
X-286588Y98569D01*
X-286701Y97717D01*
X-286588Y96864D01*
X-286259Y96069D01*
X-285736Y95387D01*
X-285053Y94863D01*
X-284258Y94534D01*
X-283406Y94421D01*
X-282553Y94534D01*
X-281758Y94863D01*
X-281076Y95387D01*
X-280552Y96069D01*
X-280223Y96864D01*
X-280111Y97717D01*
X-280223Y98569D01*
X-280552Y99364D01*
X-281076Y100047D01*
X-281758Y100570D01*
X-282553Y100899D01*
X-283406Y101012D01*
D02*
G37*
%LPD*%
G36*
X-320999Y68876D02*
Y15967D01*
X-321415Y15689D01*
X-321923Y15899D01*
X-322776Y16012D01*
X-323628Y15899D01*
X-323896Y15788D01*
X-324312Y16066D01*
Y68776D01*
X-323896Y69054D01*
X-323628Y68943D01*
X-322776Y68831D01*
X-321923Y68943D01*
X-321415Y69154D01*
X-320999Y68876D01*
D02*
G37*
G36*
X-313125D02*
Y15967D01*
X-313541Y15689D01*
X-314049Y15899D01*
X-314902Y16012D01*
X-315754Y15899D01*
X-316022Y15788D01*
X-316438Y16066D01*
Y68776D01*
X-316022Y69054D01*
X-315754Y68943D01*
X-314902Y68831D01*
X-314049Y68943D01*
X-313541Y69154D01*
X-313125Y68876D01*
D02*
G37*
G36*
X-305251D02*
Y15967D01*
X-305667Y15689D01*
X-306175Y15899D01*
X-307028Y16012D01*
X-307880Y15899D01*
X-308148Y15788D01*
X-308564Y16066D01*
Y68776D01*
X-308148Y69054D01*
X-307880Y68943D01*
X-307028Y68831D01*
X-306175Y68943D01*
X-305667Y69154D01*
X-305251Y68876D01*
D02*
G37*
G36*
X-328873D02*
Y15967D01*
X-329289Y15689D01*
X-329797Y15899D01*
X-330650Y16012D01*
X-331502Y15899D01*
X-331770Y15788D01*
X-332186Y16066D01*
Y68776D01*
X-331770Y69054D01*
X-331502Y68943D01*
X-330650Y68831D01*
X-329797Y68943D01*
X-329289Y69154D01*
X-328873Y68876D01*
D02*
G37*
G36*
X-95282Y68943D02*
X-94429Y68831D01*
X-93576Y68943D01*
X-93308Y69054D01*
X-92893Y68776D01*
Y16066D01*
X-93308Y15788D01*
X-93576Y15899D01*
X-94429Y16012D01*
X-95282Y15899D01*
X-95790Y15689D01*
X-96206Y15967D01*
Y68876D01*
X-95790Y69154D01*
X-95282Y68943D01*
D02*
G37*
G36*
X-87408D02*
X-86555Y68831D01*
X-85702Y68943D01*
X-85434Y69054D01*
X-85019Y68776D01*
Y16066D01*
X-85434Y15788D01*
X-85702Y15899D01*
X-86555Y16012D01*
X-87408Y15899D01*
X-87916Y15689D01*
X-88332Y15967D01*
Y68876D01*
X-87916Y69154D01*
X-87408Y68943D01*
D02*
G37*
G36*
X-64581Y69272D02*
X-63786Y68943D01*
X-62933Y68831D01*
X-62080Y68943D01*
X-61812Y69054D01*
X-61396Y68776D01*
Y16066D01*
X-61812Y15788D01*
X-62080Y15899D01*
X-62933Y16012D01*
X-63786Y15899D01*
X-64581Y15570D01*
X-64841Y15370D01*
X-65290Y15591D01*
Y69251D01*
X-64841Y69472D01*
X-64581Y69272D01*
D02*
G37*
G36*
X-234385Y68876D02*
Y15967D01*
X-234800Y15689D01*
X-235309Y15899D01*
X-236161Y16012D01*
X-237014Y15899D01*
X-237282Y15788D01*
X-237698Y16066D01*
Y68776D01*
X-237282Y69054D01*
X-237014Y68943D01*
X-236161Y68831D01*
X-235309Y68943D01*
X-234800Y69154D01*
X-234385Y68876D01*
D02*
G37*
G36*
X-210763D02*
Y15967D01*
X-211178Y15689D01*
X-211687Y15899D01*
X-212539Y16012D01*
X-213392Y15899D01*
X-213660Y15788D01*
X-214076Y16066D01*
Y68776D01*
X-213660Y69054D01*
X-213392Y68943D01*
X-212539Y68831D01*
X-211687Y68943D01*
X-211178Y69154D01*
X-210763Y68876D01*
D02*
G37*
G36*
X-71567Y70132D02*
Y9676D01*
X-71567Y9676D01*
X-71567D01*
X-71447Y9072D01*
X-71104Y8559D01*
X-69425Y6880D01*
X-69724Y6490D01*
X-70053Y5695D01*
X-70111Y5254D01*
X-70556Y5025D01*
X-71126Y5330D01*
X-72224Y5663D01*
X-73366Y5775D01*
X-74508Y5663D01*
X-75607Y5330D01*
X-76619Y4789D01*
X-77469Y4091D01*
X-77921Y4305D01*
Y7959D01*
X-78041Y8564D01*
X-78356Y9036D01*
X-78300Y9161D01*
X-77942Y9519D01*
X-77828Y9534D01*
X-77034Y9863D01*
X-76351Y10387D01*
X-75827Y11069D01*
X-75498Y11864D01*
X-75386Y12717D01*
X-75498Y13569D01*
X-75827Y14364D01*
X-76351Y15047D01*
X-77034Y15570D01*
X-77828Y15899D01*
X-78681Y16012D01*
X-79534Y15899D01*
X-80042Y15689D01*
X-80458Y15967D01*
Y68876D01*
X-80042Y69154D01*
X-79534Y68943D01*
X-78681Y68831D01*
X-77828Y68943D01*
X-77034Y69272D01*
X-76351Y69796D01*
X-75827Y70478D01*
X-75498Y71273D01*
X-75386Y72126D01*
X-75498Y72979D01*
X-75775Y73646D01*
X-75359Y73924D01*
X-71567Y70132D01*
D02*
G37*
G36*
X-242259Y68876D02*
Y15967D01*
X-242674Y15689D01*
X-243183Y15899D01*
X-244035Y16012D01*
X-244888Y15899D01*
X-245156Y15788D01*
X-245572Y16066D01*
Y68776D01*
X-245156Y69054D01*
X-244888Y68943D01*
X-244035Y68831D01*
X-243183Y68943D01*
X-242674Y69154D01*
X-242259Y68876D01*
D02*
G37*
G36*
X-297377D02*
Y15967D01*
X-297793Y15689D01*
X-298301Y15899D01*
X-299154Y16012D01*
X-300006Y15899D01*
X-300274Y15788D01*
X-300690Y16066D01*
Y68776D01*
X-300274Y69054D01*
X-300006Y68943D01*
X-299154Y68831D01*
X-298301Y68943D01*
X-297793Y69154D01*
X-297377Y68876D01*
D02*
G37*
G36*
X-273755Y68876D02*
Y15967D01*
X-274170Y15689D01*
X-274679Y15899D01*
X-275532Y16012D01*
X-276384Y15899D01*
X-276652Y15788D01*
X-277068Y16066D01*
Y68776D01*
X-276652Y69054D01*
X-276384Y68943D01*
X-275532Y68831D01*
X-274679Y68943D01*
X-274170Y69154D01*
X-273755Y68876D01*
D02*
G37*
G36*
X-265881Y68876D02*
Y15967D01*
X-266296Y15689D01*
X-266805Y15899D01*
X-267657Y16012D01*
X-268510Y15899D01*
X-268778Y15788D01*
X-269194Y16066D01*
Y68776D01*
X-268778Y69054D01*
X-268510Y68943D01*
X-267657Y68831D01*
X-266805Y68943D01*
X-266296Y69154D01*
X-265881Y68876D01*
D02*
G37*
G36*
X-103156Y68943D02*
X-102303Y68831D01*
X-101450Y68943D01*
X-101182Y69054D01*
X-100767Y68776D01*
Y16066D01*
X-101182Y15788D01*
X-101450Y15899D01*
X-102303Y16012D01*
X-103156Y15899D01*
X-103664Y15689D01*
X-104080Y15967D01*
Y68876D01*
X-103664Y69154D01*
X-103156Y68943D01*
D02*
G37*
G36*
X-55912D02*
X-55059Y68831D01*
X-54206Y68943D01*
X-53698Y69154D01*
X-53282Y68876D01*
Y15967D01*
X-53698Y15689D01*
X-54206Y15899D01*
X-55059Y16012D01*
X-55912Y15899D01*
X-56420Y15689D01*
X-56836Y15967D01*
Y68876D01*
X-56420Y69154D01*
X-55912Y68943D01*
D02*
G37*
G36*
X-166148D02*
X-165295Y68831D01*
X-164442Y68943D01*
X-163934Y69154D01*
X-163519Y68876D01*
Y15967D01*
X-163934Y15689D01*
X-164442Y15899D01*
X-165295Y16012D01*
X-166148Y15899D01*
X-166656Y15689D01*
X-167072Y15967D01*
Y68876D01*
X-166656Y69154D01*
X-166148Y68943D01*
D02*
G37*
G36*
X-260636D02*
X-259783Y68831D01*
X-258931Y68943D01*
X-258663Y69054D01*
X-258247Y68776D01*
Y16066D01*
X-258663Y15788D01*
X-258931Y15899D01*
X-259783Y16012D01*
X-260636Y15899D01*
X-260904Y15788D01*
X-261320Y16066D01*
Y68776D01*
X-260904Y69054D01*
X-260636Y68943D01*
D02*
G37*
G36*
X-142526D02*
X-141673Y68831D01*
X-140820Y68943D01*
X-140312Y69154D01*
X-139897Y68876D01*
Y15967D01*
X-140312Y15689D01*
X-140820Y15899D01*
X-141673Y16012D01*
X-142526Y15899D01*
X-143034Y15689D01*
X-143450Y15967D01*
Y68876D01*
X-143034Y69154D01*
X-142526Y68943D01*
D02*
G37*
G36*
X-339376D02*
X-338524Y68831D01*
X-337671Y68943D01*
X-337163Y69154D01*
X-336747Y68876D01*
Y15967D01*
X-337163Y15689D01*
X-337671Y15899D01*
X-338524Y16012D01*
X-339376Y15899D01*
X-339885Y15689D01*
X-340300Y15967D01*
Y68876D01*
X-339885Y69154D01*
X-339376Y68943D01*
D02*
G37*
G36*
X-252762D02*
X-251909Y68831D01*
X-251057Y68943D01*
X-250548Y69154D01*
X-250133Y68876D01*
Y15967D01*
X-250548Y15689D01*
X-251057Y15899D01*
X-251909Y16012D01*
X-252762Y15899D01*
X-253270Y15689D01*
X-253686Y15967D01*
Y68876D01*
X-253270Y69154D01*
X-252762Y68943D01*
D02*
G37*
G36*
X-189770D02*
X-188917Y68831D01*
X-188065Y68943D01*
X-187556Y69154D01*
X-187141Y68876D01*
Y15967D01*
X-187556Y15689D01*
X-188065Y15899D01*
X-188917Y16012D01*
X-189770Y15899D01*
X-190278Y15689D01*
X-190694Y15967D01*
Y68876D01*
X-190278Y69154D01*
X-189770Y68943D01*
D02*
G37*
G36*
X-126778D02*
X-125925Y68831D01*
X-125072Y68943D01*
X-124804Y69054D01*
X-124389Y68776D01*
Y16066D01*
X-124804Y15788D01*
X-125072Y15899D01*
X-125925Y16012D01*
X-126778Y15899D01*
X-127286Y15689D01*
X-127702Y15967D01*
Y68876D01*
X-127286Y69154D01*
X-126778Y68943D01*
D02*
G37*
G36*
X-118904D02*
X-118051Y68831D01*
X-117198Y68943D01*
X-116930Y69054D01*
X-116515Y68776D01*
Y16066D01*
X-116930Y15788D01*
X-117198Y15899D01*
X-118051Y16012D01*
X-118904Y15899D01*
X-119412Y15689D01*
X-119828Y15967D01*
Y68876D01*
X-119412Y69154D01*
X-118904Y68943D01*
D02*
G37*
G36*
X-111030D02*
X-110177Y68831D01*
X-109324Y68943D01*
X-109056Y69054D01*
X-108641Y68776D01*
Y16066D01*
X-109056Y15788D01*
X-109324Y15899D01*
X-110177Y16012D01*
X-111030Y15899D01*
X-111538Y15689D01*
X-111954Y15967D01*
Y68876D01*
X-111538Y69154D01*
X-111030Y68943D01*
D02*
G37*
G36*
X-174022D02*
X-173169Y68831D01*
X-172317Y68943D01*
X-172049Y69054D01*
X-171633Y68776D01*
Y16066D01*
X-172049Y15788D01*
X-172317Y15899D01*
X-173169Y16012D01*
X-174022Y15899D01*
X-174530Y15689D01*
X-174946Y15967D01*
Y68876D01*
X-174530Y69154D01*
X-174022Y68943D01*
D02*
G37*
G36*
X-205518D02*
X-204665Y68831D01*
X-203813Y68943D01*
X-203545Y69054D01*
X-203129Y68776D01*
Y16066D01*
X-203545Y15788D01*
X-203813Y15899D01*
X-204665Y16012D01*
X-205518Y15899D01*
X-205786Y15788D01*
X-206202Y16066D01*
Y68776D01*
X-205786Y69054D01*
X-205518Y68943D01*
D02*
G37*
G36*
X-197644D02*
X-196791Y68831D01*
X-195939Y68943D01*
X-195671Y69054D01*
X-195255Y68776D01*
Y16066D01*
X-195671Y15788D01*
X-195939Y15899D01*
X-196791Y16012D01*
X-197644Y15899D01*
X-198152Y15689D01*
X-198568Y15967D01*
Y68876D01*
X-198152Y69154D01*
X-197644Y68943D01*
D02*
G37*
G36*
X-181896D02*
X-181043Y68831D01*
X-180191Y68943D01*
X-179923Y69054D01*
X-179507Y68776D01*
Y16066D01*
X-179923Y15788D01*
X-180191Y15899D01*
X-181043Y16012D01*
X-181896Y15899D01*
X-182164Y15788D01*
X-182580Y16066D01*
Y68776D01*
X-182164Y69054D01*
X-181896Y68943D01*
D02*
G37*
D10*
X-372823Y39933D02*
X-372756Y40000D01*
X-380551Y39933D02*
X-372823D01*
X-4516Y40000D02*
X-4449Y40067D01*
X-12244Y40000D02*
X-4516D01*
X-342461Y-5000D02*
Y-2361D01*
X-339344Y756D01*
Y7959D01*
X-337703Y703D02*
Y7959D01*
Y703D02*
X-334587Y-2413D01*
Y-5000D02*
Y-2413D01*
X-330500Y900D02*
X-326713Y-2887D01*
X-330500Y900D02*
Y7289D01*
X-327292Y10497D01*
X-326713Y-5000D02*
Y-2887D01*
X-322900Y2300D02*
X-318839Y-1761D01*
X-322900Y2300D02*
Y7015D01*
X-319419Y10497D01*
X-318839Y-5000D02*
Y-1761D01*
X-315000Y1900D02*
Y7041D01*
Y1900D02*
X-310965Y-2135D01*
Y-5000D02*
Y-2135D01*
X-315000Y7041D02*
X-311544Y10497D01*
X-267900Y2900D02*
X-263720Y-1280D01*
X-267900Y2900D02*
Y6897D01*
X-264300Y10497D01*
X-275600Y300D02*
X-271594Y-3706D01*
X-275600Y300D02*
Y7071D01*
X-272174Y10497D01*
X-283400Y1800D02*
X-279469Y-2131D01*
X-283400Y1800D02*
Y7145D01*
X-280048Y10497D01*
X-299100Y2000D02*
X-295217Y-1883D01*
X-299100Y2000D02*
Y7193D01*
X-295796Y10497D01*
X-306207Y-593D02*
Y7959D01*
Y-593D02*
X-303091Y-3709D01*
Y-5000D02*
Y-3709D01*
X-295217Y-5000D02*
Y-1883D01*
X-279469Y-5000D02*
Y-2131D01*
X-271594Y-5000D02*
Y-3706D01*
X-263720Y-5000D02*
Y-1280D01*
X-255846Y-5000D02*
Y-2146D01*
X-252730Y970D01*
Y7959D01*
X-251089Y589D02*
Y7959D01*
Y589D02*
X-247972Y-2528D01*
Y-5000D02*
Y-2528D01*
X-244400Y1900D02*
X-240098Y-2402D01*
X-244400Y1900D02*
Y6775D01*
X-240678Y10497D01*
X-240098Y-5000D02*
Y-2402D01*
X-236300Y2200D02*
X-232224Y-1876D01*
X-236300Y2200D02*
Y7001D01*
X-232804Y10497D01*
X-232224Y-5000D02*
Y-1876D01*
X-220400Y500D02*
X-216476Y-3424D01*
X-220400Y500D02*
Y7153D01*
X-217056Y10497D01*
X-216476Y-5000D02*
Y-3424D01*
X-211719Y519D02*
Y7959D01*
Y519D02*
X-208602Y-2598D01*
Y-5000D02*
Y-2598D01*
X-200728Y-2128D02*
X-196700Y1900D01*
Y7048D01*
X-200149Y10497D02*
X-196700Y7048D01*
X-200728Y-5000D02*
Y-2128D01*
X-192854Y-5000D02*
Y-2154D01*
X-189737Y962D01*
Y7959D01*
X-177106Y-1806D02*
X-173200Y2100D01*
Y7170D01*
X-176526Y10497D02*
X-173200Y7170D01*
X-188097Y-103D02*
Y7959D01*
Y-103D02*
X-184980Y-3220D01*
Y-5000D02*
Y-3220D01*
X-177106Y-5000D02*
Y-1806D01*
X-169232Y-5000D02*
Y-2532D01*
X-166115Y585D01*
Y7959D01*
X-164475Y575D02*
Y7959D01*
Y575D02*
X-161358Y-2542D01*
Y-5000D02*
Y-2542D01*
X-140853Y753D02*
Y7959D01*
Y753D02*
X-137736Y-2364D01*
Y-5000D02*
Y-2364D01*
X-145610Y-5000D02*
Y-1910D01*
X-142493Y1207D01*
Y7959D01*
X-129862Y-5000D02*
Y-1562D01*
X-126745Y1555D01*
Y7959D01*
X-121988Y-5000D02*
Y-1888D01*
X-118871Y1229D01*
Y7959D01*
X-114114Y-5000D02*
Y-1814D01*
X-110997Y1303D01*
Y7959D01*
X-106240Y-5000D02*
Y-1340D01*
X-103123Y1777D01*
Y7959D01*
X-98366Y-5000D02*
Y-1766D01*
X-95249Y1351D01*
Y7959D01*
X-90492Y-5000D02*
Y-1692D01*
X-87375Y1425D01*
Y7959D01*
X-82618Y-5000D02*
Y-2318D01*
X-79501Y799D01*
Y7959D01*
X-66870Y-5000D02*
Y-1970D01*
X-63753Y1147D01*
Y7959D01*
X-58996Y-5000D02*
Y-1996D01*
X-55879Y1121D01*
Y7959D01*
X-54239Y939D02*
Y7959D01*
Y939D02*
X-51122Y-2178D01*
Y-5000D02*
Y-2178D01*
X-86555Y78055D02*
Y82297D01*
Y78055D02*
X-83438Y74938D01*
Y7380D02*
Y74938D01*
X-94429Y78029D02*
Y82297D01*
Y78029D02*
X-91312Y74912D01*
Y7380D02*
Y74912D01*
X-102303Y78003D02*
Y85906D01*
Y78003D02*
X-99186Y74886D01*
Y7380D02*
Y74886D01*
X-110177Y78277D02*
Y85906D01*
Y78277D02*
X-107060Y75160D01*
Y7380D02*
Y75160D01*
X-117231Y77831D02*
Y86726D01*
Y77831D02*
X-114934Y75534D01*
Y7380D02*
Y75534D01*
X-132979Y77479D02*
Y86726D01*
Y77479D02*
X-130682Y75182D01*
Y7380D02*
Y75182D01*
X-136916Y7380D02*
Y75084D01*
X-134500Y77500D01*
Y84000D01*
X-149547Y78647D02*
Y82297D01*
Y78647D02*
X-146430Y75530D01*
Y7380D02*
Y75530D01*
X-160538Y7380D02*
Y75162D01*
X-157421Y78279D01*
Y85906D01*
X-207782Y7380D02*
Y75118D01*
X-205486Y77415D01*
Y86726D01*
X-215656Y7380D02*
Y75244D01*
X-212500Y78400D01*
Y82300D01*
X-231404Y7380D02*
Y75396D01*
X-228400Y78400D01*
Y82676D01*
X-239278Y7380D02*
Y75222D01*
X-236000Y78500D01*
Y83000D01*
X-247152Y7380D02*
Y75148D01*
X-244100Y78200D01*
Y81828D01*
X-258963Y77463D02*
Y86963D01*
Y77463D02*
X-256666Y75166D01*
Y7380D02*
Y75166D01*
X-262900Y7380D02*
Y75200D01*
X-260603Y77496D01*
Y84703D01*
X-270774Y7380D02*
Y75426D01*
X-267700Y78500D01*
Y82500D01*
X-278648Y7380D02*
Y75352D01*
X-275600Y78400D01*
Y85974D01*
X-294396Y7380D02*
Y75204D01*
X-291300Y78300D01*
Y82500D01*
X-302271Y7380D02*
Y75230D01*
X-299200Y78300D01*
Y82300D01*
X-310144Y7380D02*
Y75656D01*
X-307000Y78800D01*
Y82000D01*
X-318019Y7380D02*
Y75381D01*
X-314700Y78700D01*
Y82200D01*
X-325892Y7380D02*
Y75708D01*
X-322800Y78800D01*
Y81800D01*
X-333767Y7380D02*
Y75333D01*
X-330800Y78300D01*
Y82400D01*
X-346400Y76536D02*
X-343281Y73417D01*
X-346400Y76536D02*
Y85903D01*
X-342461Y89843D01*
X-326713Y85713D02*
X-322800Y81800D01*
X-334587Y86187D02*
Y89843D01*
Y86187D02*
X-330800Y82400D01*
X-326713Y85713D02*
Y89843D01*
X-310965Y85965D02*
X-307000Y82000D01*
X-303091Y86191D02*
X-299200Y82300D01*
X-295309Y86509D02*
X-291300Y82500D01*
X-279469Y89843D02*
X-275600Y85974D01*
X-271594Y86394D02*
X-267700Y82500D01*
X-263417Y87517D02*
Y89539D01*
Y87517D02*
X-260603Y84703D01*
X-247972Y85700D02*
X-244100Y81828D01*
X-247972Y85700D02*
Y89843D01*
X-232224Y86500D02*
X-228400Y82676D01*
X-240098Y87098D02*
X-236000Y83000D01*
X-240098Y87098D02*
Y89843D01*
X-232224Y86500D02*
Y89843D01*
X-216476Y86276D02*
X-212500Y82300D01*
X-208602Y89843D02*
X-205486Y86726D01*
X-203845Y77345D02*
Y86726D01*
Y77345D02*
X-201549Y75049D01*
Y7380D02*
Y75049D01*
X-196791Y77791D02*
Y85906D01*
Y77791D02*
X-193675Y74674D01*
Y7380D02*
Y74674D01*
X-196791Y85906D02*
X-192854Y89843D01*
X-184980Y85980D02*
Y89843D01*
Y85980D02*
X-181863Y82863D01*
Y77540D02*
Y82863D01*
X-184160Y7380D02*
Y75243D01*
X-181863Y77540D01*
X-180223Y77223D02*
Y83117D01*
Y77223D02*
X-177927Y74927D01*
Y7380D02*
Y74927D01*
X-173169Y77669D02*
Y85905D01*
Y77669D02*
X-170053Y74553D01*
Y7380D02*
Y74553D01*
X-173169Y85905D02*
X-169232Y89843D01*
X-161358D02*
X-157421Y85906D01*
X-149547Y82297D02*
X-145610Y86234D01*
X-137736Y87236D02*
X-134500Y84000D01*
X-137736Y87236D02*
Y89843D01*
X-126000Y76609D02*
X-122808Y73417D01*
X-126000Y76609D02*
Y82222D01*
X-123000Y85222D01*
X-110177Y85906D02*
X-106240Y89843D01*
X-102303Y85906D02*
X-98366Y89843D01*
X-94429Y82297D02*
X-90492Y86234D01*
X-86555Y82297D02*
X-82618Y86234D01*
X-79042Y79842D02*
Y88958D01*
X-77403Y90597D01*
X-67497D01*
X-63500Y78500D02*
X-59816Y74816D01*
X-63500Y78500D02*
Y85339D01*
X-58996Y89843D01*
X-50302Y7380D02*
Y74698D01*
X-47000Y78000D01*
Y83500D01*
X-51122Y87622D02*
X-47000Y83500D01*
X-51122Y87622D02*
Y89843D01*
X-59816Y7380D02*
Y74816D01*
X-342461Y80000D02*
X-341881Y79420D01*
X-343281Y7380D02*
Y73417D01*
Y7380D02*
X-342461Y6560D01*
X-341881Y10497D02*
Y79420D01*
Y10497D02*
X-339344Y7959D01*
X-342461Y4843D02*
Y6560D01*
X-335167Y79420D02*
X-334587Y80000D01*
Y6560D02*
X-333767Y7380D01*
X-335167Y10497D02*
Y79420D01*
X-337703Y7959D02*
X-335167Y10497D01*
X-334587Y4843D02*
Y6560D01*
X-327292Y79420D02*
X-326713Y80000D01*
Y6560D02*
X-325892Y7380D01*
X-327292Y10497D02*
Y79420D01*
X-326713Y4843D02*
Y6560D01*
X-319419Y79420D02*
X-318839Y80000D01*
Y6560D02*
X-318019Y7380D01*
X-319419Y10497D02*
Y79420D01*
X-318839Y4843D02*
Y6560D01*
X-311544Y79420D02*
X-310965Y80000D01*
Y6560D02*
X-310144Y7380D01*
X-311544Y10497D02*
Y79420D01*
X-310965Y4843D02*
Y6560D01*
X-303671Y79420D02*
X-303091Y80000D01*
Y6560D02*
X-302271Y7380D01*
X-303671Y10497D02*
Y79420D01*
X-306207Y7959D02*
X-303671Y10497D01*
X-303091Y4843D02*
Y6560D01*
X-295796Y79420D02*
X-295217Y80000D01*
Y6560D02*
X-294396Y7380D01*
X-295796Y10497D02*
Y79420D01*
X-295217Y4843D02*
Y6560D01*
X-280048Y79420D02*
X-279469Y80000D01*
Y6560D02*
X-278648Y7380D01*
X-280048Y10497D02*
Y79420D01*
X-279469Y4843D02*
Y6560D01*
X-272174Y10497D02*
Y79420D01*
X-271594Y80000D01*
Y6560D02*
X-270774Y7380D01*
X-271594Y4843D02*
Y6560D01*
X-264300Y79420D02*
X-263720Y80000D01*
Y6560D02*
X-262900Y7380D01*
X-264300Y10497D02*
Y79420D01*
X-263720Y4843D02*
Y6560D01*
X-255846Y80000D02*
X-255266Y79420D01*
X-256666Y7380D02*
X-255846Y6560D01*
X-255266Y10497D02*
Y79420D01*
Y10497D02*
X-252730Y7959D01*
X-255846Y4843D02*
Y6560D01*
X-248552Y79420D02*
X-247972Y80000D01*
Y6560D02*
X-247152Y7380D01*
X-248552Y10497D02*
Y79420D01*
X-251089Y7959D02*
X-248552Y10497D01*
X-247972Y4843D02*
Y6560D01*
X-240678Y79420D02*
X-240098Y80000D01*
Y6560D02*
X-239278Y7380D01*
X-240678Y10497D02*
Y79420D01*
X-240098Y4843D02*
Y6560D01*
X-232804Y79420D02*
X-232224Y80000D01*
Y6560D02*
X-231404Y7380D01*
X-232804Y10497D02*
Y79420D01*
X-232224Y4843D02*
Y6560D01*
X-217056Y79420D02*
X-216476Y80000D01*
Y6560D02*
X-215656Y7380D01*
X-217056Y10497D02*
Y79420D01*
X-216476Y4843D02*
Y6560D01*
X-209182Y79420D02*
X-208602Y80000D01*
Y6560D02*
X-207782Y7380D01*
X-209182Y10497D02*
Y79420D01*
X-211719Y7959D02*
X-209182Y10497D01*
X-208602Y4843D02*
Y6560D01*
X-200728Y80000D02*
X-200149Y79420D01*
X-201549Y7380D02*
X-200728Y6560D01*
X-200149Y10497D02*
Y79420D01*
X-200728Y4843D02*
Y6560D01*
X-192854Y80000D02*
X-192274Y79420D01*
X-193675Y7380D02*
X-192854Y6560D01*
X-192274Y10497D02*
Y79420D01*
Y10497D02*
X-189737Y7959D01*
X-192854Y4843D02*
Y6560D01*
X-185560Y79420D02*
X-184980Y80000D01*
Y6560D02*
X-184160Y7380D01*
X-185560Y10497D02*
Y79420D01*
X-188097Y7959D02*
X-185560Y10497D01*
X-184980Y4843D02*
Y6560D01*
X-176526Y10497D02*
Y79420D01*
X-177106Y80000D02*
X-176526Y79420D01*
X-177927Y7380D02*
X-177106Y6560D01*
Y4843D02*
Y6560D01*
X-180223Y83117D02*
X-177106Y86234D01*
X-169232Y80000D02*
X-168652Y79420D01*
X-170053Y7380D02*
X-169232Y6560D01*
X-168652Y10497D02*
Y79420D01*
Y10497D02*
X-166115Y7959D01*
X-169232Y4843D02*
Y6560D01*
X-161938Y79420D02*
X-161358Y80000D01*
Y6560D02*
X-160538Y7380D01*
X-161938Y10497D02*
Y79420D01*
X-164475Y7959D02*
X-161938Y10497D01*
X-161358Y4843D02*
Y6560D01*
X-145610Y80000D02*
X-145030Y79420D01*
X-146430Y7380D02*
X-145610Y6560D01*
X-145030Y10497D02*
Y79420D01*
Y10497D02*
X-142493Y7959D01*
X-145610Y4843D02*
Y6560D01*
Y86234D02*
Y89843D01*
X-138316Y10497D02*
Y79420D01*
X-137736Y80000D01*
Y6560D02*
X-136916Y7380D01*
X-140853Y7959D02*
X-138316Y10497D01*
X-137736Y4843D02*
Y6560D01*
X-129862Y80000D02*
X-129282Y79420D01*
X-130682Y7380D02*
X-129862Y6560D01*
X-129282Y10497D02*
Y79420D01*
Y10497D02*
X-126745Y7959D01*
X-129862Y4843D02*
Y6560D01*
X-122808Y7380D02*
Y73417D01*
X-121408Y10497D02*
Y79420D01*
X-121988Y80000D02*
X-121408Y79420D01*
X-122808Y7380D02*
X-121988Y6560D01*
X-121408Y10497D02*
X-118871Y7959D01*
X-121988Y4843D02*
Y6560D01*
X-114114Y80000D02*
X-113534Y79420D01*
X-114934Y7380D02*
X-114114Y6560D01*
X-113534Y10497D02*
Y79420D01*
Y10497D02*
X-110997Y7959D01*
X-114114Y4843D02*
Y6560D01*
X-106240Y80000D02*
X-105660Y79420D01*
X-107060Y7380D02*
X-106240Y6560D01*
X-105660Y10497D02*
Y79420D01*
Y10497D02*
X-103123Y7959D01*
X-106240Y4843D02*
Y6560D01*
X-98366Y80000D02*
X-97786Y79420D01*
X-99186Y7380D02*
X-98366Y6560D01*
X-97786Y10497D02*
Y79420D01*
Y10497D02*
X-95249Y7959D01*
X-98366Y4843D02*
Y6560D01*
X-89912Y10497D02*
Y79420D01*
X-90492Y80000D02*
X-89912Y79420D01*
X-91312Y7380D02*
X-90492Y6560D01*
X-89912Y10497D02*
X-87375Y7959D01*
X-90492Y4843D02*
Y6560D01*
X-82618Y80000D02*
X-82038Y79420D01*
X-83438Y7380D02*
X-82618Y6560D01*
X-82038Y10497D02*
Y79420D01*
Y10497D02*
X-79501Y7959D01*
X-82618Y4843D02*
Y6560D01*
X-66870Y11077D02*
Y80000D01*
X-69987Y9676D02*
X-66870Y6560D01*
Y11077D02*
X-63753Y7959D01*
X-66870Y4843D02*
Y6560D01*
X-58416Y10497D02*
Y79420D01*
X-58996Y80000D02*
X-58416Y79420D01*
X-51702Y10497D02*
Y79420D01*
X-59816Y7380D02*
X-58996Y6560D01*
X-58416Y10497D02*
X-55879Y7959D01*
X-58996Y4843D02*
Y6560D01*
X-51702Y79420D02*
X-51122Y80000D01*
Y6560D02*
X-50302Y7380D01*
X-54239Y7959D02*
X-51702Y10497D01*
X-51122Y4843D02*
Y6560D01*
X-256084Y89843D02*
X-255846D01*
X-258963Y86963D02*
X-256084Y89843D01*
X-203845Y86726D02*
X-200728Y89843D01*
X-177106Y86234D02*
Y89843D01*
X-132979Y86726D02*
X-129862Y89843D01*
X-123000Y85222D02*
Y88000D01*
X-117231Y86726D02*
X-114114Y89843D01*
X-90492Y86234D02*
Y89843D01*
X-82618Y86234D02*
Y89843D01*
X-318839Y86339D02*
Y89843D01*
X-310965Y85965D02*
Y89843D01*
X-318839Y86339D02*
X-314700Y82200D01*
X-303091Y86191D02*
Y89843D01*
X-295309Y89751D02*
X-295217Y89843D01*
X-295309Y86509D02*
Y89751D01*
X-271594Y86394D02*
Y89843D01*
X-263720D02*
X-263417Y89539D01*
X-216476Y86276D02*
Y89843D01*
X-69987Y9676D02*
Y70787D01*
X-79042Y79842D02*
X-69987Y70787D01*
D11*
X-354272Y12717D02*
Y30772D01*
X-363500Y40000D02*
X-354272Y30772D01*
X-367244Y40000D02*
X-363500D01*
X-27500D02*
X-17756D01*
X-35374Y80000D02*
Y89843D01*
D12*
Y-5000D02*
Y4843D01*
Y80000D01*
D13*
X-382500Y85000D02*
D03*
Y0D02*
D03*
X0D02*
D03*
Y85000D02*
D03*
D14*
X-354272Y12717D02*
D03*
X-346398D02*
D03*
X-338524D02*
D03*
X-330650D02*
D03*
X-322776D02*
D03*
X-314902D02*
D03*
X-307028D02*
D03*
X-299154D02*
D03*
X-291280D02*
D03*
X-283406D02*
D03*
X-275532D02*
D03*
X-267657D02*
D03*
X-259783D02*
D03*
X-251909D02*
D03*
X-244035D02*
D03*
X-236161D02*
D03*
X-228287D02*
D03*
X-220413D02*
D03*
X-350335Y4843D02*
D03*
X-342461D02*
D03*
X-334587D02*
D03*
X-326713D02*
D03*
X-318839D02*
D03*
X-310965D02*
D03*
X-303091D02*
D03*
X-295217D02*
D03*
X-287343D02*
D03*
X-279469D02*
D03*
X-271594D02*
D03*
X-263720D02*
D03*
X-255846D02*
D03*
X-247972D02*
D03*
X-240098D02*
D03*
X-232224D02*
D03*
X-224350D02*
D03*
X-350335Y-5000D02*
D03*
X-342461D02*
D03*
X-334587D02*
D03*
X-326713D02*
D03*
X-318839D02*
D03*
X-310965D02*
D03*
X-303091D02*
D03*
X-295217D02*
D03*
X-287343D02*
D03*
X-279469D02*
D03*
X-271594D02*
D03*
X-263720D02*
D03*
X-255846D02*
D03*
X-247972D02*
D03*
X-240098D02*
D03*
X-232224D02*
D03*
X-224350D02*
D03*
X-354272Y-12874D02*
D03*
X-346398D02*
D03*
X-338524D02*
D03*
X-330650D02*
D03*
X-322776D02*
D03*
X-314902D02*
D03*
X-307028D02*
D03*
X-299154D02*
D03*
X-291280D02*
D03*
X-283406D02*
D03*
X-275532D02*
D03*
X-267657D02*
D03*
X-259783D02*
D03*
X-251909D02*
D03*
X-244035D02*
D03*
X-236161D02*
D03*
X-228287D02*
D03*
X-220413D02*
D03*
X-157421D02*
D03*
X-153484Y-5000D02*
D03*
Y4843D02*
D03*
X-149547Y12717D02*
D03*
X-141673D02*
D03*
X-133799D02*
D03*
X-125925D02*
D03*
X-118051D02*
D03*
X-110177D02*
D03*
X-102303D02*
D03*
X-94429D02*
D03*
X-86555D02*
D03*
X-78681D02*
D03*
X-145610Y4843D02*
D03*
X-137736D02*
D03*
X-129862D02*
D03*
X-121988D02*
D03*
X-114114D02*
D03*
X-106240D02*
D03*
X-98366D02*
D03*
X-90492D02*
D03*
X-82618D02*
D03*
X-145610Y-5000D02*
D03*
X-137736D02*
D03*
X-129862D02*
D03*
X-121988D02*
D03*
X-114114D02*
D03*
X-106240D02*
D03*
X-98366D02*
D03*
X-90492D02*
D03*
X-82618D02*
D03*
X-149547Y-12874D02*
D03*
X-141673D02*
D03*
X-133799D02*
D03*
X-125925D02*
D03*
X-118051D02*
D03*
X-110177D02*
D03*
X-102303D02*
D03*
X-94429D02*
D03*
X-86555D02*
D03*
X-78681D02*
D03*
X-62933Y12717D02*
D03*
X-55059D02*
D03*
X-47185D02*
D03*
X-39311D02*
D03*
X-31437D02*
D03*
X-66870Y4843D02*
D03*
X-58996D02*
D03*
X-51122D02*
D03*
X-43248D02*
D03*
X-35374D02*
D03*
X-27500D02*
D03*
X-62933Y-12874D02*
D03*
X-55059D02*
D03*
X-47185D02*
D03*
X-39311D02*
D03*
X-31437D02*
D03*
X-66870Y-5000D02*
D03*
X-58996D02*
D03*
X-51122D02*
D03*
X-43248D02*
D03*
X-35374D02*
D03*
X-165295Y-12874D02*
D03*
X-173169D02*
D03*
X-181043D02*
D03*
X-188917D02*
D03*
X-196791D02*
D03*
X-204665D02*
D03*
X-212539D02*
D03*
X-161358Y-5000D02*
D03*
X-169232D02*
D03*
X-177106D02*
D03*
X-184980D02*
D03*
X-192854D02*
D03*
X-200728D02*
D03*
X-208602D02*
D03*
X-216476D02*
D03*
X-161358Y4843D02*
D03*
X-169232D02*
D03*
X-177106D02*
D03*
X-184980D02*
D03*
X-192854D02*
D03*
X-200728D02*
D03*
X-208602D02*
D03*
X-216476D02*
D03*
X-157421Y12717D02*
D03*
X-165295D02*
D03*
X-173169D02*
D03*
X-181043D02*
D03*
X-188917D02*
D03*
X-196791D02*
D03*
X-204665D02*
D03*
X-212539D02*
D03*
X-354272Y97717D02*
D03*
X-346398D02*
D03*
X-338524D02*
D03*
X-330650D02*
D03*
X-322776D02*
D03*
X-314902D02*
D03*
X-307028D02*
D03*
X-299154D02*
D03*
X-291280D02*
D03*
X-283406D02*
D03*
X-275532D02*
D03*
X-267657D02*
D03*
X-259783D02*
D03*
X-251909D02*
D03*
X-244035D02*
D03*
X-236161D02*
D03*
X-228287D02*
D03*
X-220413D02*
D03*
X-350335Y89843D02*
D03*
X-342461D02*
D03*
X-334587D02*
D03*
X-326713D02*
D03*
X-318839D02*
D03*
X-310965D02*
D03*
X-303091D02*
D03*
X-295217D02*
D03*
X-287343D02*
D03*
X-279469D02*
D03*
X-271594D02*
D03*
X-263720D02*
D03*
X-255846D02*
D03*
X-247972D02*
D03*
X-240098D02*
D03*
X-232224D02*
D03*
X-224350D02*
D03*
X-350335Y80000D02*
D03*
X-342461D02*
D03*
X-334587D02*
D03*
X-326713D02*
D03*
X-318839D02*
D03*
X-310965D02*
D03*
X-303091D02*
D03*
X-295217D02*
D03*
X-287343D02*
D03*
X-279469D02*
D03*
X-271594D02*
D03*
X-263720D02*
D03*
X-255846D02*
D03*
X-247972D02*
D03*
X-240098D02*
D03*
X-232224D02*
D03*
X-224350D02*
D03*
X-354272Y72126D02*
D03*
X-346398D02*
D03*
X-338524D02*
D03*
X-330650D02*
D03*
X-322776D02*
D03*
X-314902D02*
D03*
X-307028D02*
D03*
X-299154D02*
D03*
X-291280D02*
D03*
X-283406D02*
D03*
X-275532D02*
D03*
X-267657D02*
D03*
X-259783D02*
D03*
X-251909D02*
D03*
X-244035D02*
D03*
X-236161D02*
D03*
X-228287D02*
D03*
X-220413D02*
D03*
X-157421D02*
D03*
X-153484Y80000D02*
D03*
Y89843D02*
D03*
X-149547Y97717D02*
D03*
X-141673D02*
D03*
X-133799D02*
D03*
X-125925D02*
D03*
X-118051D02*
D03*
X-110177D02*
D03*
X-102303D02*
D03*
X-94429D02*
D03*
X-86555D02*
D03*
X-78681D02*
D03*
X-145610Y89843D02*
D03*
X-137736D02*
D03*
X-129862D02*
D03*
X-121988D02*
D03*
X-114114D02*
D03*
X-106240D02*
D03*
X-98366D02*
D03*
X-90492D02*
D03*
X-82618D02*
D03*
X-145610Y80000D02*
D03*
X-137736D02*
D03*
X-129862D02*
D03*
X-121988D02*
D03*
X-114114D02*
D03*
X-106240D02*
D03*
X-98366D02*
D03*
X-90492D02*
D03*
X-82618D02*
D03*
X-149547Y72126D02*
D03*
X-141673D02*
D03*
X-133799D02*
D03*
X-125925D02*
D03*
X-118051D02*
D03*
X-110177D02*
D03*
X-102303D02*
D03*
X-94429D02*
D03*
X-86555D02*
D03*
X-78681D02*
D03*
X-62933Y97717D02*
D03*
X-55059D02*
D03*
X-47185D02*
D03*
X-39311D02*
D03*
X-31437D02*
D03*
X-66870Y89843D02*
D03*
X-58996D02*
D03*
X-51122D02*
D03*
X-43248D02*
D03*
X-35374D02*
D03*
X-27500D02*
D03*
X-62933Y72126D02*
D03*
X-55059D02*
D03*
X-47185D02*
D03*
X-39311D02*
D03*
X-31437D02*
D03*
X-66870Y80000D02*
D03*
X-58996D02*
D03*
X-51122D02*
D03*
X-43248D02*
D03*
X-35374D02*
D03*
X-165295Y72126D02*
D03*
X-173169D02*
D03*
X-181043D02*
D03*
X-188917D02*
D03*
X-196791D02*
D03*
X-204665D02*
D03*
X-212539D02*
D03*
X-161358Y80000D02*
D03*
X-169232D02*
D03*
X-177106D02*
D03*
X-184980D02*
D03*
X-192854D02*
D03*
X-200728D02*
D03*
X-208602D02*
D03*
X-216476D02*
D03*
X-161358Y89843D02*
D03*
X-169232D02*
D03*
X-177106D02*
D03*
X-184980D02*
D03*
X-192854D02*
D03*
X-200728D02*
D03*
X-208602D02*
D03*
X-216476D02*
D03*
X-157421Y97717D02*
D03*
X-165295D02*
D03*
X-173169D02*
D03*
X-181043D02*
D03*
X-188917D02*
D03*
X-196791D02*
D03*
X-204665D02*
D03*
X-212539D02*
D03*
D15*
X-361358Y-79D02*
D03*
X-73366D02*
D03*
X-361358Y84921D02*
D03*
X-73366D02*
D03*
D16*
X-27500Y-5000D02*
D03*
Y80000D02*
D03*
D17*
X-367244Y40000D02*
D03*
X-372756D02*
D03*
X-17756D02*
D03*
X-12244D02*
D03*
D18*
X-380551Y39933D02*
D03*
X-389606D02*
D03*
X-4449Y40067D02*
D03*
X4606D02*
D03*
D19*
X-27500Y4843D02*
Y40000D01*
Y80000D01*
Y-5000D02*
Y4843D01*
Y80000D02*
Y89843D01*
D20*
Y80000D02*
D03*
M02*
